<?xml version="1.0" encoding="utf-8"?>
<svg width="24px" height="23px" viewBox="0 0 24 23" version="1.1" xmlns:xlink="http://www.w3.org/1999/xlink" xmlns="http://www.w3.org/2000/svg">
  <path d="M23.4381 7.16364C22.9069 6.474 22.0967 6.07928 21.2156 6.07928L18.8026 6.07928C18.7761 5.98389 18.7362 5.88843 18.6787 5.8017L14.849 0.375427C14.5701 -0.0192871 14.0211 -0.11908 13.6182 0.154236C13.2153 0.42749 13.1135 0.965332 13.3925 1.36005L16.7174 6.07928L7.2782 6.07928L10.6031 1.36438C10.8821 0.969666 10.7803 0.431824 10.3773 0.158569C9.97449 -0.114685 9.42554 -0.0149536 9.14661 0.379761L5.32129 5.80603C5.25928 5.89276 5.21948 5.98822 5.19739 6.08362L2.78442 6.08362C1.90332 6.08362 1.09314 6.47833 0.56189 7.16803C0.0305176 7.85767 -0.133179 8.72949 0.110229 9.55798L3.45288 21.0221C3.79382 22.1846 4.89185 23 6.12708 23L17.8729 23C19.1082 23 20.2106 22.1889 20.5471 21.0221L23.8898 9.55798C24.1332 8.72516 23.9695 7.85333 23.4381 7.16364ZM22.1896 9.07654L18.8469 20.5406C18.723 20.9657 18.3245 21.2606 17.8729 21.2606L6.12268 21.2606C5.67102 21.2606 5.27258 20.9657 5.14868 20.5406L1.80591 9.07654C1.71741 8.77289 1.77942 8.45624 1.96973 8.20898C2.16455 7.95746 2.45679 7.81427 2.78003 7.81427L21.2112 7.81427C21.5299 7.81427 21.8265 7.95746 22.0214 8.20898C22.2162 8.46057 22.2737 8.77722 22.1896 9.07654L22.1896 9.07654Z" id="Shape" fill="#FFFFFF" stroke="none" />
</svg>