<?xml version="1.0" encoding="UTF-8"?>
<svg width="19px" height="22px" viewBox="0 0 19 22" version="1.1" xmlns="http://www.w3.org/2000/svg" xmlns:xlink="http://www.w3.org/1999/xlink">
    <title>v</title>
    <g id="v" stroke="none" stroke-width="1" fill="none" fill-rule="evenodd">
        <path d="M18.8488721,5.14927794 L13.6507124,0.173919775 C13.4640235,-0.0347766579 13.1357913,-0.0591052904 12.9177707,0.119661202 C12.6997501,0.298384612 12.6743244,0.612476606 12.8611134,0.821172311 C12.878531,0.840626933 12.8974502,0.858798456 12.9177707,0.875430884 L17.227031,5.00497345 L0.519800956,5.00497345 C0.232740497,5.00497345 0,5.22774163 0,5.50253102 C0,5.77733081 0.232740497,6.00005736 0.519800956,6.00005736 L17.227031,6.00005736 L12.9177707,10.1245934 C12.6997501,10.3033221 12.6743244,10.6173641 12.8611134,10.826115 C13.0479024,11.0347618 13.3759343,11.0591126 13.594055,10.8803319 C13.6143756,10.8636818 13.6332947,10.8455748 13.6507124,10.826115 L18.8488721,5.85074743 C19.050376,5.65676314 19.050376,5.34335588 18.8488721,5.14927794 Z" id="Path" fill="#839A20" fill-rule="nonzero"></path>
        <path d="M18.8488721,16.1492779 L13.6507124,11.1739198 C13.4640235,10.9652233 13.1357913,10.9408947 12.9177707,11.1196612 C12.6997501,11.2983846 12.6743244,11.6124766 12.8611134,11.8211723 C12.878531,11.8406269 12.8974502,11.8587985 12.9177707,11.8754309 L17.227031,16.0049734 L0.519800956,16.0049734 C0.232740497,16.0049734 0,16.2277416 0,16.502531 C0,16.7773308 0.232740497,17.0000574 0.519800956,17.0000574 L17.227031,17.0000574 L12.9177707,21.1245934 C12.6997501,21.3033221 12.6743244,21.6173641 12.8611134,21.826115 C13.0479024,22.0347618 13.3759343,22.0591126 13.594055,21.8803319 C13.6143756,21.8636818 13.6332947,21.8455748 13.6507124,21.826115 L18.8488721,16.8507474 C19.050376,16.6567631 19.050376,16.3433559 18.8488721,16.1492779 Z" id="Path-Copy" fill="#FFFFFF" fill-rule="nonzero"></path>
    </g>
</svg>