<?xml version="1.0" encoding="utf-8"?>
<svg width="49px" height="46px" viewBox="0 0 49 46" version="1.1" xmlns:xlink="http://www.w3.org/1999/xlink" xmlns="http://www.w3.org/2000/svg">
  <g id="recycle" transform="translate(1.5 1.5)">
    <path d="M4.0143 22.2167L17.4532 22.2167C18.9227 22.2167 20.125 21.0122 20.125 19.54C20.125 18.0678 18.9227 16.8633 17.4532 16.8633L6.32982 16.8633C6.48683 16.593 12.4848 6.4209 12.1097 7.06669L13.0182 7.60202C13.4723 7.89645 14.0601 7.84301 14.4877 7.52181C14.9151 7.20061 15.1289 6.63842 14.9686 6.10309C14.8986 5.83007 13.5774 0.670545 13.6594 0.990762C13.4375 0.268689 12.7117 -0.156453 12.0296 0.0538427C11.7572 0.123793 6.60697 1.4474 6.9266 1.36541C6.39225 1.49933 6.01811 1.95436 5.93805 2.48969C5.85781 3.02493 6.09836 3.5335 6.57927 3.82802L7.51448 4.36326C7.35711 4.63396 0.0848506 17.0058 0.541098 16.221C-0.180366 17.479 -0.180366 18.9779 0.541098 20.2093C1.28901 21.4672 2.57163 22.2167 4.0143 22.2167L4.0143 22.2167Z" transform="translate(0 17.916672)" id="Path" fill="#82992F" stroke="#FFFFFF" stroke-width="3" />
    <path d="M5.01751 14.9271L9.8263 6.72475L15.477 16.3723L14.4908 16.9464C14.0054 17.2153 13.7629 17.7534 13.8436 18.2914C13.8977 18.8294 14.3019 19.2598 14.8413 19.3942C15.1157 19.4657 20.3132 20.8232 19.9912 20.7391C20.6923 20.9274 21.4471 20.4971 21.6359 19.7708C21.7066 19.4964 23.0399 14.3113 22.9571 14.6331C23.0919 14.0951 22.9031 13.557 22.4718 13.2073C22.0405 12.8845 21.4472 12.8576 20.9619 13.1267L20.1023 13.6358L13.3314 2.04435C12.6035 0.753092 11.2822 0 9.82621 0C8.37023 0 7.04897 0.753092 6.32106 2.01745L0.366181 12.2191C-0.392549 13.5191 0.0666255 15.1875 1.38465 15.9186C2.66448 16.6285 4.2781 16.188 5.01751 14.9271Z" transform="translate(12.9375 0)" id="Path" fill="#82992F" stroke="#FFFFFF" stroke-width="3" />
    <path d="M22.4543 16.0203C23.1819 14.7681 23.1819 13.2439 22.4543 11.9375L16.239 1.34777C15.4706 0.0196134 13.7655 -0.400907 12.4777 0.420264C11.2512 1.20224 10.8584 2.82526 11.5896 4.09045L16.6072 12.6179L6.73271 12.6179L6.73091 11.2548C6.72957 10.7033 6.40065 10.2075 5.89677 9.9976C5.3955 9.79029 4.81392 9.90588 4.42843 10.2966L0.391911 14.4294C-0.134693 14.9639 -0.128315 15.8256 0.39721 16.3538L4.44432 20.3873C4.81716 20.7637 5.39244 20.896 5.91267 20.6784C6.41529 20.4671 6.73765 19.9713 6.7363 19.4212L6.73451 18.0616L18.9516 18.0616C20.4064 18.0616 21.6999 17.2995 22.4543 16.0203L22.4543 16.0203Z" transform="translate(23 22.216675)" id="Path" fill="#82992F" stroke="#FFFFFF" stroke-width="3" />
  </g>
</svg>