<?xml version="1.0" encoding="UTF-8"?>
<svg width="13px" height="13px" viewBox="0 0 13 13" version="1.1" xmlns="http://www.w3.org/2000/svg" xmlns:xlink="http://www.w3.org/1999/xlink">
    <title>Path</title>
    <g id="Symbols" stroke="none" stroke-width="1" fill="none" fill-rule="evenodd">
        <g id="Header/logout" transform="translate(-1177.000000, -12.000000)" fill="#808080" fill-rule="nonzero">
            <g id="Group-84-Copy" transform="translate(1177.000000, 9.000000)">
                <g id="phone-call" transform="translate(0.000000, 3.000000)">
                    <path d="M12.7397628,9.98807965 L10.9676713,8.21725371 C10.6175903,7.87240866 10.0568411,7.87240866 9.7067601,8.21725371 L8.58216359,9.37295064 C8.4675353,9.47236543 8.30023995,9.47236543 8.18561165,9.37295064 C7.35223298,8.70500752 6.55293298,7.99667715 5.79390779,7.2448528 C5.0348826,6.48992174 4.32232834,5.69460342 3.65314695,4.85889785 C3.54781284,4.74705621 3.54781284,4.57308033 3.65314695,4.46123869 L4.83041051,3.30864847 C5.17429539,2.95137657 5.17429539,2.38595495 4.83041051,2.02868305 L3.05831905,0.251643686 C2.69894385,-0.0838812288 2.14129269,-0.0838812288 1.7819175,0.251643686 L0.325828363,1.71801183 C0.325828363,1.71801183 0.260769061,1.78014608 0.239082627,1.80499978 C-0.581903802,2.79293425 0.728576423,5.92760684 3.90718803,9.09645326 C6.22144035,11.4295941 8.83620467,12.9922703 10.3976279,12.9922703 C10.6578651,13.017124 10.9304946,12.9860569 11.1473589,12.8400414 C11.1907318,12.8089743 11.3115562,12.7002394 11.3115562,12.7002394 L12.7397628,11.2618316 C13.0867457,10.9076665 13.0867457,10.3422448 12.7397628,9.98807965 Z" id="Path"></path>
                </g>
            </g>
        </g>
    </g>
</svg>