<?xml version="1.0" encoding="utf-8"?>
<svg width="12px" height="12px" viewBox="0 0 12 12" version="1.1" xmlns:xlink="http://www.w3.org/1999/xlink" xmlns="http://www.w3.org/2000/svg">
  <defs>
    <filter id="filter_1">
      <feColorMatrix in="SourceGraphic" type="matrix" values="0 0 0 0 0.4392157 0 0 0 0 0.4392157 0 0 0 0 0.4392157 0 0 0 1 0" color-interpolation-filters="sRGB" />
    </filter>
  </defs>
  <g id="Group-14" filter="url(#filter_1)">
    <path d="M0.856143 5.14286L11.1439 5.14286Q11.2282 5.14286 11.3109 5.15931Q11.3936 5.17576 11.4715 5.20803Q11.5494 5.2403 11.6195 5.28714Q11.6896 5.33399 11.7492 5.39362Q11.8089 5.45324 11.8557 5.52335Q11.9026 5.59346 11.9348 5.67137Q11.9671 5.74927 11.9835 5.83197Q12 5.91468 12 5.999L12 6.001Q12 6.08532 11.9835 6.16802Q11.9671 6.25073 11.9348 6.32863Q11.9026 6.40653 11.8557 6.47665Q11.8089 6.54676 11.7492 6.60638Q11.6896 6.66601 11.6195 6.71286Q11.5494 6.7597 11.4715 6.79197Q11.3936 6.82424 11.3109 6.84069Q11.2282 6.85714 11.1439 6.85714L0.856143 6.85714Q0.77182 6.85714 0.689118 6.84069Q0.606415 6.82424 0.528511 6.79197Q0.450607 6.7597 0.380495 6.71286Q0.310384 6.66601 0.250758 6.60638Q0.191133 6.54676 0.144286 6.47665Q0.0974389 6.40653 0.06517 6.32863Q0.0329011 6.25073 0.0164505 6.16802Q0 6.08532 0 6.001L0 5.999Q0 5.91468 0.0164505 5.83197Q0.0329011 5.74927 0.06517 5.67137Q0.0974389 5.59346 0.144286 5.52335Q0.191133 5.45324 0.250758 5.39362Q0.310384 5.33399 0.380495 5.28714Q0.450607 5.2403 0.528511 5.20803Q0.606415 5.17576 0.689118 5.15931Q0.77182 5.14286 0.856143 5.14286Z" id="Rectangle" fill="#C1C1C1" fill-rule="evenodd" stroke="none" />
    <path d="M6.85714 0.856143L6.85714 11.1439Q6.85714 11.2282 6.84069 11.3109Q6.82424 11.3936 6.79197 11.4715Q6.7597 11.5494 6.71286 11.6195Q6.66601 11.6896 6.60638 11.7492Q6.54676 11.8089 6.47665 11.8557Q6.40653 11.9026 6.32863 11.9348Q6.25073 11.9671 6.16803 11.9835Q6.08532 12 6.001 12L5.999 12Q5.91468 12 5.83197 11.9835Q5.74927 11.9671 5.67137 11.9348Q5.59346 11.9026 5.52335 11.8557Q5.45324 11.8089 5.39362 11.7492Q5.33399 11.6896 5.28714 11.6195Q5.2403 11.5494 5.20803 11.4715Q5.17576 11.3936 5.15931 11.3109Q5.14286 11.2282 5.14286 11.1439L5.14286 0.856143Q5.14286 0.77182 5.15931 0.689118Q5.17576 0.606415 5.20803 0.528511Q5.2403 0.450607 5.28714 0.380495Q5.33399 0.310384 5.39362 0.250758Q5.45324 0.191133 5.52335 0.144286Q5.59346 0.0974389 5.67137 0.06517Q5.74927 0.0329011 5.83197 0.0164506Q5.91468 1.12388e-08 5.999 1.02332e-08L6.001 1.02094e-08Q6.08532 9.20386e-09 6.16802 0.0164506Q6.25073 0.0329011 6.32863 0.06517Q6.40653 0.0974389 6.47665 0.144286Q6.54676 0.191133 6.60638 0.250758Q6.66601 0.310384 6.71286 0.380495Q6.7597 0.450607 6.79197 0.528511Q6.82424 0.606415 6.84069 0.689118Q6.85714 0.77182 6.85714 0.856143Z" id="Rectangle" fill="#C1C1C1" fill-rule="evenodd" stroke="none" />
  </g>
</svg>