<?xml version="1.0" encoding="utf-8"?>
<svg width="58px" height="55px" viewBox="0 0 58 55" version="1.1" xmlns:xlink="http://www.w3.org/1999/xlink" xmlns="http://www.w3.org/2000/svg">
  <defs>
    <filter id="filter_1">
      <feColorMatrix in="SourceGraphic" type="matrix" values="0 0 0 0 1 0 0 0 0 1 0 0 0 0 1 0 0 0 1 0" />
    </filter>
  </defs>
  <g id="Group-13" transform="translate(0.44995117 0.4500122)">
    <g id="Group-25">
      <path d="M28.5 54C44.2401 54 57 41.9117 57 27C57 12.0883 44.2401 0 28.5 0C12.7599 0 0 12.0883 0 27C0 41.9117 12.7599 54 28.5 54Z" id="Oval" fill="#82992F" fill-rule="evenodd" stroke="none" />
      <path d="M6.06582 0L0 10.3562L16.5 5.17808L6.06582 0Z" transform="translate(0 39.945206)" id="Path-2" fill="#82992F" fill-rule="evenodd" stroke="none" />
    </g>
    <g id="herbal-spa-treatment-leaves" transform="translate(15 14)" filter="url(#filter_1)">
      <path d="M26.2555 0.0737795C22.9693 2.06023 19.2003 2.30371 15.5078 2.7752C13.705 3.00708 11.9194 3.29303 10.2207 3.86505C9.85252 3.98868 9.48434 4.12784 9.12304 4.28243C8.04965 4.73847 7.01448 5.33749 6.03836 6.13749C5.1213 6.8872 4.37097 7.77612 3.73876 8.75389C2.73137 10.3152 2.02968 12.1123 1.45304 13.979C0.400503 17.3683 -0.0823456 20.9701 0.0114451 24.5528C0.0496561 26.0059 0.0704985 27.517 0.393555 28.9353C0.466504 29.2484 0.535978 29.6464 0.754823 29.8783C1.03967 30.1836 1.55031 29.8705 1.43567 29.4261C0.608926 26.2918 1.12304 22.6281 2.26589 19.633C3.57896 16.1895 6.11479 14.1412 9.21335 12.893C10.0366 12.5606 10.8773 12.2708 11.7318 11.9964C11.7492 11.9887 11.7665 11.9887 11.7839 11.9887C11.9541 11.9887 12.0271 12.2669 11.8499 12.3558C10.8425 12.8621 9.8421 13.3722 8.89026 13.9249C4.22852 16.6302 2.19291 22.9296 3.9402 22.9296C4.08265 22.9296 4.24936 22.8871 4.44041 22.7982C7.13603 21.5577 10.3388 21.5461 13.3019 20.9355C14.344 20.7229 15.3583 20.4331 16.3102 19.9925C20.0896 18.2379 22.7922 14.8061 24.4005 10.6786C25.5989 7.59842 26.0644 3.96174 26.971 0.761734C27.0891 0.352076 26.8286 0.000427573 26.509 0.000427573C26.4292 -0.00351442 26.3423 0.0197124 26.2555 0.0737795Z" id="Path" fill="#000000" stroke="none" />
    </g>
  </g>
</svg>