<?xml version="1.0" encoding="utf-8"?>
<svg width="41px" height="62px" viewBox="0 0 41 62" version="1.1" xmlns:xlink="http://www.w3.org/1999/xlink" xmlns="http://www.w3.org/2000/svg">
  <g id="ecology-(3)" transform="translate(0.8696289 0.8695679)">
    <path d="M21.2727 21.4089L21.2727 17.5781C29.0926 17.5781 35.4545 11.2697 35.4545 3.51563L35.4545 0L31.9091 0C26.5757 0 21.9212 2.93508 19.5 7.26129C17.0788 2.93508 12.4243 0 7.09091 0L3.54545 0L3.54545 3.51563C3.54545 11.2697 9.90742 17.5781 17.7273 17.5781L17.7273 21.4089C7.80272 22.3 0 30.5947 0 40.6641C0 51.3259 8.7477 60 19.5 60C30.2523 60 39 51.3259 39 40.6641C39 30.5947 31.1973 22.3 21.2727 21.4089ZM31.9091 3.51563C31.9091 9.33117 27.1376 14.0625 21.2727 14.0625C21.2727 8.24695 26.0442 3.51563 31.9091 3.51563ZM7.09091 3.51563C12.9558 3.51563 17.7273 8.24695 17.7273 14.0625C11.8624 14.0625 7.09091 9.33117 7.09091 3.51563ZM3.64449 42.4219L7.09091 42.4219L7.09091 45.9375L11.6748 45.9375L14.1818 48.4234L14.1818 51.939L17.7273 55.4547L17.7273 56.3862C10.3434 55.573 4.46455 49.7436 3.64449 42.4219ZM21.2727 56.3862L21.2727 53.9985L17.7273 50.4828L17.7273 46.9672L13.1434 42.4219L10.6364 42.4219L10.6364 38.9063L3.64449 38.9063C4.5292 31.0072 11.3018 24.8438 19.5 24.8438C20.6427 24.8438 21.7573 24.9645 22.8325 25.1919L21.7677 28.3594L17.7273 28.3594L17.7273 32.9047L13.4476 37.1484L18.7657 42.4219L25.8566 42.4219L29.4021 45.9375L34.5419 45.9375C32.5365 51.5453 27.4275 55.7084 21.2727 56.3862ZM35.3555 42.4219L30.8706 42.4219L27.3252 38.9063L20.2343 38.9063L18.4615 37.1484L21.2727 34.3609L21.2727 31.875L24.3232 31.875L26.1952 26.3061C31.6572 28.8206 35.4545 34.3104 35.4545 40.6641C35.4545 41.2582 35.4202 41.8445 35.3555 42.4219L35.3555 42.4219Z" id="Shape" fill="#82992F" stroke="#FFFFFF" stroke-width="1.7391304" />
  </g>
</svg>