<?xml version="1.0" encoding="utf-8"?>
<!-- Generator: Adobe Illustrator 25.2.3, SVG Export Plug-In . SVG Version: 6.00 Build 0)  -->
<svg version="1.1" id="Capa_1" xmlns="http://www.w3.org/2000/svg" xmlns:xlink="http://www.w3.org/1999/xlink" x="0px" y="0px"
	 viewBox="0 0 20 40" style="enable-background:new 0 0 20 40;" xml:space="preserve">
<style type="text/css">
	.st0{fill:#7B990F;}
	.st1{fill:#848484;}
</style>
<g>
	<path id="Shape" class="st0" d="M10,20C4.5,20,0,24.5,0,30s4.5,10,10,10s10-4.5,10-10S15.5,20,10,20z M10,38.2
		c-4.5,0-8.2-3.7-8.2-8.2s3.7-8.2,8.2-8.2s8.2,3.7,8.2,8.2S14.5,38.2,10,38.2L10,38.2z"/>
	<path id="Path" class="st0" d="M10,27.3c-0.5,0-0.9,0.4-0.9,0.9v6.4c0,0.5,0.4,0.9,0.9,0.9s0.9-0.4,0.9-0.9v-6.4
		C10.9,27.7,10.5,27.3,10,27.3z"/>
	<path id="Oval" class="st0" d="M10,26.4c0.5,0,0.9-0.4,0.9-0.9s-0.4-0.9-0.9-0.9c-0.5-0.1-0.9,0.4-0.9,0.9S9.5,26.4,10,26.4z"/>
</g>
<g>
	<path id="Shape_1_" class="st1" d="M10,0C4.5,0,0,4.5,0,10s4.5,10,10,10s10-4.5,10-10S15.5,0,10,0z M10,18.2
		c-4.5,0-8.2-3.7-8.2-8.2S5.5,1.8,10,1.8s8.2,3.7,8.2,8.2S14.5,18.2,10,18.2L10,18.2z"/>
	<path id="Path_1_" class="st1" d="M10,7.3c-0.5,0-0.9,0.4-0.9,0.9v6.4c0,0.5,0.4,0.9,0.9,0.9s0.9-0.4,0.9-0.9V8.2
		C10.9,7.7,10.5,7.3,10,7.3z"/>
	<path id="Oval_1_" class="st1" d="M10,6.4c0.5,0,0.9-0.4,0.9-0.9S10.5,4.6,10,4.6C9.5,4.5,9.1,5,9.1,5.5S9.5,6.4,10,6.4z"/>
</g>
</svg>
