<?xml version="1.0" encoding="utf-8"?>
<svg width="15px" height="18px" viewBox="0 0 15 18" version="1.1" xmlns:xlink="http://www.w3.org/1999/xlink" xmlns="http://www.w3.org/2000/svg">
  <defs>
    <path d="M0 0L15 0L15 18L0 18L0 0Z" id="path_1" />
    <clipPath id="mask_1">
      <use xlink:href="#path_1" />
    </clipPath>
  </defs>
  <g id="IconCalendar">
    <path d="M0 0L15 0L15 18L0 18L0 0Z" id="Clip-2" fill="none" fill-rule="evenodd" stroke="none" />
    <g clip-path="url(#mask_1)">
      <path d="M3.2219 3.25439C2.16777 3.25439 1.31012 4.17814 1.31012 5.31361L1.31012 7.37279L13.6898 7.37279L13.6898 5.31361C13.6898 4.17814 12.8322 3.25439 11.778 3.25439L11.5775 3.25439L11.5775 4.39198C11.5775 4.78109 11.2836 5.09761 10.9224 5.09761C10.5612 5.09761 10.2674 4.78109 10.2674 4.39198L10.2674 3.25439L4.73261 3.25439L4.73261 4.39198C4.73261 4.78109 4.4387 5.09761 4.0775 5.09761C3.7163 5.09761 3.42243 4.78109 3.42243 4.39198L3.42243 3.25439L3.2219 3.25439ZM1.31012 14.5296C1.31012 15.6651 2.16777 16.5888 3.2219 16.5888L11.778 16.5888C12.8322 16.5888 13.6898 15.6651 13.6898 14.5296L13.6898 8.784L1.31012 8.784L1.31012 14.5296ZM3.22191 18C1.44533 18 0 16.4432 0 14.5296L0 5.31361C0 3.40002 1.44533 1.84317 3.22191 1.84317L3.42245 1.84317L3.42245 0.705587C3.42245 0.316527 3.71631 0 4.07751 0C4.43872 0 4.73262 0.316527 4.73262 0.705587L4.73262 1.84317L10.2674 1.84317L10.2674 0.705587C10.2674 0.316527 10.5612 0 10.9224 0C11.2837 0 11.5775 0.316527 11.5775 0.705587L11.5775 1.84317L11.778 1.84317C13.5546 1.84317 15 3.40002 15 5.31361L15 14.5296C15 16.4432 13.5546 18 11.778 18L3.22191 18Z" id="Fill-1" fill="#607418" fill-rule="evenodd" stroke="none" />
    </g>
  </g>
</svg>