<?xml version="1.0" encoding="utf-8"?>
<svg width="17px" height="19px" viewBox="0 0 17 19" version="1.1" xmlns:xlink="http://www.w3.org/1999/xlink" xmlns="http://www.w3.org/2000/svg">
  <defs>
    <filter id="filter_1">
      <feColorMatrix in="SourceGraphic" type="matrix" values="0 0 0 0 0.64705884 0 0 0 0 0.64705884 0 0 0 0 0.64705884 0 0 0 1 0" />
    </filter>
  </defs>
  <g id="lock-2" filter="url(#filter_1)">
    <g id="lock">
      <path d="M14.6676 5.7L13.7184 5.7L13.7184 5.06667C13.7184 2.27303 11.3739 0 8.49235 0C5.61083 0 3.26629 2.27303 3.26629 5.06667L3.26629 5.7L2.3171 5.7C1.03933 5.7 0 6.70763 0 7.94643L0 16.7536C0 17.9924 1.03933 19 2.3171 19L14.6676 19C15.9454 19 16.9847 17.9924 16.9847 16.7536L16.9847 7.94643C16.9847 6.70763 15.9454 5.7 14.6676 5.7ZM4.5728 5.06667C4.5728 2.97097 6.33072 1.26667 8.49235 1.26667C10.654 1.26667 12.4119 2.97097 12.4119 5.06667L12.4119 5.7L4.5728 5.7L4.5728 5.06667ZM15.6782 16.7536C15.6782 17.2938 15.2248 17.7333 14.6676 17.7333L2.3171 17.7333C1.75988 17.7333 1.30652 17.2938 1.30652 16.7536L1.30652 7.94643C1.30652 7.4062 1.75988 6.96667 2.3171 6.96667L3.91955 6.96667L13.0652 6.96667L14.6676 6.96667C15.2248 6.96667 15.6782 7.4062 15.6782 7.94643L15.6782 16.7536Z" id="Shape" fill="#8C8C8C" stroke="none" />
      <path d="M1.95977 0C0.879285 0 0 0.852467 0 1.9C0 2.7246 0.548083 3.42127 1.30652 3.68347L1.30652 5.7C1.30652 6.0496 1.59917 6.33333 1.95977 6.33333C2.32037 6.33333 2.61303 6.0496 2.61303 5.7L2.61303 3.68347C3.37146 3.42127 3.91955 2.7246 3.91955 1.9C3.91955 0.852467 3.04026 0 1.95977 0ZM1.95977 2.53333C1.59983 2.53333 1.30652 2.24897 1.30652 1.9C1.30652 1.55103 1.59983 1.26667 1.95977 1.26667C2.31972 1.26667 2.61303 1.55103 2.61303 1.9C2.61303 2.24897 2.31972 2.53333 1.95977 2.53333Z" transform="translate(6.5325756 9.5)" id="Shape" fill="#8C8C8C" stroke="none" />
    </g>
  </g>
</svg>