<?xml version="1.0" encoding="utf-8"?>
<svg width="65px" height="53px" viewBox="0 0 65 53" version="1.1" xmlns:xlink="http://www.w3.org/1999/xlink" xmlns="http://www.w3.org/2000/svg">
  <g id="right-quotation-sign" transform="matrix(1 2.1456883E-07 2.1456883E-07 -1 0 53)" opacity="0.15590051">
    <path d="M29.6337 21.352C26.1675 8.98063 17.6167 0 9.30493 0C8.63732 0 7.97037 0.0579948 7.32059 0.172666C6.95212 0.237251 6.62987 0.453414 6.43044 0.767113C6.23168 1.08279 6.17555 1.46635 6.27658 1.82486L7.98754 7.93277C8.15262 8.5226 8.7225 8.92131 9.31483 8.89429L9.45086 8.89166C12.5334 8.89166 18.1668 13.5022 21.0386 23.7495C21.1522 24.1562 21.2598 24.572 21.3635 25.0056C18.1397 23.4134 14.2938 23.045 10.8112 24.0131C2.95438 26.2071 -1.64822 34.3698 0.548087 42.2097C2.32838 48.5621 8.18366 53 14.7871 53C16.1322 53 17.4754 52.8148 18.7796 52.4504C23.9606 51.0051 27.856 46.7122 29.7486 40.365C31.4569 34.6387 31.4139 27.709 29.6337 21.352Z" id="Path" fill="#6C6F63" fill-rule="evenodd" stroke="none" />
    <path d="M9.30251 0C8.63624 0 7.96865 0.0566781 7.31955 0.171353C6.95174 0.234621 6.62884 0.452107 6.43008 0.765814C6.23133 1.0815 6.1752 1.46506 6.27557 1.82359L7.98714 7.93165C8.15222 8.52149 8.71152 8.92022 9.3144 8.8932L9.44911 8.89056C12.5315 8.89056 18.1654 13.5013 21.0372 23.7488C21.1514 24.1581 21.2591 24.5739 21.3621 25.0049C18.137 23.4127 14.2926 23.0443 10.81 24.0124C2.95478 26.2064 -1.64903 34.3694 0.548541 42.2094C2.32879 48.562 8.18392 53 14.7872 53C16.1323 53 17.4754 52.8148 18.7802 52.4504C23.9605 51.0051 27.8558 46.712 29.7489 40.3647C31.4565 34.6383 31.4143 27.7077 29.6334 21.3499C26.1653 8.97953 17.616 0 9.30251 0Z" transform="translate(34 0)" id="Path" fill="#6C6F63" fill-rule="evenodd" stroke="none" />
  </g>
</svg>