<?xml version="1.0" encoding="utf-8"?>
<svg width="59px" height="42px" viewBox="0 0 59 42" version="1.1" xmlns:xlink="http://www.w3.org/1999/xlink" xmlns="http://www.w3.org/2000/svg">
  <g id="Group-5" transform="translate(0.25 0.25)">
    <g id="co2" transform="translate(0 1.2416382)">
      <path d="M48.7934 21.7631C47.1275 19.9758 44.9547 18.8634 42.591 18.5672C43.9686 12.9212 42.064 7.02582 37.5813 3.30462C35.0143 1.17389 31.7505 0 28.3925 0C25.1353 0 21.9522 1.11241 19.4289 3.13234C15.8086 6.02988 13.7392 10.4397 13.7762 15.0907C11.505 14.7447 9.32627 15.0766 7.2207 16.0751C2.90214 18.1236 0.0686246 22.4517 0.00134726 27.1004C-0.0465639 30.4304 1.1848 33.5701 3.4686 35.9397C5.75149 38.3095 8.79935 39.6141 12.0505 39.6141L41.0023 39.6141C46.7256 39.6141 51.4982 34.9975 51.6403 29.3232C51.7118 26.4927 50.7006 23.8079 48.7934 21.7631ZM49.9996 29.2802C49.8794 34.0524 45.8439 37.9352 41.0024 37.9352L12.0506 37.9352C9.24235 37.9352 6.60976 36.8077 4.63783 34.7612C2.66511 32.7138 1.60178 30.0024 1.64384 27.1254C1.70103 23.1171 4.16124 19.3774 7.91183 17.5983C9.27775 16.9505 10.631 16.6359 12.0506 16.6359C12.8038 16.6359 13.5846 16.7291 14.3723 16.914C14.6731 16.9844 15.0161 16.8765 15.2238 16.6462C15.3768 16.4751 15.4701 16.1931 15.4532 15.9619C15.1288 11.516 16.9932 7.2145 20.441 4.45448C22.6769 2.66501 25.5003 1.67939 28.3926 1.67939C31.3749 1.67939 34.2713 2.71958 36.5467 4.60881C40.7688 8.11377 42.4163 13.7903 40.7436 19.071C40.6637 19.3234 40.7049 19.5997 40.8553 19.8164C41.0058 20.0326 41.247 20.1632 41.5067 20.1693C43.8325 20.2213 45.9986 21.1988 47.6058 22.922C49.2086 24.6413 50.0584 26.8992 49.9996 29.2802Z" id="Shape" fill="#82992F" stroke="none" />
      <path d="M4.36986 0C1.96048 0 0 1.94305 0 4.33101L0 7.79575C0 10.1837 1.96048 12.1268 4.36986 12.1268C6.77924 12.1268 8.73973 10.1837 8.73973 7.79575L8.73973 4.33101C8.73962 1.94305 6.77924 0 4.36986 0ZM6.99176 7.79575C6.99176 9.22873 5.8157 10.3943 4.36986 10.3943C2.92403 10.3943 1.74797 9.22873 1.74797 7.79575L1.74797 4.33101L1.74797 4.33101C1.74797 2.89803 2.92403 1.73242 4.36986 1.73242C5.8157 1.73242 6.99176 2.89803 6.99176 4.33101L6.99176 7.79575Z" transform="translate(22.246569 20.211267)" id="Shape" fill="#82992F" stroke="none" />
      <path d="M5.15327 1.73242C5.93245 1.73242 6.69719 2.00903 7.30657 2.51149C7.67957 2.81814 8.23006 2.76607 8.5373 2.39943C8.84629 2.03146 8.7959 1.48546 8.42465 1.17921C7.50208 0.418717 6.34048 0 5.15327 0C2.31204 0 0 2.33132 0 5.19717L0 6.92959C0 9.79544 2.31204 12.1268 5.15327 12.1268C6.34048 12.1268 7.50198 11.708 8.42465 10.9481C8.7959 10.6418 8.84629 10.0958 8.5373 9.72784C8.23006 9.36069 7.67783 9.30831 7.30657 9.61578C6.69801 10.1178 5.93337 10.3944 5.15327 10.3944C3.27568 10.3944 1.74794 8.84006 1.74794 6.92969L1.74794 5.19727C1.74794 3.2867 3.27557 1.73242 5.15327 1.73242Z" transform="translate(12.712326 20.211267)" id="Path" fill="#82992F" stroke="none" />
      <path d="M6.35616 3.52796C6.35616 1.58241 4.93072 0 3.17777 0C1.42558 0 0.000129701 1.58241 0.000129701 3.52796C0.000129701 4.01515 0.35556 4.41003 0.794704 4.41003C1.23394 4.41003 1.58928 4.01505 1.58928 3.52796C1.58928 2.55545 2.30163 1.76414 3.17768 1.76414C4.05373 1.76414 4.76692 2.55534 4.76692 3.52796C4.76692 4.33684 4.40451 5.08763 3.7985 5.53637L0.353884 8.0853C0.0628911 8.30062 -0.0674738 8.70294 0.0342108 9.07467C0.135895 9.44681 0.444674 9.70141 0.794704 9.70141L5.56159 9.70141C6.00083 9.70141 6.35616 9.30643 6.35616 8.81934C6.35616 8.33225 6.00073 7.93727 5.56159 7.93727L3.41914 7.93727L4.68014 7.00434C5.72995 6.2272 6.35616 4.92772 6.35616 3.52796Z" transform="translate(32.575336 25.870422)" id="Path" fill="#82992F" stroke="none" />
    </g>
    <g id="next" transform="matrix(1.1924881E-08 1 -1 1.1924881E-08 58.104492 0)">
      <path d="M16.2389 5.51821L11.0022 0.212758C10.7087 -0.0744735 10.2421 -0.0703657 9.95354 0.22199C9.66497 0.514346 9.66092 0.987066 9.94442 1.28446L13.9041 5.29614L0.748095 5.29614C0.334933 5.29614 0 5.63547 0 6.05406C0 6.47265 0.334933 6.81198 0.748095 6.81198L13.9041 6.81198L9.94442 10.8237C9.74995 11.014 9.67196 11.2957 9.74042 11.5607C9.80888 11.8257 10.0131 12.0327 10.2747 12.102C10.5363 12.1714 10.8144 12.0924 11.0022 11.8954L16.2389 6.58991C16.5309 6.29394 16.5309 5.81418 16.2389 5.51821Z" id="Path" fill="#82992F" stroke="none" />
    </g>
  </g>
</svg>