<?xml version="1.0" encoding="utf-8"?>
<svg width="16px" height="16px" viewBox="0 0 16 16" version="1.1" xmlns:xlink="http://www.w3.org/1999/xlink" xmlns="http://www.w3.org/2000/svg">
  <defs>
    <filter id="filter_1">
      <feColorMatrix in="SourceGraphic" type="matrix" values="0 0 0 0 0.5294118 0 0 0 0 0.5294118 0 0 0 0 0.5294118 0 0 0 1 0" />
    </filter>
  </defs>
  <g id="Iconsclose" filter="url(#filter_1)">
    <g id="close-(1)">
      <path d="M0.166174 15.8324C0.27336 15.9397 0.418807 16 0.570476 16C0.722144 16 0.867592 15.9397 0.974778 15.8324L7.99792 8.8099L15.0239 15.8324C15.1684 15.9768 15.3789 16.0333 15.5762 15.9804C15.7735 15.9275 15.9276 15.7734 15.9805 15.5761C16.0334 15.3788 15.977 15.1683 15.8325 15.0239L8.80652 8.00136L15.8297 0.975985C16.053 0.752715 16.053 0.390723 15.8297 0.167453C15.6064 -0.0558175 15.2443 -0.0558175 15.0211 0.167453L7.99792 7.19283L0.971921 0.17031C0.745191 -0.0238393 0.407216 -0.0107859 0.196139 0.200272C-0.0149375 0.41133 -0.027992 0.749276 0.166174 0.975985L7.18931 8.00136L0.166174 15.0267C-0.0553913 15.2496 -0.0553913 15.6095 0.166174 15.8324Z" id="Path" fill="#000000" fill-rule="evenodd" stroke="none" />
    </g>
  </g>
</svg>