<?xml version="1.0" encoding="utf-8"?>
<svg width="131px" height="130px" viewBox="0 0 131 130" version="1.1" xmlns:xlink="http://www.w3.org/1999/xlink" xmlns="http://www.w3.org/2000/svg">
  <defs>
    <linearGradient x1="0.19407126" y1="1" x2="1.1865873" y2="-0.7483572" id="gradient_1">
      <stop offset="0" stop-color="#EFF2E1" />
      <stop offset="1" stop-color="#F8FCF6" />
    </linearGradient>
  </defs>
  <g id="Group-88">
    <path d="M64.5165 129.033C71.7443 129.033 78.6945 127.844 85.1823 125.652C110.678 117.037 129.033 92.9202 129.033 64.5165C129.033 28.885 100.148 0 64.5165 0C28.885 0 0 28.885 0 64.5165C0 100.148 28.885 129.033 64.5165 129.033Z" id="Oval-Copy" fill="url(#gradient_1)" fill-rule="evenodd" stroke="none" />
    <g id="Group-87" transform="translate(7.0164795 15.352051)">
      <path d="M0 21.4053C0 9.58346 9.58346 0 21.4053 0C33.2271 0 42.8105 9.58346 42.8105 21.4053C42.8105 33.2271 33.2271 42.8105 21.4053 42.8105C9.58346 42.8105 0 33.2271 0 21.4053Z" transform="translate(21.864746 6.0948486)" id="Circle" fill="#FFDE9E" fill-rule="evenodd" stroke="none" />
      <path d="M0 23.1239C0 16.7385 2.25759 11.2882 6.77286 6.77284C11.2879 2.25761 16.7383 0 23.1238 0C29.5094 0 34.9598 2.25761 39.4749 6.77284C43.9901 11.2882 46.2477 16.7385 46.2478 23.1239C46.2477 29.5093 43.9901 34.9596 39.4749 39.475C34.9598 43.9902 29.5094 46.2478 23.1238 46.2478C16.7383 46.2478 11.2879 43.9902 6.77286 39.475C2.25759 34.9596 0 29.5093 0 23.1239L0 23.1239ZM3.43726 23.1239C3.43726 28.5602 5.35928 33.2004 9.20332 37.0444C13.0475 40.8885 17.6877 42.8105 23.1238 42.8105C28.5603 42.8105 33.2005 40.8885 37.0445 37.0444C40.8887 33.2004 42.8107 28.5602 42.8105 23.1239C42.8104 17.6876 40.8884 13.0474 37.0445 9.20335C33.2005 5.35928 28.5603 3.43726 23.1238 3.43726C17.6874 3.43726 13.0473 5.35928 9.20332 9.20335C5.35928 13.0475 3.43726 17.6877 3.43726 23.1239L3.43726 23.1239Z" transform="translate(20.146118 4.3762207)" id="Vector-2" fill="#82992F" fill-rule="evenodd" stroke="none" />
      <path d="M20.1461 0L62.9567 0C74.0824 0 83.1028 9.02043 83.1028 20.1461L83.1028 37.774L0 37.774L0 20.1461C0 9.02043 9.02043 0 20.1461 0L20.1461 0Z" transform="translate(1.7186279 57.117676)" id="Shape" fill="#FFDE9E" fill-rule="evenodd" stroke="none" />
      <path d="M21.8648 0L64.6753 0C70.7128 0 75.8663 2.13478 80.1357 6.40431C84.4051 10.674 86.54 15.8275 86.5401 21.8648L86.5401 41.2112L0 41.2112L0 21.8648C0.000104897 15.8275 2.13486 10.674 6.40436 6.40431C10.6738 2.13478 15.8272 0 21.8648 0L21.8648 0ZM83.1028 21.8648L83.1028 37.774L3.43726 37.774L3.43726 21.8648C3.43736 16.7766 5.23655 12.4333 8.83482 8.83482C12.4331 5.23644 16.7764 3.43726 21.8648 3.43726L64.6753 3.43726C69.7634 3.43726 74.1068 5.23644 77.7053 8.83482C81.3037 12.4333 83.1029 16.7766 83.1028 21.8648L83.1028 21.8648Z" transform="translate(0 57.117676)" id="Vector" fill="#82992F" fill-rule="evenodd" stroke="none" />
      <g id="Group-85" transform="translate(82.01074 0)">
        <path d="M0 2.72634L2.72635 0L8.17904 5.45269L5.4527 8.17904L0 2.72634Z" transform="translate(0.6738281 0)" id="Shape" fill="#82992F" fill-rule="evenodd" stroke="none" />
        <path d="M0 2.72634L2.72634 0L8.17904 5.4527L5.4527 8.17905L0 2.72634Z" transform="translate(16.35852 15.69458)" id="Shape" fill="#82992F" fill-rule="evenodd" stroke="none" />
        <path d="M0 5.4527L5.4527 0L8.17905 2.72635L2.72635 8.17905L0 5.4527Z" transform="translate(0 15.691284)" id="Shape" fill="#82992F" fill-rule="evenodd" stroke="none" />
        <path d="M0 5.45269L5.45269 0L8.17904 2.72635L2.72634 8.17904L0 5.45269Z" transform="translate(15.676636 0.017456055)" id="Shape" fill="#82992F" fill-rule="evenodd" stroke="none" />
      </g>
      <g id="Group-86" transform="translate(91.11493 32.514404)">
        <path d="M0 0L29.607 0L29.607 2.63173L0 2.63173L0 0Z" transform="translate(0 11.952515)" id="Shape" fill="#82992F" fill-rule="evenodd" stroke="none" />
        <path d="M14.4745 13.2683C14.4745 13.5768 14.3566 13.8856 14.1211 14.1211L2.05901 26.1832C1.58769 26.6545 0.824465 26.6545 0.353462 26.1832C-0.11758 25.7118 -0.117861 24.9486 0.353462 24.4776L11.5627 13.2683L0.353503 2.05901C-0.117821 1.58765 -0.117821 0.824425 0.353503 0.353382C0.824826 -0.11758 1.58805 -0.117901 2.05905 0.353382L14.1211 12.4155C14.3566 12.651 14.4745 12.9598 14.4745 13.2683Z" transform="translate(17.410583 0)" id="Down_Arrow_9_" fill="#82992F" fill-rule="evenodd" stroke="none" />
      </g>
    </g>
  </g>
</svg>