<?xml version="1.0" encoding="utf-8"?>
<svg width="19px" height="11px" viewBox="0 0 19 11" version="1.1" xmlns:xlink="http://www.w3.org/1999/xlink" xmlns="http://www.w3.org/2000/svg">
  <defs>
    <filter id="filter_1">
      <feColorMatrix in="SourceGraphic" type="matrix" values="0 0 0 0 1 0 0 0 0 1 0 0 0 0 1 0 0 0 1 0" />
    </filter>
  </defs>
  <g id="Iconsarrowlarge">
    <g id="right-arrow-(2)" transform="translate(-0.019189835 -0.20635605)" filter="url(#filter_1)">
      <path d="M18.8298 4.94822L13.6369 0.167129C13.4504 -0.0334187 13.1225 -0.0567974 12.9047 0.114989C12.6869 0.286734 12.6615 0.588562 12.8481 0.789109C12.8655 0.807804 12.8844 0.825266 12.9047 0.841249L17.2096 4.80955L0.519275 4.80955C0.232505 4.80955 -3.50338e-14 5.02362 -3.50338e-14 5.28768C-3.50338e-14 5.55175 0.232505 5.76578 0.519275 5.76578L17.2096 5.76578L12.9047 9.72927C12.6869 9.90102 12.6615 10.2028 12.8481 10.4034C13.0347 10.6039 13.3624 10.6273 13.5803 10.4555C13.6006 10.4395 13.6195 10.4221 13.6369 10.4034L18.8298 5.6223C19.0311 5.43589 19.0311 5.13472 18.8298 4.94822Z" id="Path" fill="#839A20" fill-rule="evenodd" stroke="none" />
    </g>
  </g>
</svg>