<?xml version="1.0" encoding="utf-8"?>
<svg width="12px" height="2px" viewBox="0 0 12 2" version="1.1" xmlns:xlink="http://www.w3.org/1999/xlink" xmlns="http://www.w3.org/2000/svg">
  <path d="M0.999023 0L11.001 0Q11.0994 0 11.1959 0.019196Q11.2924 0.0383919 11.3833 0.0760461Q11.4742 0.1137 11.556 0.168366Q11.6378 0.223031 11.7074 0.292607Q11.777 0.362183 11.8316 0.443996Q11.8863 0.525808 11.924 0.616714Q11.9616 0.707619 11.9808 0.804124Q12 0.900628 12 0.999023L12 1.00098Q12 1.09937 11.9808 1.19588Q11.9616 1.29238 11.924 1.38329Q11.8863 1.47419 11.8316 1.556Q11.777 1.63782 11.7074 1.70739Q11.6378 1.77697 11.556 1.83163Q11.4742 1.8863 11.3833 1.92395Q11.2924 1.96161 11.1959 1.9808Q11.0994 2 11.001 2L0.999023 2Q0.900628 2 0.804124 1.9808Q0.707619 1.96161 0.616714 1.92395Q0.525808 1.8863 0.443996 1.83163Q0.362183 1.77697 0.292607 1.70739Q0.223031 1.63782 0.168366 1.556Q0.1137 1.47419 0.0760461 1.38329Q0.0383919 1.29238 0.019196 1.19588Q0 1.09937 0 1.00098L0 0.999023Q0 0.900628 0.019196 0.804124Q0.0383919 0.707619 0.0760461 0.616714Q0.1137 0.525808 0.168366 0.443996Q0.223031 0.362183 0.292607 0.292607Q0.362183 0.223031 0.443996 0.168366Q0.525808 0.1137 0.616714 0.0760461Q0.707619 0.0383919 0.804124 0.019196Q0.900628 0 0.999023 0Z" id="Rectangle" fill="#707070" fill-rule="evenodd" stroke="none" />
</svg>