<?xml version="1.0" encoding="utf-8"?>
<!-- Generator: Adobe Illustrator 25.2.3, SVG Export Plug-In . SVG Version: 6.00 Build 0)  -->
<svg version="1.1" id="Capa_1" xmlns="http://www.w3.org/2000/svg" xmlns:xlink="http://www.w3.org/1999/xlink" x="0px" y="0px"
	 viewBox="0 0 27 38" style="enable-background:new 0 0 27 38;" xml:space="preserve">
<style type="text/css">
	.st0{fill:#848484;}
	.st1{fill:#7B990F;}
</style>
<g id="Detail-product">
	<g id="B2B:Product-Details-Selection-op3-tool-tip" transform="translate(-347.000000, -998.000000)">
		<g id="express-delivery" transform="translate(109.000000, 964.000000)">
			<g transform="translate(238.000000, 34.000000)">
				<path id="Shape" class="st0" d="M26.8,9.3l-4.5-4.8c-0.1-0.2-0.4-0.2-0.6-0.2h-2.9V0.8C18.8,0.4,18.4,0,18,0H3.3
					C2.9,0,2.5,0.4,2.5,0.8v2.4H1.9C1.5,3.2,1.1,3.6,1.1,4s0.4,0.8,0.8,0.8h0.6v1.6H0.8C0.4,6.4,0,6.8,0,7.2C0,7.6,0.4,8,0.8,8h1.7
					v7.4c0,0.4,0.4,0.8,0.8,0.8H5c0.2,0.5,0.4,1,0.8,1.4c0.6,0.6,1.4,1,2.3,1s1.7-0.3,2.3-1c0.4-0.4,0.7-0.9,0.8-1.4h7.6
					c0.2,0.5,0.4,1,0.8,1.4c0.6,0.6,1.4,1,2.3,1s1.7-0.3,2.3-1c0.4-0.4,0.7-0.9,0.8-1.4h1.2c0.4,0,0.8-0.4,0.8-0.8V9.9
					C27,9.6,26.9,9.4,26.8,9.3z M24.3,9.1h-5.6V5.9h2.6L24.3,9.1z M4.1,8.1h4.1C8.6,8.1,9,7.7,9,7.2S8.6,6.4,8.2,6.4H4.1V4.8h4.7
					c0.4,0,0.8-0.4,0.8-0.8S9.2,3.2,8.8,3.2H4.1V1.6h4.7h8.4v13h-5.9c-0.1-0.6-0.4-1.2-0.9-1.7c-0.6-0.6-1.4-1-2.3-1s-1.7,0.3-2.3,1
					C5.3,13.4,5,14,4.9,14.6H4.1V8.1z M9.3,16.5C9,16.8,8.6,17,8.1,17s-0.9-0.2-1.2-0.5c-0.3-0.3-0.5-0.8-0.5-1.2
					c0-0.5,0.2-0.9,0.5-1.2s0.7-0.5,1.2-0.5s0.9,0.2,1.2,0.5C10,14.7,10,15.8,9.3,16.5z M23.1,16.5c-0.3,0.3-0.7,0.5-1.2,0.5
					s-0.9-0.2-1.2-0.5c-0.7-0.7-0.7-1.8,0-2.4c0.3-0.3,0.7-0.5,1.2-0.5s0.9,0.2,1.2,0.5c0.3,0.3,0.5,0.8,0.5,1.2
					C23.6,15.8,23.4,16.2,23.1,16.5L23.1,16.5z M25.1,14.7c-0.1-0.6-0.4-1.2-0.9-1.7c-0.6-0.6-1.4-1-2.3-1s-1.7,0.3-2.3,1
					c-0.4,0.4-0.7,0.9-0.8,1.5v-3.8h6.7v4H25.1z"/>
			</g>
		</g>
	</g>
</g>
<g id="Detail-product_1_">
	<g id="B2B:Product-Details-Selection-op3-tool-tip_1_" transform="translate(-347.000000, -998.000000)">
		<g id="express-delivery_1_" transform="translate(109.000000, 964.000000)">
			<g transform="translate(238.000000, 34.000000)">
				<path id="Shape_1_" class="st1" d="M26.8,28.7l-4.5-4.8c-0.1-0.2-0.4-0.2-0.6-0.2h-2.9v-3.5c0-0.4-0.4-0.8-0.8-0.8H3.3
					c-0.4,0-0.8,0.4-0.8,0.8v2.4H1.9c-0.4,0-0.8,0.4-0.8,0.8s0.4,0.8,0.8,0.8h0.6v1.6H0.8c-0.4,0-0.8,0.4-0.8,0.8s0.4,0.8,0.8,0.8
					h1.7v7.4c0,0.4,0.4,0.8,0.8,0.8H5c0.2,0.5,0.4,1,0.8,1.4c0.6,0.6,1.4,1,2.3,1s1.7-0.3,2.3-1c0.4-0.4,0.7-0.9,0.8-1.4h7.6
					c0.2,0.5,0.4,1,0.8,1.4c0.6,0.6,1.4,1,2.3,1s1.7-0.3,2.3-1c0.4-0.4,0.7-0.9,0.8-1.4h1.2c0.4,0,0.8-0.4,0.8-0.8v-5.6
					C27,29,26.9,28.8,26.8,28.7z M24.3,28.4h-5.6v-3.2h2.6L24.3,28.4z M4.1,27.4h4.1C8.6,27.4,9,27,9,26.6s-0.4-0.8-0.8-0.8H4.1
					v-1.6h4.7c0.4,0,0.8-0.4,0.8-0.8s-0.4-0.8-0.8-0.8H4.1V21h4.7h8.4v13h-5.9c-0.1-0.6-0.4-1.2-0.9-1.7c-0.6-0.6-1.4-1-2.3-1
					s-1.7,0.3-2.3,1C5.3,32.8,5,33.4,4.9,34H4.1V27.4z M9.3,35.9c-0.3,0.3-0.7,0.5-1.2,0.5s-0.9-0.2-1.2-0.5
					c-0.3-0.3-0.5-0.8-0.5-1.2c0-0.5,0.2-0.9,0.5-1.2C7.2,33.1,7.7,33,8.1,33c0.5,0,0.9,0.2,1.2,0.5C10,34.1,10,35.2,9.3,35.9z
					 M23.1,35.9c-0.3,0.3-0.7,0.5-1.2,0.5s-0.9-0.2-1.2-0.5c-0.7-0.7-0.7-1.8,0-2.4c0.3-0.3,0.7-0.5,1.2-0.5s0.9,0.2,1.2,0.5
					c0.3,0.3,0.5,0.8,0.5,1.2C23.6,35.1,23.4,35.6,23.1,35.9L23.1,35.9z M25.1,34c-0.1-0.6-0.4-1.2-0.9-1.7c-0.6-0.6-1.4-1-2.3-1
					s-1.7,0.3-2.3,1c-0.4,0.4-0.7,0.9-0.8,1.5V30h6.7v4H25.1z"/>
			</g>
		</g>
	</g>
</g>
</svg>
