<?xml version="1.0" encoding="utf-8"?>
<!-- Generator: Adobe Illustrator 26.5.0, SVG Export Plug-In . SVG Version: 6.00 Build 0)  -->
<svg version="1.1" id="Capa_1" xmlns="http://www.w3.org/2000/svg" xmlns:xlink="http://www.w3.org/1999/xlink" x="0px" y="0px"
	 viewBox="0 0 82.9 78.3" style="enable-background:new 0 0 82.9 78.3;" xml:space="preserve">
<style type="text/css">
	.st0{fill-rule:evenodd;clip-rule:evenodd;fill:url(#Oval_00000019658020939115619400000012104545780365847733_);}
	.st1{fill:none;}
	.st2{fill:#82992F;}
	.st3{fill-rule:evenodd;clip-rule:evenodd;fill:#FFFFFF;}
</style>
<g id="Group-2">
	
		<linearGradient id="Oval_00000039122700849088963140000004997394789217718410_" gradientUnits="userSpaceOnUse" x1="-632.6028" y1="418.5972" x2="-631.6102" y2="420.3455" gradientTransform="matrix(78.3 0 0 -78.3 49549.3008 32855.2031)">
		<stop  offset="0" style="stop-color:#EEF1DF"/>
		<stop  offset="1" style="stop-color:#F3F8ED"/>
	</linearGradient>
	
		<path id="Oval" style="fill-rule:evenodd;clip-rule:evenodd;fill:url(#Oval_00000039122700849088963140000004997394789217718410_);" d="
		M0,39.2C0,17.5,17.5,0,39.2,0s39.2,17.5,39.2,39.2S60.8,78.3,39.2,78.3S0,60.8,0,39.2z"/>
	<g id="Iconsuser_00000072257114959023862090000012532590819811678373_" transform="translate(20.655436 16.100574)">
		<path id="Iconsuser" class="st1" d="M38.1,0L38.1,0v39.4H0V0H38.1z"/>
		<g id="user-_x28_1_x29_">
			<g id="Iconslogin_00000026159525550160573730000007331361126092727728_" transform="translate(7.9391303 0)">
				<path id="Iconslogin" class="st1" d="M22.2,0L22.2,0v22.1H0V0H22.2z"/>
				<path id="Shape" class="st2" d="M22.2,11c0-6.1-5-11-11.1-11C5,0,0,4.9,0,11c0,6.1,5,11,11.1,11C17.3,22.1,22.2,17.1,22.2,11z
					 M2.9,11c0-4.5,3.7-8.2,8.2-8.2c4.5,0,8.2,3.6,8.2,8.2c0,4.5-3.7,8.2-8.2,8.2C6.6,19.2,2.9,15.6,2.9,11z"/>
			</g>
			<path id="Path" class="st2" d="M0.8,39.3c0.2,0.1,0.5,0.2,0.7,0.2c0.5,0,1-0.2,1.2-0.7c3.3-5.7,9.6-9.2,16.4-9.2s13,3.5,16.4,9.2
				c0.4,0.6,1.3,0.9,1.9,0.5c0.7-0.4,0.9-1.2,0.5-1.9c-3.9-6.5-11.1-10.6-18.9-10.6S4,30.9,0.2,37.4C-0.2,38,0,38.9,0.8,39.3
				L0.8,39.3z"/>
		</g>
	</g>
	<g id="check" transform="translate(45.916306 41.24138)">
	</g>
	<path id="Oval_00000101812508639822281790000010058889614746795664_" class="st3" d="M48.6,59.2c0-9.4,7.7-17,17.1-17
		s17.1,7.6,17.1,17s-7.7,17-17.1,17S48.6,68.6,48.6,59.2z"/>
	<path id="Shape_00000085240153840820216720000003086354075340686215_" class="st2" d="M64.4,41.2c-10.2,0-18.5,8.2-18.5,18.4
		S54.2,78,64.4,78c10.2,0,18.5-8.2,18.5-18.4S74.6,41.2,64.4,41.2z M64.4,75.7c-8.9,0-16.2-7.2-16.2-16.1s7.3-16.1,16.2-16.1
		s16.2,7.2,16.2,16.1S73.3,75.7,64.4,75.7z M73.2,53.7c0.5,0.4,0.5,1.2,0,1.6L62.8,65.6c-0.2,0.2-0.5,0.3-0.8,0.3
		c-0.3,0-0.6-0.1-0.8-0.3l-5.5-5.5c-0.5-0.4-0.5-1.2,0-1.6c0.5-0.4,1.2-0.4,1.6,0l4.7,4.6l9.5-9.5C72,53.2,72.7,53.2,73.2,53.7
		L73.2,53.7z"/>
</g>
</svg>
