<?xml version="1.0" encoding="utf-8"?>
<svg width="19px" height="13px" viewBox="0 0 19 13" version="1.1" xmlns:xlink="http://www.w3.org/1999/xlink" xmlns="http://www.w3.org/2000/svg">
  <defs>
    <filter id="filter_1">
      <feColorMatrix in="SourceGraphic" type="matrix" values="0 0 0 0 0.64705884 0 0 0 0 0.64705884 0 0 0 0 0.64705884 0 0 0 1 0" />
    </filter>
  </defs>
  <g id="email-2" filter="url(#filter_1)">
    <g id="email">
      <path d="M16.5549 13L2.42805 13C1.08908 12.9954 0.00484258 11.9655 0 10.6935L0 2.30645C0.00484258 1.03454 1.08908 0.00460007 2.42805 0L16.5549 0C17.8938 0.00460007 18.9781 1.03454 18.9829 2.30645L18.9829 10.6935C18.9781 11.9655 17.8938 12.9954 16.5549 13ZM2.42804 1.25806C1.81851 1.25806 1.32439 1.72744 1.32439 2.30645L1.32439 10.6935C1.32439 11.2726 1.81851 11.7419 2.42804 11.7419L16.5549 11.7419C17.1644 11.7419 17.6585 11.2726 17.6585 10.6935L17.6585 2.30645C17.6585 1.72744 17.1644 1.25806 16.5549 1.25806L2.42804 1.25806Z" id="Shape" fill="#8C8C8C" stroke="none" />
      <path d="M9.48096 5.86874C8.96858 5.86874 8.46556 5.73842 8.02413 5.49132L0.316191 1.13842C0.0174216 0.961538 -0.0866478 0.595398 0.077801 0.29971C0.261129 0.0115674 0.65287 -0.0851846 0.960726 0.0816456L8.6775 4.42616C9.15461 4.70259 9.75433 4.70259 10.2314 4.42616L17.9482 0.0816456C18.2561 -0.0851846 18.6478 0.0115674 18.8311 0.29971C18.9956 0.595398 18.8915 0.961538 18.5927 1.13842L10.9378 5.49132C10.4964 5.73842 9.99333 5.86874 9.48096 5.86874L9.48096 5.86874Z" transform="translate(0.010491502 1.7635157)" id="Path" fill="#8C8C8C" stroke="none" />
    </g>
  </g>
</svg>