<?xml version="1.0" encoding="utf-8"?>
<svg width="16px" height="15px" viewBox="0 0 16 15" version="1.1" xmlns:xlink="http://www.w3.org/1999/xlink" xmlns="http://www.w3.org/2000/svg">
  <g id="IconDownload">
    <path d="M15.2 13L0.8 13C0.358172 13 0 13.4477 0 14C0 14.5523 0.358172 15 0.8 15L15.2 15C15.6418 15 16 14.5523 16 14C16 13.4477 15.6418 13 15.2 13Z" id="Path" fill="#607418" fill-rule="evenodd" stroke="none" />
    <path d="M7.99999 2.84107e-15C7.54007 2.84107e-15 7.16723 0.358034 7.16723 0.799691L7.16723 9.26842L4.42743 6.62944C4.10089 6.31586 3.57145 6.31586 3.24491 6.62944C2.91836 6.94301 2.91836 7.45142 3.24491 7.765L7.40873 11.7635C7.56509 11.9148 7.77794 12 7.99999 12C8.22204 12 8.43489 11.9148 8.59125 11.7635L12.7551 7.765C12.9663 7.56215 13.0488 7.26649 12.9715 6.9894C12.8942 6.7123 12.6688 6.49586 12.3802 6.42162C12.0917 6.34737 11.7838 6.42659 11.5725 6.62944L8.83275 9.26842L8.83275 0.799691C8.83275 0.358034 8.45991 0 7.99999 0L7.99999 2.84107e-15Z" id="Path" fill="#607418" fill-rule="evenodd" stroke="none" />
  </g>
</svg>