<?xml version="1.0" encoding="utf-8"?>
<!-- Generator: Adobe Illustrator 26.2.1, SVG Export Plug-In . SVG Version: 6.00 Build 0)  -->
<svg version="1.1" xmlns="http://www.w3.org/2000/svg" xmlns:xlink="http://www.w3.org/1999/xlink" x="0px" y="0px"
	 viewBox="0 0 82.2 82.2" style="enable-background:new 0 0 82.2 82.2;" xml:space="preserve">
<style type="text/css">
	.st0{fill:#FFFFFF;}
	.st1{fill:#8E9093;}
	.st2{fill:#9D9D9C;}
</style>
<g id="Laag_1">
</g>
<g id="Layer_1">
	<g>
		<g>
			<g>
				<path class="st0" d="M126.1,38.3c0.4-1.9,0.6-3.8,1.1-5.7c3.3-11.3,10.5-19.2,21.7-22.6c10.1-3.1,19.7-0.9,28.2,5.4
					c1.5,1.1,2.8,2.4,4.3,3.7c1.8-1,3.7-2,5.8-3.1c-0.2,4.8-0.3,9.5-0.5,14.1c-0.1,1.2-1.2,1.6-2.4,0.8c-3.1-1.8-6.1-3.7-9.2-5.5
					c-0.8-0.5-1.5-0.9-2.5-1.5c1.9-1,3.6-1.9,5.5-2.8c-4.6-4.7-10-7.7-16.5-8.6c-14.2-2.1-27.5,6.9-31.2,20.3
					c-4.4,15.9,4.8,33.8,23.2,36.4c12,1.7,21.4-3,28.2-13c0.2-0.2,0.3-0.5,0.4-0.7c0.7-1.2,1.9-1.6,2.8-1.1c0.8,0.5,1,1.7,0.3,2.8
					c-5.1,8.3-12.5,13.3-22,15.2c-1,0.2-2.1,0.4-3.1,0.6c-1.6,0-3.2,0-4.8,0c-1.3-0.2-2.6-0.4-3.9-0.7c-12.4-2.9-20.2-10.8-24-22.7
					c-0.7-2.2-1-4.5-1.4-6.8C126.1,41.3,126.1,39.8,126.1,38.3z"/>
				<path class="st0" d="M160.2,34.2c0,3,0,6.1,0,9.1c0,2.7-2.2,4.2-4.7,2.9c-4-2-7.9-4.2-11.8-6.3c-1-0.5-1.4-1.4-0.8-2.5
					c0.6-1,1.5-1.1,2.5-0.6c3.3,1.7,6.6,3.4,9.9,5.1c1.4,0.7,1.8,0.5,1.8-1.1c0-5.3,0-10.6,0-15.9c0-1.4,0.6-2.2,1.6-2.1
					c1.1,0.1,1.5,0.8,1.5,1.8C160.2,27.9,160.2,31.1,160.2,34.2z"/>
			</g>
		</g>
	</g>
	<g>
		<g>
			<path class="st1" d="M311.8,108.4c4.4,0,7.9,1.4,10.5,4.2c2.4,2.7,3.6,6,3.6,10.1v8.7c0,3.9-1.4,7.3-4.1,10.1s-6.1,4.2-10,4.2
				h-5.2v22.6h-9v-60H311.8z M317.2,122.9c0-1.6-0.5-2.8-1.4-3.8c-0.9-1-2.2-1.4-3.8-1.4h-5.4v19.2h5.4c1.4,0,2.7-0.5,3.7-1.5
				c1-1,1.5-2.2,1.5-3.7V122.9z"/>
			<path class="st1" d="M347.4,108.4c5,0,8.7,1.4,11.1,4.2c2.1,2.4,3.1,5.8,3.1,10.1v8.7c0,4.3-1.6,7.8-4.8,10.7l6.7,26.2h-9.7
				l-5.5-22.6c-0.3,0-0.5,0-0.8,0h-5.2v22.6h-9v-60H347.4z M352.8,122.9c0-3.5-1.7-5.2-5.1-5.2h-5.4v19.2h5.4c1.4,0,2.7-0.5,3.7-1.5
				c1-1,1.5-2.2,1.5-3.7V122.9z"/>
			<path class="st1" d="M371.2,168.4v-60H397v9h-16.7v16.4h12.2v9h-12.2v16.4H397v9H371.2z"/>
			<path class="st1" d="M433.1,153.5c0.1,4.2-1,7.8-3.3,10.7c-1.5,2-3.5,3.4-6.2,4.2c-1.4,0.5-3.1,0.7-5,0.7c-3.6,0-6.5-0.9-8.8-2.6
				c-1.9-1.4-3.5-3.4-4.6-5.9c-1.1-2.5-1.8-5.3-2-8.5l8.6-0.6c0.4,3.5,1.3,6,2.8,7.6c1.1,1.2,2.3,1.7,3.7,1.7c2-0.1,3.6-1,4.7-2.9
				c0.6-0.9,0.9-2.3,0.9-4c0-2.5-1.1-5-3.4-7.5c-1.8-1.7-4.5-4.2-8.1-7.6c-3-2.9-5.1-5.5-6.3-7.8c-1.3-2.6-2-5.4-2-8.4
				c0-5.5,1.8-9.6,5.5-12.4c2.3-1.7,5.1-2.5,8.4-2.5c3.2,0,6,0.7,8.3,2.2c1.8,1.1,3.2,2.7,4.3,4.7c1.1,2,1.8,4.3,2,6.9l-8.7,1.6
				c-0.2-2.5-0.9-4.4-2.1-5.7c-0.8-1-2-1.5-3.6-1.5c-1.6,0-2.9,0.7-3.8,2.2c-0.7,1.2-1.1,2.7-1.1,4.4c0,2.7,1.2,5.5,3.5,8.4
				c0.9,1.1,2.2,2.3,4,3.8c2.1,1.8,3.5,3,4.2,3.7c2.2,2.2,3.9,4.4,5.2,6.6c0.6,1,1,2,1.4,2.8C432.6,149.9,433,151.8,433.1,153.5z"/>
			<path class="st1" d="M449.9,154.6l-2.2,13.8h-9.4l10.2-60h12.5l10,60h-9.5l-2.1-13.8H449.9z M454.6,122.2l-3.4,23.6h6.7
				L454.6,122.2z"/>
			<path class="st1" d="M503.2,168.4h-24.7v-60h9v51h15.6V168.4z"/>
			<path class="st1" d="M509.4,168.4v-60h25.7v9h-16.7v16.4h12.2v9h-12.2v16.4h16.7v9H509.4z"/>
		</g>
	</g>
	<g>
		<circle class="st2" cx="41.1" cy="41.1" r="41.1"/>
		<g>
			<path class="st0" d="M30.2,21.4v2.9c0,3.6-1.7,5.5-5.2,5.5h-1.7v8.4h-3.5V15.8h5.2C28.4,15.8,30.2,17.8,30.2,21.4z M23.3,19v7.6
				h1.7c1.1,0,1.7-0.5,1.7-2.1v-3.4c0-1.6-0.6-2.1-1.7-2.1H23.3z"/>
			<path class="st0" d="M39.1,38.2c-0.2-0.6-0.3-0.9-0.3-2.7v-3.5c0-2.1-0.7-2.8-2.3-2.8h-1.2v9.1h-3.5V15.8h5.3
				c3.6,0,5.2,1.7,5.2,5.1v1.8c0,2.3-0.7,3.8-2.3,4.5c1.8,0.7,2.3,2.4,2.3,4.8v3.5c0,1.1,0,1.9,0.4,2.7H39.1z M35.3,19v6.9h1.4
				c1.3,0,2.1-0.6,2.1-2.4v-2.2c0-1.6-0.5-2.3-1.8-2.3H35.3z"/>
			<path class="st0" d="M48.1,25.3H53v3.2h-4.8V35h6.1v3.2h-9.6V15.8h9.6V19h-6.1V25.3z"/>
			<path class="st0" d="M56.2,25.4h6.4v3.2h-6.4V25.4z"/>
			<path class="st0" d="M23.3,42.8c3.4,0,5.2,2,5.2,5.6v0.9h-3.3v-1.1c0-1.6-0.6-2.2-1.8-2.2c-1.1,0-1.8,0.6-1.8,2.2
				c0,4.6,6.9,5.5,6.9,11.9c0,3.6-1.8,5.6-5.2,5.6s-5.2-2-5.2-5.6v-1.5h3.3v1.8c0,1.6,0.7,2.2,1.8,2.2c1.1,0,1.8-0.6,1.8-2.2
				c0-4.6-6.9-5.5-6.9-11.9C18.2,44.9,19.9,42.8,23.3,42.8z"/>
			<path class="st0" d="M41.9,65.4h-3.5l-0.6-4.1h-4.3l-0.6,4.1h-3.2l3.6-22.4h5.1L41.9,65.4z M33.9,58.3h3.4L35.6,47L33.9,58.3z"/>
			<path class="st0" d="M43.6,43.1h3.5v19.2h5.8v3.2h-9.3V43.1z"/>
			<path class="st0" d="M58,52.5h4.8v3.2H58v6.5H64v3.2h-9.6V43.1H64v3.2H58V52.5z"/>
		</g>
	</g>
</g>
</svg>
