<?xml version="1.0" encoding="UTF-8"?>
<svg width="28px" height="31px" viewBox="0 0 28 31" version="1.1" xmlns="http://www.w3.org/2000/svg" xmlns:xlink="http://www.w3.org/1999/xlink">
    <title>Group 2</title>
    <defs>
        <filter color-interpolation-filters="auto" id="filter-1">
            <feColorMatrix in="SourceGraphic" type="matrix" values="0 0 0 0 0.576471 0 0 0 0 0.658824 0 0 0 0 0.184314 0 0 0 1.000000 0"></feColorMatrix>
        </filter>
    </defs>
    <g id="Page-1" stroke="none" stroke-width="1" fill="none" fill-rule="evenodd">
        <g id="B2B:-Samples-Cart-" transform="translate(-335.000000, -230.000000)">
            <g id="flower-bouquet-(3)" transform="translate(335.000000, 230.000000)" filter="url(#filter-1)">
                <g>
                    <path d="M27.9600058,8.19053311 C27.7963789,7.83112803 27.128806,7.86956837 26.8094665,7.83672377 L27.1511045,7.04717607 C27.5585702,6.10563086 26.5579646,5.12795659 25.5804741,5.50962301 L24.729928,5.84184006 C24.6783588,5.36437689 24.6388497,5.06190244 24.6379703,5.05539435 C24.5941899,4.72323812 24.1808826,4.5459381 23.8972835,4.74154594 C23.8825225,4.75176426 22.8002605,5.49934386 21.7018557,6.30653033 C21.4874133,5.89621612 20.7949666,6.10404945 20.4321607,6.14765978 L20.5771323,5.28512408 C20.7477943,4.27028675 19.5325579,3.54247473 18.6688212,4.13714447 L17.9361116,4.64155238 C17.846101,4.39558282 17.7721077,4.12637874 17.6505653,3.8916615 C17.903449,3.11391352 18.0650659,2.55774495 18.0670759,2.55087192 C18.1597874,2.231002 17.8564023,1.91368667 17.5184074,1.98077481 C17.495418,1.98539738 17.245989,2.03545498 16.8431714,2.12638587 L16.890595,1.25028656 C16.9464982,0.215985766 15.6411257,-0.392004282 14.8397619,0.297975621 L14.0899045,0.943554489 C13.8892808,0.540904017 13.7525377,0.280215207 13.7332542,0.243538737 C13.5770392,-0.0532791341 13.1291221,-0.0867319679 12.929001,0.187094682 C12.9245413,0.193177016 12.4779434,0.804877287 11.9160842,1.63840026 C11.5855012,2.12887963 12.3739884,2.62836085 12.7051367,2.13709078 C12.9054463,1.83984714 13.090618,1.57167706 13.245514,1.35028012 C13.7602008,2.38610151 14.7027047,4.37186172 15.1228585,5.82705999 C14.3082412,6.82480596 13.2987791,7.94760471 12.8379855,9.15409637 C11.3606319,9.14977791 10.1821409,7.85040902 10.3806917,6.42981923 C10.4202637,6.1469299 10.6167417,5.55086123 11.3281578,4.31827636 C11.6232516,3.80699541 10.8012224,3.36103873 10.5056889,3.8731712 C10.0459003,4.66989606 9.50269648,5.56351248 9.42675599,6.49514349 C7.40933923,6.2866411 6.29083434,6.71532396 6.24253141,6.73436166 C6.07394225,6.80084157 5.95673385,6.96269246 5.94951039,7.13877601 L5.37295306,21.2159718 C4.11644877,20.8291354 3.12206168,22.4080483 4.07857274,23.3033069 L0.229099369,25.4459305 C-0.274155599,25.7260828 0.134691953,26.4790757 0.656979153,26.2741011 C1.03442038,26.1263612 1.99941115,26.2527521 3.01930018,26.5789476 L1.99111988,27.4374081 C1.5339694,27.8189529 2.14519932,28.5134337 2.60636981,28.1283004 L4.00973007,26.9566605 C4.19421083,27.0393802 4.37442033,27.1281215 4.547532,27.2223977 L2.56189845,30.3069314 C2.24262174,30.8030065 3.03896054,31.2904447 3.36144069,30.7896254 L5.07170358,28.132923 C5.19337169,28.2419792 5.32779076,28.3346131 5.47502362,28.410764 L4.97629116,30.0652803 C4.80682263,30.6274095 5.71057106,30.8853613 5.88073054,30.3209208 L6.27406336,29.0161386 C6.8645651,29.5225537 7.38063385,30.1058495 7.74356536,30.6908483 C7.97584654,31.06552 8.61948779,30.9486176 8.63688689,30.483684 L8.79988572,26.1267869 C9.99276079,26.4907538 10.9821857,25.0866471 10.1947035,24.1477781 L22.9471793,18.0235374 C23.3832876,17.8158257 23.6381185,17.2024224 23.4182742,16.7158357 C23.2516322,16.3469422 23.021047,15.4430466 22.1702496,14.1489086 C22.4856319,14.0948974 22.7955496,13.9942957 23.0951031,13.846495 C24.6120915,13.0982463 27.5795496,9.09302974 27.9128963,8.63880108 C28.0089997,8.50784844 28.0269013,8.33754311 27.9600058,8.19053311 Z M25.9329159,6.35561476 C26.147798,6.27180021 26.3738607,6.48261388 26.2821543,6.69452238 L25.8285841,7.7426909 C25.5371334,7.71684098 25.2221279,7.69074777 24.8933037,7.66635761 C24.8719474,7.36011213 24.8478902,7.0644499 24.8233304,6.78898102 L25.9329159,6.35561476 Z M23.944393,7.60407452 C23.1380041,7.55851784 22.3076837,7.53205969 21.5794338,7.5492727 C22.3389644,6.97303243 23.2122487,6.34904584 23.7932029,5.93952233 C23.8403124,6.37623387 23.8977232,6.96311822 23.944393,7.60407452 Z M18.2397479,11.4749932 C17.1910279,12.7025297 15.4154398,13.2731134 14.1706187,11.878191 C13.292121,10.8851893 13.4088897,9.32890263 14.4397081,8.47816665 C15.1734855,7.87260954 18.2925734,7.32446965 20.5398844,7.0535017 C20.5006893,7.14248624 19.1436848,10.1772665 18.2397479,11.4749932 Z M21.0262428,14.1406366 C21.8731458,15.2774855 22.2119572,16.1981075 22.3443663,16.6924188 C20.8619877,16.4349536 19.2449388,15.9221521 17.7332267,15.237038 L19.5780971,13.5308827 C20.0101853,13.8304376 20.503139,14.0452048 21.0262428,14.1406366 Z M18.8776104,12.9170536 L16.8371414,14.8041583 C16.4782299,14.6194987 16.1283634,14.4256547 15.7916248,14.2234172 C15.594079,14.1048117 15.3367984,14.1433736 15.1855455,14.3142264 L14.761937,14.7929669 C14.500762,14.6700429 14.2253913,14.5243102 13.9392797,14.3579584 L14.6084229,13.3184876 C15.9267348,13.9096904 17.6121867,13.6242465 18.5764237,12.548525 C18.6705171,12.6776529 18.7712058,12.8005769 18.8776104,12.9170536 L18.8776104,12.9170536 Z M12.6339072,10.0628578 C12.5539467,11.10391 13.0021149,12.1425901 13.8167322,12.8235073 L13.1472122,13.8635863 C12.4724787,13.4153183 11.763261,12.8783091 11.0640306,12.2852816 L11.9290236,9.94796252 C12.0795855,9.98810592 12.5528789,10.0578703 12.6339072,10.0628578 L12.6339072,10.0628578 Z M15.7235359,6.56825314 C16.2217659,5.95180865 16.7103227,5.38335377 17.0615082,4.98295376 C17.2126983,5.39709984 17.410244,5.95564052 17.6104908,6.5697129 C16.8010869,6.71879089 15.9807537,6.90010525 15.2906311,7.11365598 C15.424108,6.94213417 15.5680118,6.76069817 15.7235359,6.56825314 L15.7235359,6.56825314 Z M19.2147259,4.88058809 C19.4085029,4.74744581 19.6861977,4.90595142 19.647191,5.1384182 L19.4563034,6.27405067 C19.1703802,6.31388996 18.8639801,6.35896005 18.5462109,6.40950424 C18.4477206,6.10465769 18.3492932,5.81179333 18.2557652,5.54070373 L19.2147259,4.88058809 Z M15.46569,0.97968355 C15.6531229,0.818380068 15.9629777,0.954624336 15.9495986,1.20235778 L15.8873513,2.35295279 C15.5799462,2.4293469 15.2419513,2.51656756 14.8838564,2.61431066 C14.7553417,2.32935333 14.6283973,2.05656068 14.5084252,1.8037789 L15.46569,0.97968355 Z M15.2539485,3.46151888 C15.8114108,3.31122442 16.3720765,3.17175651 16.935192,3.04293269 C16.8420408,3.34041962 16.7235761,3.70967808 16.5875239,4.1142749 C16.3970132,4.32746069 16.1355869,4.62391362 15.8371012,4.97279626 C15.6697055,4.48316842 15.4668834,3.96653502 15.2539485,3.46151888 L15.2539485,3.46151888 Z M9.48510894,7.41990146 C9.67442627,8.31351789 10.2581442,9.11182415 11.0623346,9.58563792 L10.309525,11.6197527 C9.08894955,10.4996302 7.52127138,9.08037849 6.99465011,7.47555481 C7.45299403,7.38164359 8.2978242,7.27909544 9.48510894,7.41990146 L9.48510894,7.41990146 Z M9.37587774,24.6471985 C9.76179867,24.8786921 9.38699558,25.4524995 9.00346153,25.2217966 L4.79369478,22.693553 C4.40789948,22.4618769 4.78251413,21.8885562 5.166111,22.118955 L9.37587774,24.6471985 Z M4.95807549,23.865862 L6.40509056,24.7349058 L5.45900639,26.6950594 C4.79985042,26.2750742 3.94817368,25.8986386 3.0372646,25.6314417 C2.83368879,25.5717132 2.52075616,25.4875945 2.16674405,25.4197157 L4.95807549,23.865862 Z M7.74381661,29.1535993 C7.24803634,28.6018709 6.66092649,28.0928404 6.02821464,27.6704832 L7.21141657,25.2191811 L7.87566036,25.6181214 L7.87069816,25.7623335 L7.74381661,29.1535993 Z M14.2064219,21.1362324 C14.2042235,21.1372664 14.2020879,21.1383004 14.1998894,21.1393952 L9.33467264,23.5488507 L8.629475,23.1253379 L10.999522,20.4470432 C11.3930432,20.0022421 10.6781725,19.4079373 10.2840231,19.8534074 L7.8192546,22.6387512 L6.29497998,21.7232992 L6.81161404,9.10817475 C7.5402408,10.1820107 8.56729047,11.2349235 9.12908683,11.7799613 C10.7921146,13.3931786 12.6226009,14.7535533 14.1299161,15.5071544 L12.0508173,17.856699 C11.6572961,18.3015001 12.3721669,18.8958049 12.7663163,18.4503348 L15.6411885,15.2015172 C17.5304675,16.2801582 19.7614472,17.1144719 21.7978334,17.5193728 L14.2064219,21.1362324 Z M22.6674118,13.0335911 C21.2962744,13.7097033 19.921117,12.8904738 19.1663602,11.7634174 C19.7852532,10.8258865 20.4285804,9.54354818 20.9171372,8.49531883 C22.8186018,8.33948945 24.7789847,8.5486609 26.6710902,8.74080181 C25.5782129,10.1674131 23.616825,12.5653122 22.6674118,13.0335911 Z" id="Shape" fill="#060606" fill-rule="nonzero"></path>
                </g>
            </g>
        </g>
    </g>
</svg>