<?xml version="1.0" encoding="UTF-8"?>
<svg width="22px" height="15px" viewBox="0 0 22 15" version="1.1" xmlns="http://www.w3.org/2000/svg" xmlns:xlink="http://www.w3.org/1999/xlink">
    <title>united-states (2)</title>
    <defs>
        <rect id="path-1" x="0" y="0" width="22" height="15" rx="2"></rect>
    </defs>
    <g id="Symbols" stroke="none" stroke-width="1" fill="none" fill-rule="evenodd">
        <g id="Header/logout" transform="translate(-978.000000, -72.000000)">
            <g id="Group-2" transform="translate(978.000000, 70.000000)">
                <g id="united-states-(2)" transform="translate(0.000000, 2.000000)">
                    <mask id="mask-2" fill="white">
                        <use xlink:href="#path-1"></use>
                    </mask>
                    <use id="Mask" fill="#D8D8D8" xlink:href="#path-1"></use>
                    <g mask="url(#mask-2)" fill-rule="nonzero">
                        <path d="M20.3523633,4.47160531e-05 L1.64763672,4.47160531e-05 C0.737644531,4.47160531e-05 0,0.767685199 0,1.71468177 L0,13.2853629 C0,14.2323148 0.737644531,15 1.64763672,15 L20.3523633,15 C21.2623125,15 22,14.2323595 22,13.2853629 L22,1.71468177 C22,0.767685199 21.2623555,4.47160531e-05 20.3523633,4.47160531e-05 Z" id="Path" fill="#F5F5F5"></path>
                        <g id="Group" transform="translate(0.000000, 0.000045)" fill="#B83545">
                            <path d="M0.0906210938,1.15385303 L21.9093359,1.15385303 C21.6860703,0.482352064 21.0735078,0 20.3523633,0 L1.64763672,0 C0.926449219,0 0.313929688,0.482352064 0.0906210938,1.15385303 Z" id="Path"></path>
                            <rect id="Rectangle" x="0" y="4.6153227" width="22" height="1.15380832"></rect>
                            <rect id="Rectangle" x="0" y="2.3075272" width="22" height="1.15380832"></rect>
                            <path d="M0,7.68212848 C0,7.90011924 0.169855469,8.0768818 0.379328125,8.0768818 L22,8.0768818 L22,6.92302877 L0,6.92302877 L0,7.68212848 Z" id="Path"></path>
                            <rect id="Rectangle" x="0" y="11.5387092" width="22" height="1.15385303"></rect>
                            <path d="M21.9093789,13.8460575 L0.0906210938,13.8460575 C0.313929688,14.5175585 0.926492188,14.9999106 1.64763672,14.9999106 L20.3523633,14.9999106 C21.0735508,14.9999106 21.6860703,14.5175585 21.9093789,13.8460575 Z" id="Path"></path>
                            <rect id="Rectangle" x="0" y="9.2309137" width="22" height="1.15380832"></rect>
                        </g>
                        <path d="M0.379328125,8.07692652 L9.86210156,8.07692652 C10.0715742,8.07692652 10.2414297,7.90016396 10.2414297,7.6821732 L10.2414297,0.394753316 C10.2414297,0.176717842 10.0715742,0 9.86210156,0 L1.64763672,0 C0.737644531,0 0,0.767685199 0,1.71468177 L0,7.6821732 C0,7.90020867 0.169855469,8.07692652 0.379328125,8.07692652 Z" id="Path" fill="#49487A"></path>
                        <g id="Group" transform="translate(0.612418, 0.880582)" fill="#F5F5F5">
                            <path d="M0.452734166,0.0254546132 L0.536695103,0.287490684 L0.802113072,0.289592339 C0.836488072,0.289905351 0.850710728,0.335515725 0.823081822,0.35675585 L0.609570103,0.520819049 L0.689663853,0.784151886 C0.700062291,0.818225518 0.662722447,0.846486063 0.634749791,0.825648383 L0.418831822,0.665073036 L0.202913853,0.825693099 C0.174941197,0.84653078 0.137687291,0.818270234 0.147999791,0.784196602 L0.228093541,0.520863765 L0.0145818222,0.356800566 C-0.0130470841,0.335515725 0.00117557215,0.289905351 0.0355505722,0.289637055 L0.300968541,0.2875354 L0.384929478,0.0254993293 C0.395757603,-0.00848487107 0.441820103,-0.00848487107 0.452734166,0.0254546132 Z" id="Path"></path>
                            <path d="M0.452734166,1.3961805 L0.536695103,1.65821657 L0.802113072,1.66031823 C0.836488072,1.66063124 0.850710728,1.7061969 0.823081822,1.72748174 L0.609570103,1.89158966 L0.689663853,2.15492249 C0.700062291,2.18899612 0.662722447,2.21725667 0.634749791,2.19641899 L0.418831822,2.03584364 L0.202913853,2.19646371 C0.174941197,2.21725667 0.137687291,2.18904084 0.147999791,2.15496721 L0.228093541,1.89163437 L0.0145818222,1.72752646 C-0.0130470841,1.70624162 0.00117557215,1.66067596 0.0355505722,1.66036295 L0.300968541,1.65826129 L0.384929478,1.39622522 C0.395757603,1.36228574 0.441820103,1.36228574 0.452734166,1.3961805 Z" id="Path"></path>
                            <path d="M0.452734166,2.76695111 L0.536695103,3.02898718 L0.802113072,3.03108884 C0.836488072,3.03140185 0.850710728,3.07696751 0.823081822,3.09825235 L0.609570103,3.26236026 L0.689663853,3.5256931 C0.700062291,3.55976673 0.662722447,3.58802728 0.634749791,3.5671896 L0.418831822,3.40661425 L0.202913853,3.56723431 C0.174941197,3.58802728 0.137687291,3.55985616 0.147999791,3.52573781 L0.228093541,3.26240498 L0.0145818222,3.09829706 C-0.0130470841,3.07701222 0.00117557215,3.03144656 0.0355505722,3.03113355 L0.300968541,3.0290319 L0.384929478,2.76699583 C0.395757603,2.73301163 0.441820103,2.73301163 0.452734166,2.76695111 Z" id="Path"></path>
                            <path d="M0.452734166,4.137677 L0.536695103,4.39971307 L0.802113072,4.40181473 C0.836488072,4.40212774 0.850710728,4.44773811 0.823081822,4.46897824 L0.609570103,4.63308615 L0.689663853,4.89641899 C0.700062291,4.93049262 0.662722447,4.95875317 0.634749791,4.93791549 L0.418831822,4.77734014 L0.202913853,4.9379602 C0.174941197,4.95875317 0.137687291,4.93053734 0.147999791,4.89646371 L0.228093541,4.63313087 L0.0145818222,4.46902295 C-0.0130470841,4.44782755 0.00117557215,4.40217245 0.0355505722,4.40185944 L0.300968541,4.39975779 L0.384929478,4.13772172 C0.395757603,4.10373752 0.441820103,4.10373752 0.452734166,4.137677 Z" id="Path"></path>
                            <path d="M0.452734166,5.50840289 L0.536695103,5.77043896 L0.802113072,5.77254062 C0.836488072,5.77285363 0.850710728,5.81841929 0.823081822,5.83970413 L0.609570103,6.00381204 L0.689663853,6.26714488 C0.700062291,6.30121851 0.662722447,6.32947906 0.634749791,6.30864138 L0.418831822,6.14806603 L0.202913853,6.30868609 C0.174941197,6.32947906 0.137687291,6.30126323 0.147999791,6.2671896 L0.228093541,6.00385676 L0.0145818222,5.83974884 C-0.0130470841,5.818464 0.00117557215,5.77289835 0.0355505722,5.77258533 L0.300968541,5.77048368 L0.384929478,5.50844761 C0.395757603,5.47450812 0.441820103,5.47450812 0.452734166,5.50840289 Z" id="Path"></path>
                            <path d="M1.47508963,0.697492175 L1.55905057,0.959528246 L1.82446854,0.9616299 C1.85884354,0.961942913 1.8730662,1.00755329 1.84543729,1.02879341 L1.63192557,1.19290133 L1.71201932,1.45623416 C1.72241776,1.4903078 1.68507792,1.51856834 1.65710526,1.49773066 L1.44118729,1.3371106 L1.22526932,1.49773066 C1.19729667,1.51852362 1.16004276,1.4903078 1.17035526,1.45623416 L1.25044901,1.19290133 L1.03693729,1.02879341 C1.00930838,1.00750857 1.02353104,0.961942913 1.05790604,0.9616299 L1.32332401,0.959528246 L1.40728495,0.697492175 C1.41811307,0.663597406 1.46421854,0.663597406 1.47508963,0.697492175 Z" id="Path"></path>
                            <path d="M1.47508963,2.06826278 L1.55905057,2.33029885 L1.82446854,2.33240051 C1.85884354,2.33271352 1.8730662,2.37832389 1.84543729,2.39956402 L1.63192557,2.56367193 L1.71201932,2.82700477 C1.72241776,2.8610784 1.68507792,2.88933895 1.65710526,2.86850127 L1.44118729,2.7078812 L1.22526932,2.86850127 C1.19729667,2.88929423 1.16004276,2.86112312 1.17035526,2.82700477 L1.25044901,2.56367193 L1.03693729,2.39956402 C1.00930838,2.37836861 1.02353104,2.33271352 1.05790604,2.33240051 L1.32332401,2.33029885 L1.40728495,2.06826278 C1.41811307,2.0343233 1.46421854,2.0343233 1.47508963,2.06826278 Z" id="Path"></path>
                            <path d="M1.47508963,3.43898867 L1.55905057,3.70102474 L1.82446854,3.7031264 C1.85884354,3.70343941 1.8730662,3.74900507 1.84543729,3.77028991 L1.63192557,3.93439782 L1.71201932,4.19773066 C1.72241776,4.23180429 1.68507792,4.26006484 1.65710526,4.23922716 L1.44118729,4.07860709 L1.22526932,4.23922716 C1.19729667,4.26002012 1.16004276,4.23180429 1.17035526,4.19773066 L1.25044901,3.93439782 L1.03693729,3.77028991 C1.00930838,3.74900507 1.02353104,3.70343941 1.05790604,3.7031264 L1.32332401,3.70102474 L1.40728495,3.43898867 C1.41811307,3.40504919 1.46421854,3.40504919 1.47508963,3.43898867 Z" id="Path"></path>
                            <path d="M1.47508963,4.80971456 L1.55905057,5.07175063 L1.82446854,5.07385229 C1.85884354,5.0741653 1.8730662,5.11973096 1.84543729,5.1410158 L1.63192557,5.30512371 L1.71201932,5.56845655 C1.72241776,5.60253018 1.68507792,5.63079073 1.65710526,5.60995305 L1.44118729,5.44933299 L1.22526932,5.60995305 C1.19729667,5.63079073 1.16004276,5.60253018 1.17035526,5.56845655 L1.25044901,5.30512371 L1.03693729,5.1410158 C1.00930838,5.11973096 1.02353104,5.0741653 1.05790604,5.07385229 L1.32332401,5.07175063 L1.40728495,4.80971456 C1.41811307,4.77581979 1.46421854,4.77581979 1.47508963,4.80971456 Z" id="Path"></path>
                            <path d="M2.4974451,0.0254546132 L2.58140604,0.287490684 L2.84682401,0.289592339 C2.88119901,0.289905351 2.89542167,0.335515725 2.86779276,0.35675585 L2.65428104,0.520819049 L2.73437479,0.784151886 C2.74477323,0.818225518 2.70743338,0.846486063 2.67946073,0.825648383 L2.46354276,0.66502832 L2.24762479,0.825648383 C2.21965213,0.846486063 2.18239823,0.818225518 2.19271073,0.784151886 L2.27280448,0.520819049 L2.05929276,0.35675585 C2.03166385,0.335471009 2.04588651,0.289860635 2.08026151,0.289592339 L2.34567948,0.287490684 L2.42964042,0.0254546132 C2.44046854,-0.00848487107 2.48657401,-0.00848487107 2.4974451,0.0254546132 Z" id="Path"></path>
                            <path d="M2.4974451,1.3961805 L2.58140604,1.65821657 L2.84682401,1.66031823 C2.88119901,1.66063124 2.89542167,1.7061969 2.86779276,1.72748174 L2.65428104,1.89158966 L2.73437479,2.15492249 C2.74477323,2.18899612 2.70743338,2.21725667 2.67946073,2.19641899 L2.46354276,2.03579893 L2.24762479,2.19641899 C2.21965213,2.21721195 2.18239823,2.18899612 2.19271073,2.15492249 L2.27280448,1.89158966 L2.05929276,1.72748174 C2.03166385,1.7061969 2.04588651,1.66063124 2.08026151,1.66031823 L2.34567948,1.65821657 L2.42964042,1.3961805 C2.44046854,1.36228574 2.48657401,1.36228574 2.4974451,1.3961805 Z" id="Path"></path>
                            <path d="M2.4974451,2.76695111 L2.58140604,3.02898718 L2.84682401,3.03108884 C2.88119901,3.03140185 2.89542167,3.07696751 2.86779276,3.09825235 L2.65428104,3.26236026 L2.73437479,3.5256931 C2.74477323,3.55976673 2.70743338,3.58802728 2.67946073,3.5671896 L2.46354276,3.40656953 L2.24762479,3.5671896 C2.21965213,3.58798256 2.18239823,3.55981145 2.19271073,3.5256931 L2.27280448,3.26236026 L2.05929276,3.09825235 C2.03166385,3.07696751 2.04588651,3.03140185 2.08026151,3.03108884 L2.34567948,3.02898718 L2.42964042,2.76695111 C2.44046854,2.73301163 2.48657401,2.73301163 2.4974451,2.76695111 Z" id="Path"></path>
                            <path d="M2.4974451,4.137677 L2.58140604,4.39971307 L2.84682401,4.40181473 C2.88119901,4.40212774 2.89542167,4.44773811 2.86779276,4.46897824 L2.65428104,4.63308615 L2.73437479,4.89641899 C2.74477323,4.93049262 2.70743338,4.95875317 2.67946073,4.93791549 L2.46354276,4.77729542 L2.24762479,4.93791549 C2.21965213,4.95870845 2.18239823,4.93049262 2.19271073,4.89641899 L2.27280448,4.63308615 L2.05929276,4.46897824 C2.03166385,4.44778283 2.04588651,4.40212774 2.08026151,4.40181473 L2.34567948,4.39971307 L2.42964042,4.137677 C2.44046854,4.10373752 2.48657401,4.10373752 2.4974451,4.137677 Z" id="Path"></path>
                            <path d="M2.4974451,5.50840289 L2.58140604,5.77043896 L2.84682401,5.77254062 C2.88119901,5.77285363 2.89542167,5.81841929 2.86779276,5.83970413 L2.65428104,6.00381204 L2.73437479,6.26714488 C2.74477323,6.30121851 2.70743338,6.32947906 2.67946073,6.30864138 L2.46354276,6.14802131 L2.24762479,6.30864138 C2.21965213,6.32943434 2.18239823,6.30121851 2.19271073,6.26714488 L2.27280448,6.00381204 L2.05929276,5.83970413 C2.03166385,5.81841929 2.04588651,5.77285363 2.08026151,5.77254062 L2.34567948,5.77043896 L2.42964042,5.50840289 C2.44046854,5.47450812 2.48657401,5.47450812 2.4974451,5.50840289 Z" id="Path"></path>
                            <path d="M3.51984354,0.697492175 L3.60380448,0.959528246 L3.86922245,0.9616299 C3.90359745,0.961942913 3.9178201,1.00755329 3.8901912,1.02879341 L3.67667948,1.19290133 L3.75677323,1.45623416 C3.76717167,1.4903078 3.72983182,1.51856834 3.70185917,1.49773066 L3.4859412,1.3371106 L3.27002323,1.49773066 C3.24205057,1.51852362 3.20479667,1.4903078 3.21510917,1.45623416 L3.29520292,1.19290133 L3.0816912,1.02879341 C3.05406229,1.00750857 3.06828495,0.961942913 3.10265995,0.9616299 L3.36807792,0.959528246 L3.45203885,0.697492175 C3.46282401,0.663597406 3.50897245,0.663597406 3.51984354,0.697492175 Z" id="Path"></path>
                            <path d="M3.51984354,2.06826278 L3.60380448,2.33029885 L3.86922245,2.33240051 C3.90359745,2.33271352 3.9178201,2.37832389 3.8901912,2.39956402 L3.67667948,2.56367193 L3.75677323,2.82700477 C3.76717167,2.8610784 3.72983182,2.88933895 3.70185917,2.86850127 L3.4859412,2.7078812 L3.27002323,2.86850127 C3.24205057,2.88929423 3.20479667,2.86112312 3.21510917,2.82700477 L3.29520292,2.56367193 L3.0816912,2.39956402 C3.05406229,2.37836861 3.06828495,2.33271352 3.10265995,2.33240051 L3.36807792,2.33029885 L3.45203885,2.06826278 C3.46282401,2.0343233 3.50897245,2.0343233 3.51984354,2.06826278 Z" id="Path"></path>
                            <path d="M3.51984354,3.43898867 L3.60380448,3.70102474 L3.86922245,3.7031264 C3.90359745,3.70343941 3.9178201,3.74900507 3.8901912,3.77028991 L3.67667948,3.93439782 L3.75677323,4.19773066 C3.76717167,4.23180429 3.72983182,4.26006484 3.70185917,4.23922716 L3.4859412,4.07860709 L3.27002323,4.23922716 C3.24205057,4.26002012 3.20479667,4.23180429 3.21510917,4.19773066 L3.29520292,3.93439782 L3.0816912,3.77028991 C3.05406229,3.74900507 3.06828495,3.70343941 3.10265995,3.7031264 L3.36807792,3.70102474 L3.45203885,3.43898867 C3.46282401,3.40504919 3.50897245,3.40504919 3.51984354,3.43898867 Z" id="Path"></path>
                            <path d="M3.51984354,4.80971456 L3.60380448,5.07175063 L3.86922245,5.07385229 C3.90359745,5.0741653 3.9178201,5.11973096 3.8901912,5.1410158 L3.67667948,5.30512371 L3.75677323,5.56845655 C3.76717167,5.60253018 3.72983182,5.63079073 3.70185917,5.60995305 L3.4859412,5.44933299 L3.27002323,5.60995305 C3.24205057,5.63079073 3.20479667,5.60253018 3.21510917,5.56845655 L3.29520292,5.30512371 L3.0816912,5.1410158 C3.05406229,5.11973096 3.06828495,5.0741653 3.10265995,5.07385229 L3.36807792,5.07175063 L3.45203885,4.80971456 C3.46282401,4.77581979 3.50897245,4.77581979 3.51984354,4.80971456 Z" id="Path"></path>
                            <path d="M4.54219901,0.0254546132 L4.62615995,0.287490684 L4.89157792,0.289592339 C4.92595292,0.289905351 4.94017557,0.335515725 4.91254667,0.35675585 L4.69903495,0.520819049 L4.7791287,0.784151886 C4.78952713,0.818225518 4.75218729,0.846486063 4.72421463,0.825648383 L4.5082537,0.665073036 L4.29233573,0.825693099 C4.26436307,0.84653078 4.22710917,0.818270234 4.23742167,0.784196602 L4.31751542,0.520863765 L4.1040037,0.356800566 C4.07637479,0.335515725 4.09059745,0.289905351 4.12497245,0.289637055 L4.39039042,0.2875354 L4.47435135,0.0254993293 C4.48522245,-0.00848487107 4.53132792,-0.00848487107 4.54219901,0.0254546132 Z" id="Path"></path>
                            <path d="M4.54219901,1.3961805 L4.62615995,1.65821657 L4.89157792,1.66031823 C4.92595292,1.66063124 4.94017557,1.7061969 4.91254667,1.72748174 L4.69903495,1.89158966 L4.7791287,2.15492249 C4.78952713,2.18899612 4.75218729,2.21725667 4.72421463,2.19641899 L4.5082537,2.03579893 L4.29233573,2.19641899 C4.26436307,2.21721195 4.22710917,2.18899612 4.23742167,2.15492249 L4.31751542,1.89158966 L4.1040037,1.72748174 C4.07637479,1.7061969 4.09059745,1.66063124 4.12497245,1.66031823 L4.39039042,1.65821657 L4.47435135,1.3961805 C4.48522245,1.36228574 4.53132792,1.36228574 4.54219901,1.3961805 Z" id="Path"></path>
                            <path d="M4.54219901,2.76695111 L4.62615995,3.02898718 L4.89157792,3.03108884 C4.92595292,3.03140185 4.94017557,3.07696751 4.91254667,3.09825235 L4.69903495,3.26236026 L4.7791287,3.5256931 C4.78952713,3.55976673 4.75218729,3.58802728 4.72421463,3.5671896 L4.5082537,3.40652482 L4.29233573,3.56714488 C4.26436307,3.58793784 4.22710917,3.55972202 4.23742167,3.52564838 L4.31751542,3.26231555 L4.1040037,3.09820763 C4.07637479,3.07692279 4.09059745,3.03135713 4.12497245,3.03104412 L4.39039042,3.02894247 L4.47435135,2.76690639 C4.48522245,2.73301163 4.53132792,2.73301163 4.54219901,2.76695111 Z" id="Path"></path>
                            <path d="M4.54219901,4.137677 L4.62615995,4.39971307 L4.89157792,4.40181473 C4.92595292,4.40212774 4.94017557,4.44773811 4.91254667,4.46897824 L4.69903495,4.63308615 L4.7791287,4.89641899 C4.78952713,4.93049262 4.75218729,4.95875317 4.72421463,4.93791549 L4.5082537,4.77729542 L4.29233573,4.93791549 C4.26436307,4.95870845 4.22710917,4.93049262 4.23742167,4.89641899 L4.31751542,4.63308615 L4.1040037,4.46897824 C4.07637479,4.44778283 4.09059745,4.40212774 4.12497245,4.40181473 L4.39039042,4.39971307 L4.47435135,4.137677 C4.48522245,4.10373752 4.53132792,4.10373752 4.54219901,4.137677 Z" id="Path"></path>
                            <path d="M4.54219901,5.50840289 L4.62615995,5.77043896 L4.89157792,5.77254062 C4.92595292,5.77285363 4.94017557,5.81841929 4.91254667,5.83970413 L4.69903495,6.00381204 L4.7791287,6.26714488 C4.78952713,6.30121851 4.75218729,6.32947906 4.72421463,6.30864138 L4.5082537,6.14802131 L4.29233573,6.30864138 C4.26436307,6.32943434 4.22710917,6.30121851 4.23742167,6.26714488 L4.31751542,6.00381204 L4.1040037,5.83970413 C4.07637479,5.81841929 4.09059745,5.77285363 4.12497245,5.77254062 L4.39039042,5.77043896 L4.47435135,5.50840289 C4.48522245,5.47450812 4.53132792,5.47450812 4.54219901,5.50840289 Z" id="Path"></path>
                            <path d="M5.56455448,0.697492175 L5.64851542,0.959528246 L5.91393338,0.9616299 C5.94830838,0.961942913 5.96253104,1.00755329 5.93490213,1.02879341 L5.72139042,1.19290133 L5.80148417,1.45623416 C5.8118826,1.4903078 5.77454276,1.51856834 5.7465701,1.49773066 L5.53065213,1.3371106 L5.31473417,1.49773066 C5.28676151,1.51852362 5.2495076,1.4903078 5.2598201,1.45623416 L5.33991385,1.19290133 L5.12640213,1.02879341 C5.09877323,1.00750857 5.11299588,0.961942913 5.14737088,0.9616299 L5.41278885,0.959528246 L5.49674979,0.697492175 C5.50762088,0.663597406 5.55368338,0.663597406 5.56455448,0.697492175 Z" id="Path"></path>
                            <path d="M5.56455448,2.06826278 L5.64851542,2.33029885 L5.91393338,2.33240051 C5.94830838,2.33271352 5.96253104,2.37832389 5.93490213,2.39956402 L5.72139042,2.56367193 L5.80148417,2.82700477 C5.8118826,2.8610784 5.77454276,2.88933895 5.7465701,2.86850127 L5.53065213,2.7078812 L5.31473417,2.86850127 C5.28676151,2.88929423 5.2495076,2.86112312 5.2598201,2.82700477 L5.33991385,2.56367193 L5.12640213,2.39956402 C5.09877323,2.37836861 5.11299588,2.33271352 5.14737088,2.33240051 L5.41278885,2.33029885 L5.49674979,2.06826278 C5.50762088,2.0343233 5.55368338,2.0343233 5.56455448,2.06826278 Z" id="Path"></path>
                            <path d="M5.56455448,3.43898867 L5.64851542,3.70102474 L5.91393338,3.7031264 C5.94830838,3.70343941 5.96253104,3.74900507 5.93490213,3.77028991 L5.72139042,3.93439782 L5.80148417,4.19773066 C5.8118826,4.23180429 5.77454276,4.26006484 5.7465701,4.23922716 L5.53065213,4.07860709 L5.31473417,4.23922716 C5.28676151,4.26002012 5.2495076,4.23180429 5.2598201,4.19773066 L5.33991385,3.93439782 L5.12640213,3.77028991 C5.09877323,3.74900507 5.11299588,3.70343941 5.14737088,3.7031264 L5.41278885,3.70102474 L5.49674979,3.43898867 C5.50762088,3.40504919 5.55368338,3.40504919 5.56455448,3.43898867 Z" id="Path"></path>
                            <path d="M5.56455448,4.80971456 L5.64851542,5.07175063 L5.91393338,5.07385229 C5.94830838,5.0741653 5.96253104,5.11973096 5.93490213,5.1410158 L5.72139042,5.30512371 L5.80148417,5.56845655 C5.8118826,5.60253018 5.77454276,5.63079073 5.7465701,5.60995305 L5.53065213,5.44933299 L5.31473417,5.60995305 C5.28676151,5.63079073 5.2495076,5.60253018 5.2598201,5.56845655 L5.33991385,5.30512371 L5.12640213,5.1410158 C5.09877323,5.11973096 5.11299588,5.0741653 5.14737088,5.07385229 L5.41278885,5.07175063 L5.49674979,4.80971456 C5.50762088,4.77581979 5.55368338,4.77581979 5.56455448,4.80971456 Z" id="Path"></path>
                            <path d="M6.58695292,0.0254546132 L6.67091385,0.287490684 L6.93633182,0.289592339 C6.97070682,0.289905351 6.98492948,0.335515725 6.95730057,0.35675585 L6.74378885,0.520819049 L6.8238826,0.784151886 C6.83428104,0.818225518 6.7969412,0.846486063 6.76896854,0.825648383 L6.55305057,0.66502832 L6.3371326,0.825648383 C6.30915995,0.846486063 6.27190604,0.818225518 6.28221854,0.784151886 L6.36231229,0.520819049 L6.14880057,0.35675585 C6.12117167,0.335471009 6.13539432,0.289860635 6.16976932,0.289592339 L6.43518729,0.287490684 L6.51914823,0.0254546132 C6.52993338,-0.00848487107 6.57608182,-0.00848487107 6.58695292,0.0254546132 Z" id="Path"></path>
                            <path d="M6.58695292,1.3961805 L6.67091385,1.65821657 L6.93633182,1.66031823 C6.97070682,1.66063124 6.98492948,1.7061969 6.95730057,1.72748174 L6.74378885,1.89158966 L6.8238826,2.15492249 C6.83428104,2.18899612 6.7969412,2.21725667 6.76896854,2.19641899 L6.55305057,2.03579893 L6.3371326,2.19641899 C6.30915995,2.21721195 6.27190604,2.18899612 6.28221854,2.15492249 L6.36231229,1.89158966 L6.14880057,1.72748174 C6.12117167,1.7061969 6.13539432,1.66063124 6.16976932,1.66031823 L6.43518729,1.65821657 L6.51914823,1.3961805 C6.52993338,1.36228574 6.57608182,1.36228574 6.58695292,1.3961805 Z" id="Path"></path>
                            <path d="M6.58695292,2.76695111 L6.67091385,3.02898718 L6.93633182,3.03108884 C6.97070682,3.03140185 6.98492948,3.07696751 6.95730057,3.09825235 L6.74378885,3.26236026 L6.8238826,3.5256931 C6.83428104,3.55976673 6.7969412,3.58802728 6.76896854,3.5671896 L6.55305057,3.40656953 L6.3371326,3.5671896 C6.30915995,3.58798256 6.27190604,3.55981145 6.28221854,3.5256931 L6.36231229,3.26236026 L6.14880057,3.09825235 C6.12117167,3.07696751 6.13539432,3.03140185 6.16976932,3.03108884 L6.43518729,3.02898718 L6.51914823,2.76695111 C6.52993338,2.73301163 6.57608182,2.73301163 6.58695292,2.76695111 Z" id="Path"></path>
                            <path d="M6.58695292,4.137677 L6.67091385,4.39971307 L6.93633182,4.40181473 C6.97070682,4.40212774 6.98492948,4.44773811 6.95730057,4.46897824 L6.74378885,4.63308615 L6.8238826,4.89641899 C6.83428104,4.93049262 6.7969412,4.95875317 6.76896854,4.93791549 L6.55305057,4.77729542 L6.3371326,4.93791549 C6.30915995,4.95870845 6.27190604,4.93049262 6.28221854,4.89641899 L6.36231229,4.63308615 L6.14880057,4.46897824 C6.12117167,4.44778283 6.13539432,4.40212774 6.16976932,4.40181473 L6.43518729,4.39971307 L6.51914823,4.137677 C6.52993338,4.10373752 6.57608182,4.10373752 6.58695292,4.137677 Z" id="Path"></path>
                            <path d="M6.58695292,5.50840289 L6.67091385,5.77043896 L6.93633182,5.77254062 C6.97070682,5.77285363 6.98492948,5.81841929 6.95730057,5.83970413 L6.74378885,6.00381204 L6.8238826,6.26714488 C6.83428104,6.30121851 6.7969412,6.32947906 6.76896854,6.30864138 L6.55305057,6.14802131 L6.3371326,6.30864138 C6.30915995,6.32943434 6.27190604,6.30121851 6.28221854,6.26714488 L6.36231229,6.00381204 L6.14880057,5.83970413 C6.12117167,5.81841929 6.13539432,5.77285363 6.16976932,5.77254062 L6.43518729,5.77043896 L6.51914823,5.50840289 C6.52993338,5.47450812 6.57608182,5.47450812 6.58695292,5.50840289 Z" id="Path"></path>
                            <path d="M7.60930838,0.697492175 L7.69326932,0.959528246 L7.95868729,0.9616299 C7.99306229,0.961942913 8.00728495,1.00755329 7.97965604,1.02879341 L7.76614432,1.19290133 L7.84623807,1.45623416 C7.85663651,1.4903078 7.81929667,1.51856834 7.79132401,1.49773066 L7.57540604,1.3371106 L7.35948807,1.49773066 C7.33151542,1.51852362 7.29426151,1.4903078 7.30457401,1.45623416 L7.38466776,1.19290133 L7.17115604,1.02879341 C7.14352713,1.00750857 7.15774979,0.961942913 7.19212479,0.9616299 L7.45754276,0.959528246 L7.5415037,0.697492175 C7.55233182,0.663597406 7.59843729,0.663597406 7.60930838,0.697492175 Z" id="Path"></path>
                            <path d="M7.60930838,2.06826278 L7.69326932,2.33029885 L7.95868729,2.33240051 C7.99306229,2.33271352 8.00728495,2.37832389 7.97965604,2.39956402 L7.76614432,2.56367193 L7.84623807,2.82700477 C7.85663651,2.8610784 7.81929667,2.88933895 7.79132401,2.86850127 L7.57540604,2.7078812 L7.35948807,2.86850127 C7.33151542,2.88929423 7.29426151,2.86112312 7.30457401,2.82700477 L7.38466776,2.56367193 L7.17115604,2.39956402 C7.14352713,2.37836861 7.15774979,2.33271352 7.19212479,2.33240051 L7.45754276,2.33029885 L7.5415037,2.06826278 C7.55233182,2.0343233 7.59843729,2.0343233 7.60930838,2.06826278 Z" id="Path"></path>
                            <path d="M7.60930838,3.43898867 L7.69326932,3.70102474 L7.95868729,3.7031264 C7.99306229,3.70343941 8.00728495,3.74900507 7.97965604,3.77028991 L7.76614432,3.93439782 L7.84623807,4.19773066 C7.85663651,4.23180429 7.81929667,4.26006484 7.79132401,4.23922716 L7.57540604,4.07860709 L7.35948807,4.23922716 C7.33151542,4.26002012 7.29426151,4.23180429 7.30457401,4.19773066 L7.38466776,3.93439782 L7.17115604,3.77028991 C7.14352713,3.74900507 7.15774979,3.70343941 7.19212479,3.7031264 L7.45754276,3.70102474 L7.5415037,3.43898867 C7.55233182,3.40504919 7.59843729,3.40504919 7.60930838,3.43898867 Z" id="Path"></path>
                            <path d="M7.60930838,4.80971456 L7.69326932,5.07175063 L7.95868729,5.07385229 C7.99306229,5.0741653 8.00728495,5.11973096 7.97965604,5.1410158 L7.76614432,5.30512371 L7.84623807,5.56845655 C7.85663651,5.60253018 7.81929667,5.63079073 7.79132401,5.60995305 L7.57540604,5.44933299 L7.35948807,5.60995305 C7.33151542,5.63079073 7.29426151,5.60253018 7.30457401,5.56845655 L7.38466776,5.30512371 L7.17115604,5.1410158 C7.14352713,5.11973096 7.15774979,5.0741653 7.19212479,5.07385229 L7.45754276,5.07175063 L7.5415037,4.80971456 C7.55233182,4.77581979 7.59843729,4.77581979 7.60930838,4.80971456 Z" id="Path"></path>
                            <path d="M8.63170682,0.0254546132 L8.71566776,0.287490684 L8.98108573,0.289592339 C9.01546073,0.289905351 9.02968338,0.335515725 9.00205448,0.35675585 L8.78854276,0.520819049 L8.86863651,0.784151886 C8.87903495,0.818225518 8.8416951,0.846486063 8.81372245,0.825648383 L8.59780448,0.66502832 L8.38188651,0.825648383 C8.35391385,0.846486063 8.31665995,0.818225518 8.32697245,0.784151886 L8.4070662,0.520819049 L8.19355448,0.35675585 C8.16592557,0.335471009 8.18014823,0.289860635 8.21452323,0.289592339 L8.4799412,0.287490684 L8.56390213,0.0254546132 C8.57473026,-0.00848487107 8.62079276,-0.00848487107 8.63170682,0.0254546132 Z" id="Path"></path>
                            <path d="M8.63170682,1.3961805 L8.71566776,1.65821657 L8.98108573,1.66031823 C9.01546073,1.66063124 9.02968338,1.7061969 9.00205448,1.72748174 L8.78854276,1.89158966 L8.86863651,2.15492249 C8.87903495,2.18899612 8.8416951,2.21725667 8.81372245,2.19641899 L8.59780448,2.03579893 L8.38188651,2.19641899 C8.35391385,2.21721195 8.31665995,2.18899612 8.32697245,2.15492249 L8.4070662,1.89158966 L8.19355448,1.72748174 C8.16592557,1.7061969 8.18014823,1.66063124 8.21452323,1.66031823 L8.4799412,1.65821657 L8.56390213,1.3961805 C8.57473026,1.36228574 8.62079276,1.36228574 8.63170682,1.3961805 Z" id="Path"></path>
                            <path d="M8.63170682,2.76695111 L8.71566776,3.02898718 L8.98108573,3.03108884 C9.01546073,3.03140185 9.02968338,3.07696751 9.00205448,3.09825235 L8.78854276,3.26236026 L8.86863651,3.5256931 C8.87903495,3.55976673 8.8416951,3.58802728 8.81372245,3.5671896 L8.59780448,3.40656953 L8.38188651,3.5671896 C8.35391385,3.58798256 8.31665995,3.55981145 8.32697245,3.5256931 L8.4070662,3.26236026 L8.19355448,3.09825235 C8.16592557,3.07696751 8.18014823,3.03140185 8.21452323,3.03108884 L8.4799412,3.02898718 L8.56390213,2.76695111 C8.57473026,2.73301163 8.62079276,2.73301163 8.63170682,2.76695111 Z" id="Path"></path>
                            <path d="M8.63170682,4.137677 L8.71566776,4.39971307 L8.98108573,4.40181473 C9.01546073,4.40212774 9.02968338,4.44773811 9.00205448,4.46897824 L8.78854276,4.63308615 L8.86863651,4.89641899 C8.87903495,4.93049262 8.8416951,4.95875317 8.81372245,4.93791549 L8.59780448,4.77729542 L8.38188651,4.93791549 C8.35391385,4.95870845 8.31665995,4.93049262 8.32697245,4.89641899 L8.4070662,4.63308615 L8.19355448,4.46897824 C8.16592557,4.44778283 8.18014823,4.40212774 8.21452323,4.40181473 L8.4799412,4.39971307 L8.56390213,4.137677 C8.57473026,4.10373752 8.62079276,4.10373752 8.63170682,4.137677 Z" id="Path"></path>
                            <path d="M8.63170682,5.50840289 L8.71566776,5.77043896 L8.98108573,5.77254062 C9.01546073,5.77285363 9.02968338,5.81841929 9.00205448,5.83970413 L8.78854276,6.00381204 L8.86863651,6.26714488 C8.87903495,6.30121851 8.8416951,6.32947906 8.81372245,6.30864138 L8.59780448,6.14802131 L8.38188651,6.30864138 C8.35391385,6.32943434 8.31665995,6.30121851 8.32697245,6.26714488 L8.4070662,6.00381204 L8.19355448,5.83970413 C8.16592557,5.81841929 8.18014823,5.77285363 8.21452323,5.77254062 L8.4799412,5.77043896 L8.56390213,5.50840289 C8.57473026,5.47450812 8.62079276,5.47450812 8.63170682,5.50840289 Z" id="Path"></path>
                        </g>
                    </g>
                </g>
            </g>
        </g>
    </g>
</svg>