<svg width="13" height="13" viewBox="0 0 13 13" fill="none" xmlns="http://www.w3.org/2000/svg">
<path d="M12.7398 9.98808L10.9677 8.21725C10.6176 7.87241 10.0568 7.87241 9.70676 8.21725L8.58216 9.37295C8.46754 9.47237 8.30024 9.47237 8.18561 9.37295C7.35223 8.70501 6.55293 7.99668 5.79391 7.24485C5.03488 6.48992 4.32233 5.6946 3.65315 4.8589C3.54781 4.74706 3.54781 4.57308 3.65315 4.46124L4.83041 3.30865C5.1743 2.95138 5.1743 2.38595 4.83041 2.02868L3.05832 0.251644C2.69894 -0.0838812 2.14129 -0.0838812 1.78192 0.251644L0.325828 1.71801C0.325828 1.71801 0.260769 1.78015 0.239083 1.805C-0.581904 2.79293 0.728576 5.92761 3.90719 9.09645C6.22144 11.4296 8.8362 12.9923 10.3976 12.9923C10.6579 13.0171 10.9305 12.9861 11.1474 12.84C11.1907 12.809 11.3116 12.7002 11.3116 12.7002L12.7398 11.2618C13.0867 10.9077 13.0867 10.3422 12.7398 9.98808Z" fill="white"/>
</svg>
