<svg width="80" height="70" viewBox="0 0 80 70" fill="none" xmlns="http://www.w3.org/2000/svg">
<path d="M59.6559 18.141C58.3331 16.4018 56.3157 15.4065 54.1221 15.4065H48.1142C48.0481 15.1658 47.9489 14.9252 47.8055 14.7064L38.2701 1.02284C37.5757 0.0274695 36.2087 -0.224108 35.2056 0.464994C34.2024 1.1541 33.9489 2.51042 34.6434 3.50579L42.9221 15.4065H19.4198L27.6985 3.51673C28.393 2.52136 28.1395 1.16503 27.1363 0.475933C26.1332 -0.213169 24.7663 0.0384076 24.0718 1.03378L14.5474 14.7174C14.3931 14.9361 14.2939 15.1768 14.2387 15.4174H8.23089C6.0372 15.4174 4.01989 16.4128 2.69706 18.1519C1.37423 19.8911 0.966353 22.0897 1.57265 24.1789L9.89545 53.0883C10.7443 56.0197 13.4781 58.0761 16.5537 58.0761H45.7993C48.8748 58.0761 51.6197 56.0307 52.4575 53.0883L60.7803 24.1789C61.3866 22.0787 60.9787 19.8802 59.6559 18.141Z" fill="#708524" stroke="white" stroke-width="1.8"/>
<path fill-rule="evenodd" clip-rule="evenodd" d="M56.5473 22.9647L48.2245 51.8742C47.9158 52.9461 46.9237 53.6899 45.7993 53.6899H16.5427C15.4183 53.6899 14.4262 52.9461 14.1175 51.8742L5.7947 22.9647C5.57423 22.1991 5.72856 21.4006 6.20257 20.7771C6.68761 20.1427 7.41517 19.7817 8.21989 19.7817H54.111C54.9047 19.7817 55.6433 20.1427 56.1284 20.7771C56.6134 21.4115 56.7567 22.21 56.5473 22.9647Z" fill="#E1F6B7" stroke="#E1F6B7" stroke-width="2.7"/>
<rect x="75.5287" y="46.3531" width="25.5" height="35.5" transform="rotate(123 75.5287 46.3531)" fill="white" stroke="white" stroke-width="1.5"/>
<path fill-rule="evenodd" clip-rule="evenodd" d="M73.5947 45.0867L48.09 27.8835C46.662 26.9228 44.7297 27.2934 43.7703 28.7121L32.1419 45.9519C31.1859 47.3729 31.5661 49.3034 32.9918 50.2675L58.4965 67.4707C59.9245 68.4314 61.8569 68.0608 62.8163 66.642L74.4447 49.4023C75.4007 47.9813 75.0205 46.0508 73.5947 45.0867ZM46.7175 29.9184L72.2222 47.1216C72.5197 47.3231 72.5991 47.7261 72.3997 48.0229L70.7032 50.5381L44.1187 32.6066L45.8152 30.0915C46.0158 29.7954 46.4191 29.718 46.7175 29.9184ZM34.3644 48.2326L59.8691 65.4358C60.1674 65.6362 60.5708 65.5588 60.7713 65.2627L69.3306 52.573L42.7462 34.6415L34.1869 47.3312C33.9875 47.6281 34.0668 48.0311 34.3644 48.2326Z" fill="#667C14"/>
<path d="M48.09 27.8835L48.2298 27.6762L48.2296 27.6761L48.09 27.8835ZM73.5947 45.0867L73.7348 44.8796L73.7345 44.8794L73.5947 45.0867ZM43.7703 28.7121L43.5632 28.5721L43.563 28.5723L43.7703 28.7121ZM32.1419 45.9519L31.9346 45.8121L31.9345 45.8124L32.1419 45.9519ZM32.9918 50.2675L32.8518 50.4746L32.852 50.4748L32.9918 50.2675ZM58.4965 67.4707L58.3567 67.6779L58.357 67.6781L58.4965 67.4707ZM62.8163 66.642L63.0234 66.7821L63.0235 66.7818L62.8163 66.642ZM74.4447 49.4023L74.6519 49.5421L74.6521 49.5418L74.4447 49.4023ZM72.2222 47.1216L72.3624 46.9146L72.362 46.9143L72.2222 47.1216ZM46.7175 29.9184L46.8573 29.7112L46.8569 29.7109L46.7175 29.9184ZM72.3997 48.0229L72.607 48.1627L72.6072 48.1623L72.3997 48.0229ZM70.7032 50.5381L70.5634 50.7453L70.7707 50.8851L70.9105 50.6779L70.7032 50.5381ZM44.1187 32.6066L43.9115 32.4668L43.7717 32.6741L43.9789 32.8139L44.1187 32.6066ZM45.8152 30.0915L45.6082 29.9513L45.608 29.9517L45.8152 30.0915ZM59.8691 65.4358L59.7293 65.643L59.7297 65.6433L59.8691 65.4358ZM34.3644 48.2326L34.2242 48.4396L34.2246 48.4399L34.3644 48.2326ZM60.7713 65.2627L60.9783 65.4029L60.9786 65.4025L60.7713 65.2627ZM69.3306 52.573L69.5379 52.7128L69.6777 52.5055L69.4704 52.3657L69.3306 52.573ZM42.7462 34.6415L42.886 34.4343L42.6787 34.2945L42.5389 34.5017L42.7462 34.6415ZM34.1869 47.3312L33.9796 47.1914L33.9793 47.1918L34.1869 47.3312ZM47.9502 28.0908L73.455 45.2939L73.7345 44.8794L48.2298 27.6762L47.9502 28.0908ZM43.9774 28.8522C44.8589 27.5486 46.6359 27.2065 47.9505 28.0909L48.2296 27.6761C46.6882 26.639 44.6004 27.0382 43.5632 28.5721L43.9774 28.8522ZM32.3492 46.0917L43.9775 28.8519L43.563 28.5723L31.9346 45.8121L32.3492 46.0917ZM33.1319 50.0604C31.8193 49.1729 31.4709 47.3971 32.3493 46.0915L31.9345 45.8124C30.9009 47.3487 31.3128 49.4339 32.8518 50.4746L33.1319 50.0604ZM58.6363 67.2634L33.1316 50.0603L32.852 50.4748L58.3567 67.6779L58.6363 67.2634ZM62.6092 66.502C61.7277 67.8056 59.9507 68.1477 58.6361 67.2633L58.357 67.6781C59.8984 68.7151 61.9861 68.3159 63.0234 66.7821L62.6092 66.502ZM74.2374 49.2625L62.609 66.5022L63.0235 66.7818L74.6519 49.5421L74.2374 49.2625ZM73.4547 45.2938C74.7672 46.1813 75.1157 47.9571 74.2372 49.2627L74.6521 49.5418C75.6857 48.0055 75.2737 45.9202 73.7348 44.8796L73.4547 45.2938ZM72.362 46.9143L46.8573 29.7112L46.5777 30.1257L72.0824 47.3288L72.362 46.9143ZM72.6072 48.1623C72.8841 47.7502 72.773 47.1927 72.3624 46.9146L72.082 47.3286C72.2665 47.4535 72.3141 47.7019 72.1922 47.8835L72.6072 48.1623ZM70.9105 50.6779L72.607 48.1627L72.1924 47.8831L70.4959 50.3983L70.9105 50.6779ZM43.9789 32.8139L70.5634 50.7453L70.843 50.3308L44.2585 32.3994L43.9789 32.8139ZM45.608 29.9517L43.9115 32.4668L44.326 32.7464L46.0225 30.2313L45.608 29.9517ZM46.8569 29.7109C46.4452 29.4344 45.8866 29.5402 45.6082 29.9513L46.0222 30.2317C46.1449 30.0506 46.3931 30.0017 46.578 30.1259L46.8569 29.7109ZM60.0089 65.2285L34.5042 48.0253L34.2246 48.4399L59.7293 65.643L60.0089 65.2285ZM60.5643 65.1225C60.4417 65.3036 60.1935 65.3525 60.0085 65.2282L59.7297 65.6433C60.1413 65.9198 60.6999 65.8139 60.9783 65.4029L60.5643 65.1225ZM69.1234 52.4332L60.5641 65.1229L60.9786 65.4025L69.5379 52.7128L69.1234 52.4332ZM42.6064 34.8488L69.1908 52.7803L69.4704 52.3657L42.886 34.4343L42.6064 34.8488ZM34.3941 47.471L42.9534 34.7813L42.5389 34.5017L33.9796 47.1914L34.3941 47.471ZM34.5046 48.0256C34.3201 47.9007 34.2724 47.6522 34.3944 47.4706L33.9793 47.1918C33.7025 47.6039 33.8136 48.1615 34.2242 48.4396L34.5046 48.0256Z" fill="white"/>
<path d="M38.1765 67.5761H78.1765" stroke="#637719" stroke-width="2" stroke-linecap="round" stroke-linejoin="round"/>
<path d="M52.9772 52.0919L42.2551 45.1289C41.663 44.7444 40.8781 44.902 40.5021 45.481C40.1261 46.0599 40.3014 46.841 40.8935 47.2256L51.6156 54.1886C52.2077 54.5731 52.9926 54.4155 53.3686 53.8365C53.7446 53.2575 53.5693 52.4764 52.9772 52.0919Z" fill="#556B05" stroke="white"/>
</svg>
