<svg width="64" height="65" viewBox="0 0 64 65" fill="none" xmlns="http://www.w3.org/2000/svg">
<path d="M48.112 48.4858C50.3975 46.2011 51.0211 42.7671 49.7682 39.8519C52.7152 38.6774 54.7023 35.808 54.7023 32.576C54.7023 29.3441 52.7152 26.4747 49.7682 25.3002C51.0211 22.385 50.3975 18.951 48.112 16.6663C45.8273 14.3815 42.3941 13.758 39.4785 15.0097C38.3036 12.0631 35.4343 10.076 32.2023 10.076C28.9703 10.076 26.101 12.0631 24.9261 15.0097C22.0128 13.7587 18.5784 14.38 16.2925 16.6663C14.007 18.951 13.3834 22.385 14.6363 25.3002C11.6894 26.4747 9.70227 29.3441 9.70227 32.576C9.70227 35.808 11.6894 38.6774 14.6363 39.8519C13.3834 42.7671 14.007 46.2011 16.2925 48.4858C18.5772 50.7705 22.0105 51.3949 24.9261 50.1424C26.101 53.089 28.9703 55.076 32.2023 55.076C35.4343 55.076 38.3036 53.089 39.4785 50.1424C42.3914 51.3934 45.8265 50.7713 48.112 48.4858Z" fill="#5E7407" stroke="#5E7400" stroke-width="0.5"/>
<path d="M0.702271 21.2983C0.702271 21.7282 1.05052 22.076 1.48005 22.076C1.90957 22.076 2.25783 21.7282 2.25783 21.2983V2.63161H20.9245C21.354 2.63161 21.7023 2.28373 21.7023 1.85383C21.7023 1.42392 21.354 1.07605 20.9245 1.07605H1.48005C1.05052 1.07605 0.702271 1.42392 0.702271 1.85383V21.2983Z" fill="#5E740F" stroke="#5E7400" stroke-width="0.5"/>
<path d="M62.9245 43.076C62.495 43.076 62.1467 43.4231 62.1467 43.852V62.5242H43.48C43.0505 62.5242 42.7023 62.8712 42.7023 63.3001C42.7023 63.729 43.0505 64.076 43.48 64.076H62.9245C63.354 64.076 63.7023 63.729 63.7023 63.3001V43.852C63.7023 43.4231 63.354 43.076 62.9245 43.076Z" fill="#5E740F" stroke="#5E7400" stroke-width="0.5"/>
<path d="M62.9245 22.076C63.354 22.076 63.7023 21.7273 63.7023 21.2964V1.85572C63.7023 1.42477 63.354 1.07605 62.9245 1.07605H43.48C43.0505 1.07605 42.7023 1.42477 42.7023 1.85572C42.7023 2.28667 43.0505 2.63538 43.48 2.63538H62.1467V21.2964C62.1467 21.7273 62.495 22.076 62.9245 22.076Z" fill="#5E740F" stroke="#5E7400" stroke-width="0.5"/>
<path d="M20.9264 62.5242H2.25409V43.852C2.25409 43.4231 1.90668 43.076 1.47818 43.076C1.04969 43.076 0.702271 43.4231 0.702271 43.852V63.3001C0.702271 63.729 1.04969 64.076 1.47818 64.076H20.9264C21.3549 64.076 21.7023 63.729 21.7023 63.3001C21.7023 62.8712 21.3549 62.5242 20.9264 62.5242Z" fill="#5E740F" stroke="#5E7400" stroke-width="0.5"/>
<path fill-rule="evenodd" clip-rule="evenodd" d="M39.4142 48.358C39.203 48.2348 38.9463 48.218 38.7198 48.3113C38.4937 48.4047 38.3246 48.599 38.2622 48.8355C37.5369 51.587 35.0452 53.509 32.2023 53.509C29.3593 53.509 26.8676 51.587 26.1423 48.8355C26.0799 48.599 25.9108 48.4047 25.6847 48.3113C25.5883 48.2716 25.4865 48.2517 25.3848 48.2517C25.2478 48.2517 25.1116 48.2876 24.9903 48.358C22.5315 49.7919 19.4105 49.3871 17.4004 47.3779C15.3904 45.3678 14.9872 42.2468 16.4203 39.7883C16.5435 39.5764 16.5607 39.3201 16.467 39.0936C16.3732 38.8679 16.1796 38.698 15.9428 38.636C13.191 37.9107 11.2693 35.4186 11.2693 32.576C11.2693 29.7335 13.191 27.2414 15.9428 26.5161C16.1796 26.4541 16.3732 26.2842 16.467 26.0585C16.5607 25.832 16.5435 25.5757 16.4203 25.3637C14.9872 22.9053 15.3904 19.7843 17.4004 17.7742C19.4105 15.7634 22.5304 15.3609 24.9903 16.7941C25.2019 16.9165 25.4582 16.9341 25.6847 16.8407C25.9108 16.7474 26.0799 16.553 26.1423 16.3166C26.8676 13.5651 29.3593 11.6431 32.2023 11.6431C35.0452 11.6431 37.5369 13.5651 38.2622 16.3166C38.3246 16.553 38.4937 16.7474 38.7198 16.8407C38.9463 16.9341 39.203 16.9165 39.4142 16.7941C41.8722 15.3602 44.994 15.7649 47.0041 17.7742C49.0141 19.7843 49.4174 22.9053 47.9842 25.3637C47.8611 25.5757 47.8438 25.832 47.9376 26.0585C48.0313 26.2842 48.2249 26.4541 48.4617 26.5161C51.2136 27.2414 53.1352 29.7335 53.1352 32.576C53.1352 35.4186 51.2136 37.9107 48.4617 38.636C48.2249 38.698 48.0313 38.8679 47.9376 39.0936C47.8438 39.3201 47.8611 39.5764 47.9842 39.7883C49.4174 42.2468 49.0141 45.3678 47.0041 47.3779C44.9933 49.3879 41.8722 49.7904 39.4142 48.358Z" fill="#E6E687"/>
<path d="M32.7023 24.076C27.7397 24.076 23.7023 28.1131 23.7023 33.076C23.7023 38.039 27.7397 42.076 32.7023 42.076C37.6648 42.076 41.7023 38.039 41.7023 33.076C41.7023 28.1131 37.6648 24.076 32.7023 24.076Z" fill="#5E7405"/>
<path fill-rule="evenodd" clip-rule="evenodd" d="M32.7023 40.5012C28.6079 40.5012 25.2771 37.17 25.2771 33.076C25.2771 28.982 28.6079 25.6509 32.7023 25.6509C36.7967 25.6509 40.1274 28.982 40.1274 33.076C40.1274 37.17 36.7967 40.5012 32.7023 40.5012Z" fill="white"/>
<path d="M31.7023 20.076C32.2545 20.076 32.7023 19.7879 32.7023 19.4318V17.7203C32.7023 17.3642 32.2545 17.076 31.7023 17.076C31.15 17.076 30.7023 17.3642 30.7023 17.7203V19.4318C30.7023 19.7879 31.15 20.076 31.7023 20.076Z" fill="#E57E7A"/>
<path d="M23.3819 24.8494C23.5329 25.0005 23.7308 25.076 23.9288 25.076C24.1267 25.076 24.3246 25.0005 24.4757 24.8494C24.7778 24.5472 24.7778 24.0577 24.4757 23.7555L23.0227 22.3027C22.7205 22.0005 22.231 22.0005 21.9289 22.3027C21.6267 22.6049 21.6267 23.0944 21.9289 23.3966L23.3819 24.8494Z" fill="#E57E7A"/>
<path d="M19.0579 31.076H17.3466C16.9908 31.076 16.7023 31.5233 16.7023 32.076C16.7023 32.6288 16.9908 33.076 17.3466 33.076H19.0579C19.4138 33.076 19.7023 32.6288 19.7023 32.076C19.7023 31.5233 19.4138 31.076 19.0579 31.076Z" fill="#E57E7A"/>
<path d="M23.3819 40.3027L21.9289 41.7555C21.6267 42.0577 21.6267 42.5472 21.9289 42.8494C22.08 43.0005 22.2779 43.076 22.4758 43.076C22.6737 43.076 22.8716 43.0005 23.0227 42.8494L24.4757 41.3966C24.7778 41.0944 24.7778 40.6049 24.4757 40.3027C24.1735 40.0005 23.684 40.0005 23.3819 40.3027Z" fill="#E57E7A"/>
<path d="M31.7023 45.076C31.15 45.076 30.7023 45.3642 30.7023 45.7203V47.4318C30.7023 47.7879 31.15 48.076 31.7023 48.076C32.2545 48.076 32.7023 47.7879 32.7023 47.4318V45.7203C32.7023 45.3642 32.2545 45.076 31.7023 45.076Z" fill="#E57E7A"/>
<path d="M41.0227 40.3027C40.7205 40.0005 40.231 40.0005 39.9289 40.3027C39.6267 40.6049 39.6267 41.0944 39.9289 41.3966L41.3819 42.8494C41.5329 43.0005 41.7308 43.076 41.9288 43.076C42.1267 43.076 42.3246 43.0005 42.4757 42.8494C42.7778 42.5472 42.7778 42.0577 42.4757 41.7555L41.0227 40.3027Z" fill="#E57E7A"/>
<path d="M47.7023 32.076C47.7023 31.5233 47.4138 31.076 47.0579 31.076H45.3466C44.9908 31.076 44.7023 31.5233 44.7023 32.076C44.7023 32.6288 44.9908 33.076 45.3466 33.076H47.0579C47.4138 33.076 47.7023 32.6288 47.7023 32.076Z" fill="#E57E7A"/>
<path d="M41.3819 22.3027L39.9289 23.7555C39.6267 24.0577 39.6267 24.5472 39.9289 24.8494C40.08 25.0005 40.2779 25.076 40.4758 25.076C40.6737 25.076 40.8716 25.0005 41.0227 24.8494L42.4757 23.3966C42.7778 23.0944 42.7778 22.6049 42.4757 22.3027C42.1735 22.0005 41.684 22.0005 41.3819 22.3027Z" fill="#E57E7A"/>
</svg>
