<svg width="19" height="20" viewBox="0 0 19 20" fill="none" xmlns="http://www.w3.org/2000/svg">
<path fill-rule="evenodd" clip-rule="evenodd" d="M2.22656 0.692383H16.7734C18.0012 0.692383 19 1.66561 19 2.86185V17.0357C19 18.232 18.0012 19.2052 16.7734 19.2052H2.22656C0.998836 19.2052 0 18.232 0 17.0357V2.86185C0 1.66561 0.998836 0.692383 2.22656 0.692383ZM16.7734 17.7589C17.1827 17.7589 17.5156 17.4345 17.5156 17.0357V2.86185C17.5156 2.4631 17.1827 2.13869 16.7734 2.13869H2.22656C1.81732 2.13869 1.48438 2.4631 1.48438 2.86185V17.0357C1.48438 17.4345 1.81732 17.7589 2.22656 17.7589H10.243V11.8652H8.01562V9.62337H10.243V8.07488C10.243 6.23357 11.7665 4.74206 13.6562 4.74206H15.1777V6.98385H13.6562C13.0263 6.98385 12.543 7.45481 12.543 8.06859V9.62337H15.2148L14.836 11.8652H12.543V17.7589H16.7734Z" fill="#5C5C5C"/>
</svg>
