<?xml version="1.0" encoding="UTF-8"?>
<svg width="111px" height="111px" viewBox="0 0 111 111" version="1.1" xmlns="http://www.w3.org/2000/svg" xmlns:xlink="http://www.w3.org/1999/xlink">
    <title>Group 37</title>
    <defs>
        <linearGradient x1="19.4071262%" y1="100%" x2="118.658732%" y2="-74.8357185%" id="linearGradient-1">
            <stop stop-color="#C9CF93" offset="0%"></stop>
            <stop stop-color="#BAE7B0" stop-opacity="0" offset="100%"></stop>
        </linearGradient>
        <polygon id="path-2" points="0 0 44.7691545 0 44.7691545 60.5776924 0 60.5776924"></polygon>
    </defs>
    <g id="Home" stroke="none" stroke-width="1" fill="none" fill-rule="evenodd">
        <g id="Home-B2B-KeyVisual---Vs-Final" transform="translate(-218.000000, -1645.000000)">
            <g id="Group-34" transform="translate(79.000000, 1594.000000)">
                <g id="Group-37" transform="translate(139.000000, 51.000000)">
                    <circle id="Oval" fill="url(#linearGradient-1)" opacity="0.335100446" style="mix-blend-mode: multiply;" cx="55.1157" cy="55.1157" r="55.1157"></circle>
                    <g id="Group-31" transform="translate(25.000000, 23.000000)">
                        <g id="Group-28" transform="translate(44.769155, 42.120427) rotate(19.000000) translate(-44.769155, -42.120427) translate(25.718450, 17.037476)">
                            <g id="Group-25" transform="translate(0.000000, -0.000000)">
                                <g id="Group-19" transform="translate(-0.000000, 0.000000)" fill="#82992F">
                                    <g id="Group-9" transform="translate(-0.000000, 0.000000)">
                                        <path d="M15.1100735,6.23248667 L16.4473698,6.2529273 C17.2886631,6.26575279 18.096353,6.51053928 18.8482049,6.98057345 L19.1514408,7.17005002 L19.4546766,6.98057345 C20.1532056,6.5440058 20.9031459,6.30132348 21.6834702,6.25954044 L22.9508431,6.19150522 L19.0508316,2.26430015 L15.1100735,6.23248667 Z M16.0876922,41.3730263 C15.6047685,41.6469707 15.2374446,41.8564871 14.9521172,42.0191103 C14.5087329,42.2720129 14.2644539,42.4112897 14.0977446,42.5010682 L13.8656394,42.6261167 L12.6629582,48.295885 L25.4419246,48.295885 L24.2583591,42.6365374 L24.0233362,42.5112885 C23.835499,42.4111895 23.6221071,42.2893474 23.197436,42.0466651 C22.9145232,41.8851441 22.5387482,41.6704173 22.0141723,41.3729261 L20.7197355,40.6386668 L21.9538068,44.3259951 C22.0501904,44.6141678 22.0032059,44.9209776 21.8247254,45.1675677 C21.6455405,45.4150595 21.36796,45.5570417 21.0630138,45.5570417 C20.6584646,45.5570417 20.3006986,45.3000309 20.1725226,44.9174706 L19.0509323,41.5664106 L17.9292413,44.9174706 C17.8011659,45.3000309 17.4432993,45.5570417 17.0387501,45.5570417 C16.9384428,45.5570417 16.8384374,45.5407093 16.741752,45.5086455 C16.2507796,45.3456215 15.9844672,44.8151673 16.1480577,44.3259951 L17.3822296,40.6383662 L16.0876922,41.3730263 Z M11.5052492,50.1659015 C11.221129,50.1659015 10.955521,50.0396506 10.7762356,49.8194129 C10.5971513,49.5994758 10.5280329,49.3144093 10.5867886,49.0376592 L11.8512439,43.0765118 L11.2654976,42.9780161 C8.91647619,42.5827305 7.8340228,40.7983842 7.6042316,39.2604276 C7.374541,37.7235732 7.88794928,35.7042599 10.0175423,34.6458564 L10.6449407,34.3341369 L0.204230485,21.1528399 C-0.0233473169,20.8656692 -0.0632891327,20.497237 0.0972830036,20.1673814 C0.258257576,19.8365238 0.573868348,19.6389311 0.941192202,19.6389311 L2.23190645,19.6389311 L1.90975608,18.8555743 C1.4294482,17.6873525 1.51858787,16.442278 2.16077581,15.349907 L2.32939667,15.0628364 L2.16077581,14.7758661 C1.41848181,13.5130563 1.41133856,12.0615716 2.14125764,10.7936517 C2.90729539,9.46290693 4.33956665,8.60299791 5.78994755,8.60299791 C6.48334553,8.60299791 7.15823142,8.79147249 7.79579134,9.1631111 L8.08423765,9.33114506 L8.37238214,9.1629107 C8.85590951,8.88054953 9.37153119,8.70480024 9.90475946,8.64037219 L10.1019533,8.61662499 L18.3833908,0.277351218 C18.5609659,0.098495754 18.7979003,0 19.0506304,0 C19.3035617,0 19.5406974,0.098495754 19.7182725,0.277251019 L27.9860271,8.60289771 L28.2009282,8.61762699 C28.8033755,8.65900923 29.3856004,8.84207306 29.9310024,9.16170831 L30.2195493,9.33074426 L30.5083981,9.16240971 C31.1463604,8.7906709 31.8213469,8.60209612 32.5144431,8.60209612 C33.9635161,8.60209612 35.39458,9.46180474 36.1605172,10.7923491 C36.8910399,12.061271 36.8843997,13.5132567 36.1422063,14.7758661 L35.9734848,15.0628364 L36.1422063,15.349907 C36.7843942,16.4423782 36.8734333,17.6873525 36.3931254,18.8555743 L36.0709751,19.6389311 L37.1604711,19.6389311 C37.5276943,19.6389311 37.8429027,19.8359226 38.0035754,20.1659786 C38.1646506,20.4968362 38.1251112,20.8657694 37.897634,21.1528399 L27.4571251,34.3341369 L28.0845235,34.6460568 C29.6076447,35.4028609 30.5537728,36.9216795 30.5537728,38.6097344 C30.5537728,40.7715308 28.9961426,42.6077803 26.8500497,42.9759119 L26.268026,43.0757102 L27.5157802,49.0402644 C27.5735298,49.3167138 27.5039083,49.6011792 27.3246229,49.8206153 C27.145438,50.0401516 26.8801318,50.1659015 26.5966154,50.1659015 L11.5052492,50.1659015 Z" id="Fill-1"></path>
                                    </g>
                                </g>
                                <g id="Group-20" transform="translate(3.490427, 8.125248)">
                                    <path d="M12.597265,33.2477778 C12.1143412,33.5217223 11.7470174,33.7312387 11.46169,33.8938619 C11.0183056,34.1467645 10.7740267,34.2860413 10.6073174,34.3758198 L10.3752122,34.5008683 L9.17253092,40.1706366 L21.9514974,40.1706366 L20.7679318,34.511289 L20.532909,34.3860401 C20.3450718,34.2859411 20.1316798,34.164099 19.7070088,33.9214167 C19.424096,33.7598956 19.048321,33.5451689 18.5237451,33.2476776 L17.2293083,32.5134184 L18.4633796,36.2007467 C18.5597631,36.4889194 18.5127787,36.7957292 18.3342981,37.0423193 C18.1551133,37.2898111 17.8775328,37.4317933 17.5725866,37.4317933 C17.1680373,37.4317933 16.8102714,37.1747825 16.6820953,36.7922222 L15.560505,33.4411622 L14.4388141,36.7922222 C14.3107387,37.1747825 13.9528721,37.4317933 13.5483229,37.4317933 C13.4480156,37.4317933 13.3480101,37.4154608 13.2513248,37.3833971 C12.7603523,37.2203731 12.49404,36.6899189 12.6576304,36.2007467 L13.8918023,32.5131178 L12.597265,33.2477778 Z" id="Path" fill="#FFFFFF"></path>
                                    <path d="M22.6225601,27.9260012 C22.181188,27.9260012 21.7407213,28.0440357 21.3487482,28.2671792 L17.4525599,30.484486 L21.3488488,32.7018929 C21.7409225,32.9250364 22.1813892,33.0429708 22.6226607,33.0429708 C23.2787327,33.0429708 23.9282651,32.7810503 24.4048505,32.324543 C24.9082985,31.8421843 25.1855772,31.1887857 25.1854766,30.484486 C25.1854766,29.0737823 24.0358163,27.9260012 22.6225601,27.9260012 L22.6225601,27.9260012 Z" id="Path" fill="#FFFFFF"></path>
                                    <path d="M12.8667968,0 C12.1251064,0 11.3722485,0.326248398 10.8010905,0.894978713 C9.7854416,1.90648903 9.40886171,3.59434353 10.8575323,5.08510633 C11.2117769,5.44963079 11.2117769,6.02076589 10.8575323,6.38529036 C9.40886171,7.87615335 9.7854416,9.56400786 10.8011912,10.5755182 C11.3723491,11.1443487 12.1253076,11.4705971 12.8668974,11.4705971 C13.6222705,11.4705971 14.3627536,11.1415431 15.0082616,10.5193065 C15.1842269,10.3496693 15.4160303,10.2562837 15.6610135,10.2562837 C15.9059967,10.2562837 16.1378001,10.3496693 16.313866,10.5193065 C16.9594747,11.1415431 17.7000583,11.4705971 18.4552303,11.4705971 C19.1970212,11.4705971 19.9499798,11.1442485 20.5210371,10.575418 C21.536686,9.56390766 21.9132659,7.87605315 20.4645954,6.38529036 C20.1103507,6.02076589 20.1103507,5.44963079 20.4645954,5.08510633 C21.7188891,3.79424081 21.7415262,2.11039427 20.5210371,0.894978713 C19.9499798,0.326248398 19.1969206,0 18.4552303,0 C17.6999577,0 16.9594747,0.328853576 16.313866,0.951090231 C16.1378001,1.12082757 15.9059967,1.21431337 15.6611141,1.21431337 C15.4161309,1.21431337 15.1843276,1.12082757 15.0082616,0.951090231 C14.362653,0.328853576 13.6221699,0 12.8667968,0 L12.8667968,0 Z" id="Path" fill="#FFDE9E"></path>
                                    <path d="M29.0792502,11.5169893 L29.1510851,11.5125805 C30.013104,11.460477 30.8422236,10.8424487 31.1670905,10.0094932 C31.4887378,9.18495451 31.2749434,8.30230029 30.5807406,7.58768003 C30.2263953,7.22315556 30.2263953,6.65202047 30.5807406,6.287496 C31.3876256,5.45714573 31.7157119,4.13471749 30.6294354,3.05236638 C30.4660462,2.88954278 29.8680257,2.35878794 29.030656,2.35878794 C28.446419,2.35878794 27.8913585,2.6082838 27.3807673,3.10046197 C27.2047013,3.27009911 26.9729986,3.36358491 26.7280154,3.36358491 C26.4830322,3.36358491 26.2513294,3.27009911 26.0752635,3.10046197 C25.5640686,2.6076826 25.0081027,2.35778595 24.4230607,2.35778595 C24.1667087,2.35778595 23.9103567,2.40718413 23.6612486,2.50477809 L23.3040862,2.64455589 L23.2995588,3.0267154 C23.2894979,3.87049236 23.0438105,4.6801014 22.5690361,5.43319814 L22.3786837,5.73519834 L22.5690361,6.03729875 C23.4169696,7.38247219 23.5347829,8.918525 22.9008449,10.3623946 L22.7215595,10.7706059 L23.0770115,11.0412438 C23.4835729,11.3507589 23.9449662,11.5142839 24.4114907,11.5142839 C24.9980418,11.5141837 25.5733247,11.2584755 26.0752635,10.7746139 C26.2512288,10.6050769 26.4829316,10.5115911 26.7280154,10.5115911 C26.9729986,10.5115911 27.2047013,10.6050769 27.3807673,10.7747141 C27.883008,11.2588763 28.4462177,11.5148851 29.0093269,11.5148851 C29.0297506,11.5148851 29.0480614,11.5145845 29.0645613,11.5140835 L29.0792502,11.5169893 Z" id="Path" fill="#E6E681"></path>
                                    <path d="M2.29137097,2.35898834 C1.45440381,2.35898834 0.856182049,2.88944258 0.692792857,3.05206579 C-0.393785509,4.13441689 -0.065799817,5.45694533 0.741185838,6.287496 C1.09553112,6.65202047 1.09553112,7.22315556 0.741286447,7.58768003 C0.0467817748,8.30240049 -0.167113189,9.18535531 0.15443352,10.0102948 C0.478394848,10.8419477 1.30691085,11.4597756 2.16913091,11.5125805 L2.24146886,11.5170895 L2.25947789,11.5135825 C2.27104793,11.5136827 2.28372468,11.5138831 2.29740752,11.5138831 C2.87108065,11.5138831 3.43942151,11.2582751 3.94115913,10.7747141 C4.11712446,10.6049767 4.34892784,10.5115911 4.59391102,10.5115911 C4.8388942,10.5115911 5.07079819,10.6049767 5.24686413,10.7747141 C5.88100334,11.3859288 6.48083484,11.5141837 6.87230488,11.5141837 C6.880253,11.5141837 6.88779868,11.5141837 6.89494193,11.5140835 L6.90470101,11.5162879 L6.98106333,11.5131817 C7.42666107,11.4946449 7.86370703,11.3315207 8.24501555,11.0412438 L8.60056814,10.7706059 L8.4211821,10.3623946 C7.78724411,8.918525 7.90505737,7.38247219 8.75299094,6.03729875 L8.94334337,5.73519834 L8.75299094,5.43319814 C8.27851838,4.6805022 8.03273033,3.87119375 8.0224682,3.02791779 L8.01784018,2.64515708 L7.65987298,2.50567988 C7.41066422,2.40868711 7.15441282,2.35938914 6.89816142,2.35938914 C6.3125158,2.35938914 5.75695231,2.60878479 5.24676352,3.10046197 C5.07079819,3.27009911 4.8388942,3.36348471 4.59381041,3.36348471 C4.34892784,3.36348471 4.11712446,3.27009911 3.94105852,3.10046197 C3.4305679,2.608384 2.87550746,2.35898834 2.29137097,2.35898834 L2.29137097,2.35898834 Z" id="Path" fill="#E6E681"></path>
                                </g>
                                <path d="M13.0061358,34.2963618 L13.1836103,34.3466618 C13.7768016,34.5145956 14.0885892,34.6952546 15.4008338,35.4553653 C16.1576155,35.8937365 17.1940906,36.4941298 18.7720438,37.3741788 L19.050731,37.5296879 L19.3294183,37.3741788 C20.9051581,36.4954324 21.9411301,35.8952395 22.6977106,35.4570687 C24.012068,34.6956554 24.3244593,34.5146958 24.9178518,34.3466618 L25.0954269,34.296462 L35.2240476,21.5086471 L33.3960807,21.5087473 C30.6964365,21.5094487 20.1960651,21.5119536 12.5071146,21.5119536 C7.39053785,21.5119536 4.54732446,21.5108514 4.0562514,21.5086471 L2.8731889,21.5034367 L13.0061358,34.2963618 Z" id="Path" fill="#FFFFFF"></path>
                                <path d="M11.9900844,36.0487446 C11.5465995,36.0487446 11.1015048,36.1704865 10.7028915,36.4007442 C9.90123814,36.864065 9.42264062,37.6898061 9.42264062,38.6096342 C9.42264062,39.5295625 9.90123814,40.3553036 10.7027909,40.8186244 C11.1013036,41.0489822 11.5462977,41.1708244 11.989682,41.1708244 C12.4273316,41.1708244 12.8673959,41.051888 13.2622866,40.8271413 L17.1586761,38.6097344 L13.262186,36.3923274 C12.8672953,36.1674806 12.4273316,36.0487446 11.9900844,36.0487446 L11.9900844,36.0487446 Z" id="Path" fill="#FFFFFF"></path>
                            </g>
                            <g id="Group-27" transform="translate(7.358002, 13.001140)" fill="#82992F" stroke="#82992F" stroke-width="0.95">
                                <path d="M0.846697958,2.92885276 C0.379838994,2.92885276 4.55960905e-13,2.54739108 4.55960905e-13,2.07853767 C4.55960905e-13,1.60968427 0.379838994,1.22831372 0.846697958,1.22831372 C1.31355692,1.22831372 1.69339592,1.60968427 1.69339592,2.07853767 C1.69339592,2.54739108 1.31355692,2.92885276 0.846697958,2.92885276" id="Fill-3"></path>
                                <path d="M23.2154236,3.11543159 C22.7485647,3.11543159 22.3687257,2.73396991 22.3687257,2.2651165 C22.3687257,1.7962631 22.7485647,1.41489255 23.2154236,1.41489255 C23.6822826,1.41489255 24.0621216,1.7962631 24.0621216,2.2651165 C24.0621216,2.73396991 23.6822826,3.11543159 23.2154236,3.11543159" id="Fill-5"></path>
                                <path d="M10.9389012,0.850223954 C10.9389012,0.381370552 11.3187402,0 11.7855992,0 C12.2524581,0 12.6322971,0.381370552 12.6322971,0.850223954 C12.6322971,1.31907736 12.2524581,1.70053904 11.7855992,1.70053904 C11.3187402,1.70053904 10.9389012,1.31907736 10.9389012,0.850223954 Z" id="Fill-7"></path>
                            </g>
                        </g>
                        <g id="Group-30">
                            <g id="Group-3">
                                <mask id="mask-3" fill="white">
                                    <use xlink:href="#path-2"></use>
                                </mask>
                                <g id="Clip-2"></g>
                                <path d="M32.1316939,15.5755901 L43.9430386,15.5755901 L32.1316939,3.7027315 L32.1316939,15.5755901 Z M5.87342006,60.5777289 C4.21050339,60.5777289 2.85760561,59.2177852 2.85760561,57.546208 L2.85760561,3.0316426 C2.85760561,1.35994371 4.21050339,-1.34509498e-14 5.87342006,-1.34509498e-14 L31.0526199,-1.34509498e-14 C31.1918318,-1.34509498e-14 31.3310438,0.0288391786 31.466382,0.0855440614 C31.6005096,0.140788733 31.7169634,0.218910052 31.8174381,0.319908019 L47.3084566,15.8914826 C47.4135313,15.9950359 47.4899163,16.1097842 47.5416063,16.2388912 C47.6544285,16.5103689 47.6544285,16.8100773 47.5458432,17.0713335 C47.4360473,17.3372137 47.221782,17.5521082 46.9565531,17.663571 C46.8275097,17.716747 46.6881767,17.7448561 46.5475121,17.7448561 L32.9894814,17.7448561 C31.3265648,17.7448561 29.973667,16.3849124 29.973667,14.7133352 L29.973667,2.16926598 L5.01563251,2.16926598 L5.01563251,58.408463 L23.3051738,58.408463 C23.9001534,58.408463 24.3842478,58.8950785 24.3842478,59.4931568 C24.3842478,60.0912351 23.9001534,60.5777289 23.3051738,60.5777289 L5.87342006,60.5777289 Z" id="Fill-1" fill="#82992F" mask="url(#mask-3)"></path>
                            </g>
                            <path d="M11.5696696,23.2513702 C10.9938539,23.2513702 10.525352,22.8267156 10.525352,22.3047907 C10.525352,21.7828658 10.9938539,21.3583173 11.5696696,21.3583173 L22.8165273,21.3583173 C23.392343,21.3583173 23.8608449,21.7828658 23.8608449,22.3047907 C23.8608449,22.8267156 23.392343,23.2513702 22.8165273,23.2513702 L11.5696696,23.2513702 Z" id="Fill-7" fill="#82992F"></path>
                            <path d="M11.5696696,31.7701082 C10.9938539,31.7701082 10.525352,31.3454536 10.525352,30.8235287 C10.525352,30.3016038 10.9938539,29.8770553 11.5696696,29.8770553 L22.8165273,29.8770553 C23.392343,29.8770553 23.8608449,30.3016038 23.8608449,30.8235287 C23.8608449,31.3454536 23.392343,31.7701082 22.8165273,31.7701082 L11.5696696,31.7701082 Z" id="Fill-9" fill="#82992F"></path>
                        </g>
                    </g>
                </g>
            </g>
        </g>
    </g>
</svg>