<?xml version="1.0" encoding="UTF-8"?>
<svg width="42px" height="42px" viewBox="0 0 42 42" version="1.1" xmlns="http://www.w3.org/2000/svg" xmlns:xlink="http://www.w3.org/1999/xlink">
    <title>Icons/quickview</title>
    <defs>
        <filter color-interpolation-filters="auto" id="filter-1">
            <feColorMatrix in="SourceGraphic" type="matrix" values="0 0 0 0 0.498039 0 0 0 0 0.498039 0 0 0 0 0.498039 0 0 0 1.000000 0"></feColorMatrix>
        </filter>
    </defs>
    <g id="Symbols" stroke="none" stroke-width="1" fill="none" fill-rule="evenodd">
        <g id="Card/B2B-product/colors" transform="translate(-223.000000, -63.000000)">
            <g id="Icons/view-details" transform="translate(223.000000, 63.000000)">
                <rect id="Rectangle" stroke="#D7D7D7" fill-opacity="0.7" fill="#FFFFFF" x="0.5" y="0.5" width="41" height="41" rx="20.5"></rect>
                <g filter="url(#filter-1)" id="view">
                    <g transform="translate(11.000000, 14.000000)">
                        <path d="M10,13.6363636 C6.25665722,13.6363636 2.67250081,10.731524 0.30664351,7.71581849 C-0.102214503,7.19461501 -0.102214503,6.43803979 0.30664351,5.9168769 C0.901475534,5.15863728 2.14802484,3.69578445 3.81320812,2.41731563 C8.00732234,-0.802665586 11.9845567,-0.808876672 16.1867919,2.41731563 C18.1430599,3.91922116 19.6933565,5.88870374 19.6933565,5.9168769 C20.1022145,6.43803979 20.1022145,7.19461501 19.6933565,7.71577789 C17.3278456,10.731118 13.7441895,13.6363636 10,13.6363636 Z M10,1.29538241 C5.85314904,1.29538241 2.25844691,5.46659347 1.25552664,6.7450217 C1.22311974,6.78634775 1.22311974,6.84634765 1.25552664,6.8876737 C2.2584854,8.16610192 5.85314904,12.337313 10,12.337313 C14.146851,12.337313 17.7415531,8.16610192 18.7444734,6.8876737 C18.8029366,6.81310007 18.7406246,6.7450217 18.7444734,6.7450217 C17.7415146,5.46659347 14.146851,1.29538241 10,1.29538241 Z" id="Shape" fill="#000000" fill-rule="nonzero"></path>
                        <path d="M10,11.363025 C7.62309665,11.363025 5.68934412,9.32339368 5.68934412,6.8163477 C5.68934412,4.30930172 7.62309665,2.2696704 10,2.2696704 C12.3769034,2.2696704 14.3106559,4.30930172 14.3106559,6.8163477 C14.3106559,9.32339368 12.3769034,11.363025 10,11.363025 Z M10,3.56872106 C8.30221739,3.56872106 6.92096008,5.02560637 6.92096008,6.8163477 C6.92096008,8.60708903 8.30221739,10.0639743 10,10.0639743 C11.6977826,10.0639743 13.0790399,8.60708903 13.0790399,6.8163477 C13.0790399,5.02560637 11.6977826,3.56872106 10,3.56872106 Z" id="Shape" fill="#000000" fill-rule="nonzero"></path>
                    </g>
                </g>
            </g>
        </g>
    </g>
</svg>