<?xml version="1.0" encoding="UTF-8"?>
<svg width="111px" height="110px" viewBox="0 0 111 110" version="1.1" xmlns="http://www.w3.org/2000/svg" xmlns:xlink="http://www.w3.org/1999/xlink">
    <title>Group 38</title>
    <defs>
        <linearGradient x1="19.4071262%" y1="100%" x2="118.658732%" y2="-74.8357185%" id="linearGradient-1">
            <stop stop-color="#C9CF93" offset="0%"></stop>
            <stop stop-color="#BAE7B0" stop-opacity="0" offset="100%"></stop>
        </linearGradient>
    </defs>
    <g id="Home" stroke="none" stroke-width="1" fill="none" fill-rule="evenodd">
        <g id="Home-B2B-KeyVisual---Vs-Final" transform="translate(-1063.000000, -1645.000000)">
            <g id="Group-34" transform="translate(79.000000, 1594.000000)">
                <g id="Group-3" transform="translate(844.000000, 0.000000)">
                    <g id="Group-36" transform="translate(79.702243, 51.000000)">
                        <g id="Group-38" transform="translate(61.000000, 0.000000)">
                            <g id="Group-33" fill="url(#linearGradient-1)" opacity="0.335100446">
                                <g id="Icons/custom-products">
                                    <circle id="Oval" style="mix-blend-mode: multiply;" cx="55" cy="53.5" r="53.5"></circle>
                                </g>
                            </g>
                            <g id="Group-5" transform="translate(26.757009, 20.644860)" fill="#82992F">
                                <path d="M18.7284749,1.9133598 C16.2196284,1.9133598 14.2543159,3.87956665 14.2543159,6.3895549 C14.2543159,8.89954315 16.2196284,10.86575 18.7284749,10.86575 L23.2026338,10.86575 L23.2026338,6.3895549 C23.2026338,3.87956665 21.2373213,1.9133598 18.7284749,1.9133598 L18.7284749,1.9133598 Z M29.5892822,1.9133598 C27.0804357,1.9133598 25.1151232,3.87956665 25.1151232,6.3895549 L25.1151232,10.86575 L29.5892822,10.86575 C32.0981286,10.86575 34.0634411,8.89954315 34.0634411,6.3895549 C34.0634411,3.87956665 32.0981286,1.9133598 29.5892822,1.9133598 L29.5892822,1.9133598 Z M2.43726389,23.6448598 C1.11607137,23.6448598 0,22.5282805 0,21.2064867 L0,13.3041231 C0,11.9823293 1.11607137,10.86575 2.43726389,10.86575 L14.0798025,10.86575 L13.5001069,10.0392122 C12.7423188,8.95881088 12.3418265,7.69677871 12.3418265,6.3895549 C12.3418265,2.86633546 15.2068581,0 18.7284749,0 C20.6892208,0 22.5181561,0.89654785 23.7462912,2.45985763 L24.1588785,2.98511787 L24.5714658,2.45985763 C25.7996009,0.89654785 27.6285362,0 29.5892822,0 C33.1108989,0 35.9759305,2.86633546 35.9759305,6.3895549 C35.9759305,9.91277434 31.255986,11.8224299 32.6675156,12.7791098 L1.91248943,12.7791098 L1.91248943,21.7315 L46.4052676,21.7315 L46.4052676,12.7791098 L33.2089534,12.7792333 C32.5081845,12.7792333 32.2594967,12.263851 32.2594967,11.8223064 C32.2594967,11.3810088 32.5081845,10.8655031 33.2089534,10.8655031 L45.8804931,10.86575 C47.2015622,10.86575 48.317757,11.9823293 48.317757,13.3041231 L48.317757,21.2064867 C48.317757,22.5282805 47.2015622,23.6448598 45.8804931,23.6448598 L2.43726389,23.6448598 Z" id="Fill-1"></path>
                                <path d="M6.04689502,51.4018692 C3.84639501,51.4018692 2.05597326,49.4982854 2.05597326,47.1584359 L2.05597326,22.6695581 C2.04838563,22.0910782 2.47853021,23.653815 3.01489109,23.6448598 L3.04531044,23.6448598 C3.58116852,23.6531467 4.0116902,22.0985631 4.00402251,22.6695581 L4.00402251,47.1584359 C4.00402251,48.3969282 4.88228674,49.330676 6.04689502,49.330676 L41.2428281,49.330676 C42.407562,49.330676 43.2857006,48.3969282 43.2857006,47.1584359 L43.2855749,24.6681597 C43.2932426,24.1031795 43.7297978,23.6451271 44.2592452,23.6451271 L44.2733236,23.6452608 C44.8104387,23.6532804 45.2412117,24.1244314 45.2336449,24.6954263 L45.2336449,47.1584359 C45.2336449,49.4982854 43.4433281,51.4018692 41.2428281,51.4018692 L6.04689502,51.4018692 Z" id="Fill-3"></path>
                            </g>
                            <g id="Group-31" transform="translate(53.485981, 46.345794)">
                                <path d="M35.9767461,35.9767461 C38.1174768,33.8367321 38.7015731,30.620261 37.5280054,27.8897006 C40.2883082,26.7895928 42.1495327,24.1020333 42.1495327,21.0747664 C42.1495327,18.0474994 40.2883082,15.3599399 37.5280054,14.2598322 C38.7015731,11.5292718 38.1174768,8.31280066 35.9767461,6.17278665 C33.8367321,4.03277265 30.6209776,3.44867635 27.8900588,4.621169 C26.7895928,1.86122451 24.1020333,0 21.0747664,0 C18.0474994,0 15.3599399,1.86122451 14.2594739,4.62116892 C11.5307052,3.44939298 8.31387565,4.03133923 6.17278658,6.17278658 C4.03205587,8.31280058 3.44795964,11.5292718 4.62152728,14.2598322 C1.86122451,15.3599399 0,18.0474994 0,21.0747664 C0,24.1020333 1.86122451,26.7895928 4.62152728,27.8897005 C3.44795964,30.6202609 4.03205587,33.8367321 6.17278658,35.9767461 C8.31280058,38.1167601 11.5285551,38.701573 14.2594739,37.5283637 C15.3599399,40.2883082 18.0474994,42.1495327 21.0747664,42.1495327 C24.1020333,42.1495327 26.7895928,40.2883082 27.8900588,37.5283638 C30.6184692,38.7001397 33.8360154,38.1174768 35.9767461,35.9767461 L35.9767461,35.9767461 Z" id="Shape" stroke="#82992F" stroke-width="0.5" fill="#82992F" fill-rule="nonzero"></path>
                                <path d="M27.8298575,35.8570601 C27.6320531,35.7416742 27.3916061,35.7259072 27.179468,35.8133425 C26.9676884,35.9007777 26.8093015,36.0828151 26.7508919,36.30427 C26.071477,38.8814604 23.7376003,40.6817669 21.0747664,40.6817669 C18.4119324,40.6817669 16.0780558,38.8814604 15.3986408,36.30427 C15.3402312,36.0828151 15.1818443,35.9007777 14.9700646,35.8133425 C14.8797626,35.776075 14.7844438,35.7574412 14.689125,35.7574412 C14.5608389,35.7574412 14.4332694,35.7911253 14.3196752,35.8570601 C12.0166159,37.2001231 9.09326788,36.8209981 7.21054288,34.9389898 C5.32781787,33.0562648 4.95012621,30.1329168 6.29247253,27.8302158 C6.40785845,27.6316948 6.42398376,27.3916062 6.33619016,27.179468 C6.24839655,26.9680467 6.06707589,26.8089432 5.84526264,26.7508919 C3.26771396,26.071477 1.46776581,23.7372419 1.46776581,21.0747664 C1.46776581,18.4122908 3.26771396,16.0780558 5.84526271,15.3986408 C6.06707596,15.3405894 6.24839663,15.181486 6.33619023,14.9700646 C6.42398384,14.7579266 6.40785845,14.5178379 6.29247261,14.3193168 C4.95012621,12.0166159 5.32781795,9.09326781 7.21054295,7.21054288 C9.09326795,5.32710124 12.015541,4.95012621 14.3196752,6.29247253 C14.5178379,6.40714174 14.7579266,6.42362541 14.9700647,6.33619016 C15.1818443,6.24875491 15.3402312,6.06671753 15.3986408,5.84526264 C16.0780558,3.26807232 18.4119324,1.46776581 21.0747664,1.46776581 C23.7376003,1.46776581 26.071477,3.26807232 26.750892,5.84526271 C26.8093015,6.0667176 26.9676885,6.24875498 27.1794681,6.33619023 C27.3916062,6.42362548 27.6320531,6.40714181 27.8298575,6.29247261 C30.1322001,4.94940957 33.0562648,5.32853458 34.9389898,7.21054295 C36.8217148,9.09326795 37.1994065,12.0166159 35.8570602,14.3193169 C35.7416743,14.5178379 35.7255489,14.7579266 35.8133426,14.9700647 C35.9011362,15.181486 36.0824568,15.3405895 36.3042701,15.3986408 C38.8818188,16.0780558 40.681767,18.4122908 40.681767,21.0747664 C40.681767,23.737242 38.8818188,26.071477 36.3042701,26.750892 C36.0824568,26.8089433 35.9011362,26.9680468 35.8133426,27.1794682 C35.7255489,27.3916062 35.7416743,27.6316948 35.8570602,27.830216 C37.1994066,30.1329169 36.8217148,33.056265 34.9389898,34.9389899 C33.0555481,36.8217148 30.1322001,37.1986898 27.8298575,35.8570601 L27.8298575,35.8570601 Z" id="Path" fill="#E6E687"></path>
                                <g id="Group-60" transform="translate(13.113188, 13.113188)">
                                    <path d="M8.42990654,0 C3.78171772,0 0,3.78135758 0,8.42990654 C0,13.0784555 3.78171772,16.8598131 8.42990654,16.8598131 C13.0780954,16.8598131 16.8598131,13.0784555 16.8598131,8.42990654 C16.8598131,3.78135758 13.0780954,0 8.42990654,0 Z" id="Shape" fill="#82992F" fill-rule="nonzero"></path>
                                    <path d="M8.42990654,15.3847235 C4.5948897,15.3847235 1.47508959,12.2645632 1.47508959,8.42990654 C1.47508959,4.59524984 4.5948897,1.47508959 8.42990654,1.47508959 C12.2649234,1.47508959 15.3847235,4.59524977 15.3847235,8.42990654 C15.3847235,12.2645633 12.2649234,15.3847235 8.42990654,15.3847235 Z" id="Path" fill="#FFFFFF"></path>
                                </g>
                                <g id="Group-29" transform="translate(6.556594, 6.556594)" fill="#E57E7A" fill-rule="nonzero">
                                    <path d="M14.0498442,2.80996885 C14.567109,2.80996885 14.9865005,2.54005155 14.9865005,2.2064856 L14.9865005,0.603483242 C14.9865005,0.269917294 14.567109,0 14.0498442,0 C13.5325795,0 13.113188,0.269917294 13.113188,0.603483242 L13.113188,2.2064856 C13.113188,2.54005155 13.5325795,2.80996885 14.0498442,2.80996885 Z" id="Path"></path>
                                    <path d="M6.25648198,7.28096348 C6.39798866,7.42248798 6.58336242,7.49325026 6.76873611,7.49325026 C6.9541098,7.49325026 7.13948364,7.42248805 7.28099025,7.28096348 C7.5640036,6.9979145 7.5640036,6.53937514 7.28099025,6.25632616 L5.92004976,4.89556815 C5.63703641,4.61251917 5.17855478,4.61251917 4.89554143,4.89556815 C4.61252807,5.17861714 4.61252807,5.63715649 4.89554143,5.92020548 L6.25648198,7.28096348 Z" id="Path"></path>
                                    <path d="M2.20642231,13.113188 L0.603546536,13.113188 C0.270240315,13.113188 0,13.5321221 0,14.0498442 C0,14.5675664 0.270240315,14.9865005 0.603546536,14.9865005 L2.20642231,14.9865005 C2.53972853,14.9865005 2.80996885,14.5675664 2.80996885,14.0498442 C2.80996885,13.5321221 2.53972853,13.113188 2.20642231,13.113188 Z" id="Path"></path>
                                    <path d="M6.25648195,21.7553812 L4.89554143,23.1161392 C4.61252807,23.3991882 4.61252807,23.8577276 4.89554143,24.1407766 C5.03704811,24.2823011 5.22242188,24.3530633 5.40779558,24.3530633 C5.59316927,24.3530633 5.77854312,24.2823011 5.92004972,24.1407766 L7.28099024,22.7800186 C7.5640036,22.4969696 7.5640036,22.0384302 7.28099024,21.7553812 C6.99797688,21.4723323 6.53949531,21.4723323 6.25648195,21.7553812 L6.25648195,21.7553812 Z" id="Path"></path>
                                    <path d="M14.0498442,26.2263759 C13.5325795,26.2263759 13.113188,26.4962932 13.113188,26.8298592 L13.113188,28.4328615 C13.113188,28.7664275 13.5325795,29.0363448 14.0498442,29.0363448 C14.567109,29.0363448 14.9865005,28.7664275 14.9865005,28.4328615 L14.9865005,26.8298592 C14.9865005,26.4962932 14.567109,26.2263759 14.0498442,26.2263759 Z" id="Path"></path>
                                    <path d="M22.7798629,21.7553812 C22.4968495,21.4723323 22.0383679,21.4723323 21.7553545,21.7553812 C21.4723412,22.0384302 21.4723412,22.4969696 21.7553545,22.7800186 L23.116295,24.1407766 C23.2578017,24.2823011 23.4431755,24.3530633 23.6285492,24.3530633 C23.8139229,24.3530633 23.9992967,24.2823011 24.1408033,24.1407766 C24.4238167,23.8577276 24.4238167,23.3991882 24.1408033,23.1161392 L22.7798629,21.7553812 Z" id="Path"></path>
                                    <path d="M29.0363448,14.0498442 C29.0363448,13.5321221 28.7661044,13.113188 28.4327982,13.113188 L26.8299224,13.113188 C26.4966162,13.113188 26.2263759,13.5321221 26.2263759,14.0498442 C26.2263759,14.5675664 26.4966162,14.9865005 26.8299224,14.9865005 L28.4327982,14.9865005 C28.7661044,14.9865005 29.0363448,14.5675664 29.0363448,14.0498442 Z" id="Path"></path>
                                    <path d="M23.116295,4.89556815 L21.7553545,6.25632616 C21.4723412,6.53937514 21.4723412,6.9979145 21.7553545,7.28096348 C21.8968612,7.42248798 22.082235,7.49325026 22.2676087,7.49325026 C22.4529824,7.49325026 22.6383562,7.42248805 22.7798628,7.28096348 L24.1408033,5.92020548 C24.4238167,5.63715649 24.4238167,5.17861714 24.1408033,4.89556815 C23.85779,4.61251917 23.3993084,4.61251917 23.116295,4.89556815 Z" id="Path"></path>
                                </g>
                            </g>
                        </g>
                    </g>
                </g>
            </g>
        </g>
    </g>
</svg>