<?xml version="1.0" encoding="UTF-8"?>
<svg width="110px" height="110px" viewBox="0 0 110 110" version="1.1" xmlns="http://www.w3.org/2000/svg" xmlns:xlink="http://www.w3.org/1999/xlink">
    <title>Group 33</title>
    <defs>
        <linearGradient x1="19.4071262%" y1="100%" x2="118.658732%" y2="-74.8357185%" id="linearGradient-1">
            <stop stop-color="#C9CF93" offset="0%"></stop>
            <stop stop-color="#BAE7B0" stop-opacity="0" offset="100%"></stop>
        </linearGradient>
    </defs>
    <g id="Home" stroke="none" stroke-width="1" fill="none" fill-rule="evenodd">
        <g id="Home-B2B-KeyVisual---Vs-Final" transform="translate(-641.000000, -1645.000000)">
            <g id="Group-34" transform="translate(79.000000, 1594.000000)">
                <g id="Group-33" transform="translate(562.000000, 51.000000)">
                    <g id="Group-6" fill="url(#linearGradient-1)" opacity="0.335100446">
                        <g id="Icons/custom-products">
                            <circle id="Oval" style="mix-blend-mode: multiply;" cx="55" cy="53.5" r="53.5"></circle>
                        </g>
                    </g>
                    <g id="Group-32" transform="translate(32.897196, 24.672897)">
                        <g id="Group-29">
                            <g id="Group-3" fill="#82992F">
                                <path d="M19.7489666,60.6542056 C17.5566494,60.6542056 15.7728536,58.8383124 15.7728536,56.6060488 C15.7728536,54.3739293 17.5566494,52.557892 19.7489666,52.557892 L25.4846783,52.557892 C27.1421114,52.557892 28.6420508,53.6221576 29.2169804,55.2062377 L29.316599,55.4806964 L29.6038516,55.4730605 C33.1435671,55.3775403 36.4738571,53.9198119 38.9811615,51.3685713 C41.3939414,48.9106897 42.8205819,45.6480177 42.9984521,42.1816268 L43.0176966,41.8054527 L42.6510605,41.7556036 C42.2432468,41.6999915 41.948919,41.6750669 41.6969009,41.6750669 C37.6808839,41.6750669 34.4137045,38.3485706 34.4137045,34.2597853 L34.4137045,32.2344102 C34.4137045,28.1454808 37.6808839,24.8189845 41.6969009,24.8189845 L43.0171306,24.8189845 L43.0171306,23.0306092 C43.0171306,17.4825108 40.8951408,12.2656356 37.0418531,8.3408051 C33.1868672,4.41741532 28.0630176,2.2569 22.6137093,2.2569 C17.1639766,2.2569 12.042674,4.4169831 8.19037676,8.33907623 C4.33807952,12.2614575 2.21651426,17.4757393 2.21651426,23.0213885 L2.21651426,24.8189845 L3.53688546,24.8189845 C7.55276101,24.8189845 10.8199404,28.1454808 10.8199404,32.2344102 L10.8199404,34.2597853 C10.8199404,38.3485706 7.55276101,41.6750669 3.53688546,41.6750669 L1.10825713,41.6750669 C0.497244069,41.6750669 0,41.1687952 0,40.5466889 L0,23.0213885 C0,16.8727948 2.35179181,11.0912984 6.62194954,6.74202953 C10.8935223,2.3944895 16.5717836,0 22.6107378,0 C28.6546446,0 34.3350284,2.39549801 38.6088652,6.7453432 C42.8808625,11.096341 45.2336449,16.8799984 45.2336449,23.0306092 C45.2315223,29.4941461 45.2255791,41.768282 45.2176549,42.1692365 L45.2175134,42.1729824 C45.0400678,46.2467841 43.3817857,50.0791199 40.5484567,52.9641772 C37.6200373,55.9454751 33.7275529,57.637898 29.5874371,57.7299605 L29.3136274,57.7360116 L29.219386,57.9977918 C28.6478524,59.5866264 27.1469225,60.6542056 25.4846783,60.6542056 L19.7489666,60.6542056 Z" id="Fill-1"></path>
                            </g>
                            <path d="M41.6967594,27.0758846 C38.9030515,27.0758846 36.6300772,29.3899814 36.6300772,32.2344102 L36.6300772,34.2597853 C36.6300772,37.1043581 38.9030515,39.418455 41.6967594,39.418455 L43.0171306,39.418455 L43.0171306,27.0758846 L41.6967594,27.0758846 Z" id="Path" fill="#E5E579"></path>
                            <path d="M19.7489666,54.8145039 C18.777119,54.8145039 17.9863962,55.6099296 17.9863962,56.5876075 C17.9863962,57.0205462 18.1440314,57.4651548 18.4186901,57.8073276 C18.7295738,58.1947393 19.1496983,58.4082551 19.6015197,58.4081111 C19.6588287,58.4081111 19.7168452,58.4045092 19.7744372,58.3975937 L25.4846783,58.3975937 C26.4548278,58.3975937 27.2441355,57.5938117 27.2441355,56.6060488 C27.2441355,55.6181418 26.4548278,54.8145039 25.4846783,54.8145039 L19.7489666,54.8145039 Z" id="Path" fill="#FFDE9A"></path>
                        </g>
                        <path d="M2.21651426,39.418455 L3.53688546,39.418455 C6.33059338,39.418455 8.60342612,37.1043581 8.60342612,34.2597853 L8.60342612,32.2344102 C8.60342612,29.3899814 6.33059338,27.0758846 3.53688546,27.0758846 L2.21651426,27.0758846 L2.21651426,39.418455 Z" id="Path" fill="#E5E579"></path>
                    </g>
                </g>
            </g>
        </g>
    </g>
</svg>