<svg width="19" height="20" viewBox="0 0 19 20" fill="none" xmlns="http://www.w3.org/2000/svg">
<path fill-rule="evenodd" clip-rule="evenodd" d="M9.49819 19.0511C9.56154 19.0514 9.62445 19.0514 9.68737 19.0514C11.1074 19.0514 12.424 19.0144 13.7056 18.9384C14.9326 18.8657 16.0526 18.4527 16.9447 17.7438C17.5696 17.2473 18.0551 16.6161 18.3878 15.8677C18.5506 15.5011 18.3778 15.0754 18.0016 14.9167C17.6255 14.7579 17.1885 14.9264 17.0256 15.2928C16.7883 15.8267 16.4454 16.2742 16.0066 16.6229C15.3476 17.1465 14.5432 17.4398 13.6155 17.4948C12.3086 17.5722 10.9635 17.6082 9.49833 17.6048C8.0371 17.6083 6.69139 17.5722 5.38454 17.4948C4.45677 17.4398 3.65237 17.1465 2.99336 16.6229C2.38422 16.1388 1.9647 15.4711 1.74653 14.638C1.53024 13.8122 1.51777 12.9254 1.50574 12.068C1.49632 11.3961 1.48646 10.6005 1.48443 9.79666C1.48646 8.98946 1.49632 8.19384 1.50574 7.52195C1.51777 6.66447 1.53024 5.77775 1.74653 4.95191C1.9647 4.11873 2.38422 3.45093 2.99336 2.9669C3.65237 2.44345 4.45677 2.15009 5.38454 2.09515C6.69139 2.01775 8.03681 1.98159 9.50181 1.98498C10.9633 1.98202 12.3086 2.01775 13.6155 2.09515C14.5432 2.15009 15.3478 2.44345 16.0066 2.96704C16.6158 3.45107 17.0353 4.11887 17.2535 4.95191C17.4698 5.77775 17.4822 6.66447 17.4943 7.52195C17.5037 8.19384 17.5137 8.98946 17.5156 9.79327C17.5137 10.6005 17.5037 11.3961 17.4943 12.068C17.4888 12.4673 17.8164 12.7955 18.2263 12.801C18.6344 12.8064 18.973 12.4872 18.9785 12.0877C18.9881 11.4119 18.9981 10.6111 19 9.79327C18.9981 8.97886 18.9881 8.17802 18.9785 7.50218C18.9654 6.56038 18.9516 5.58637 18.6918 4.59429C18.3933 3.45475 17.8056 2.53004 16.9447 1.84614C16.0526 1.13739 14.9326 0.724256 13.7056 0.651516C12.3673 0.572279 10.9916 0.535697 9.50181 0.538805C8.00926 0.535274 6.63283 0.572279 5.29452 0.651516C4.0674 0.724256 2.94741 1.13739 2.0553 1.84614C1.1945 2.53004 0.606674 3.45475 0.308194 4.59429C0.048418 5.58651 0.0346464 6.56038 0.0214547 7.50218C0.011887 8.17802 0.0020295 8.97886 0 9.79666C0.0020295 10.6111 0.011887 11.4119 0.0214547 12.0877C0.0346464 13.0297 0.048418 14.0036 0.308194 14.9956C0.606674 16.1352 1.1945 17.0599 2.0553 17.7438C2.94741 18.4525 4.0674 18.8657 5.29438 18.9384C6.63268 19.0178 8.00883 19.0546 9.49819 19.0511ZM9.46283 5.27522C12.0207 5.27522 14.1017 7.30274 14.1017 9.79496C14.1017 12.2872 12.0207 14.3147 9.46283 14.3147C6.90508 14.3147 4.82397 12.2872 4.82397 9.79496C4.82397 7.30274 6.90508 5.27522 9.46283 5.27522ZM12.6172 9.79496C12.6172 11.4896 11.2023 12.8684 9.46283 12.8684C7.72355 12.8684 6.30841 11.4896 6.30841 9.79496C6.30841 8.10033 7.72355 6.72153 9.46283 6.72153C11.2023 6.72153 12.6172 8.10033 12.6172 9.79496ZM13.5079 4.91364C13.5079 4.31449 14.0064 3.8289 14.6212 3.8289C15.2362 3.8289 15.7346 4.31449 15.7346 4.91364C15.7346 5.51278 15.2362 5.99837 14.6212 5.99837C14.0064 5.99837 13.5079 5.51278 13.5079 4.91364Z" fill="#5C5C5C"/>
</svg>
