<svg width="21" height="19" viewBox="0 0 21 19" fill="none" xmlns="http://www.w3.org/2000/svg">
<path fill-rule="evenodd" clip-rule="evenodd" d="M19.3544 15.3093C19.7665 15.3093 20.1005 15.6348 20.1005 16.0363C20.1005 17.6398 18.7617 18.9443 17.1161 18.9443H3.98446C2.33878 18.9443 1 17.6398 1 16.0363V3.24143C1 1.63795 2.33878 0.333496 3.98446 0.333496H17.1161C18.7617 0.333496 20.1005 1.63795 20.1005 3.24143V12.3651C20.1005 12.7666 19.7665 13.092 19.3544 13.092C18.9423 13.092 18.6083 12.7666 18.6083 12.3651V3.24143C18.6083 2.43976 17.9388 1.78746 17.1161 1.78746H3.98446C3.16169 1.78746 2.49223 2.43976 2.49223 3.24143V16.0363C2.49223 16.838 3.16169 17.4903 3.98446 17.4903H17.1161C17.9388 17.4903 18.6083 16.838 18.6083 16.0363C18.6083 15.6348 18.9423 15.3093 19.3544 15.3093ZM6.50071 3.25658C7.32825 3.25658 8 3.91132 8 4.71798C8 5.52491 7.32825 6.17965 6.50071 6.17965C5.67003 6.17965 5 5.52491 5 4.71798C5 3.91132 5.67003 3.25658 6.50071 3.25658ZM5.85714 14.9489H7.14286C7.61629 14.9489 8 14.6401 8 14.2591V7.84382C8 7.46281 7.61629 7.15401 7.14286 7.15401H5.85714C5.38371 7.15401 5 7.46281 5 7.84382V14.2591C5 14.6401 5.38371 14.9489 5.85714 14.9489ZM17 14.2711V10.735C17 8.67896 16.5297 7.15401 13.9289 7.15401C12.6792 7.15401 11.8403 7.73121 11.4978 8.33145H11.4954V7.96739C11.4954 7.593 11.1669 7.28957 10.7615 7.28957H9.73394C9.32856 7.28957 9 7.593 9 7.96739V14.2711C9 14.6455 9.32856 14.9489 9.73394 14.9489H10.7615C11.1669 14.9489 11.4954 14.6455 11.4954 14.2711V11.146C11.4954 10.15 11.7699 9.18521 13.1067 9.18521C14.4252 9.18521 14.4679 10.3241 14.4679 11.2093V14.2711C14.4679 14.6455 14.7964 14.9489 15.2018 14.9489H16.2661C16.6714 14.9489 17 14.6455 17 14.2711Z" fill="#5C5C5C"/>
<path d="M11.4978 8.33145V8.38145H11.5269L11.5413 8.35623L11.4978 8.33145ZM11.4954 8.33145H11.4454V8.38145H11.4954V8.33145ZM20.1505 16.0363C20.1505 15.606 19.7929 15.2593 19.3544 15.2593V15.3593C19.7401 15.3593 20.0505 15.6636 20.0505 16.0363H20.1505ZM17.1161 18.9943C18.7881 18.9943 20.1505 17.6686 20.1505 16.0363H20.0505C20.0505 17.611 18.7354 18.8943 17.1161 18.8943V18.9943ZM3.98446 18.9943H17.1161V18.8943H3.98446V18.9943ZM0.95 16.0363C0.95 17.6686 2.3124 18.9943 3.98446 18.9943V18.8943C2.36516 18.8943 1.05 17.611 1.05 16.0363H0.95ZM0.95 3.24143V16.0363H1.05V3.24143H0.95ZM3.98446 0.283496C2.3124 0.283496 0.95 1.60912 0.95 3.24143H1.05C1.05 1.66678 2.36516 0.383496 3.98446 0.383496V0.283496ZM17.1161 0.283496H3.98446V0.383496H17.1161V0.283496ZM20.1505 3.24143C20.1505 1.60912 18.7881 0.283496 17.1161 0.283496V0.383496C18.7354 0.383496 20.0505 1.66678 20.0505 3.24143H20.1505ZM20.1505 12.3651V3.24143H20.0505V12.3651H20.1505ZM19.3544 13.142C19.7929 13.142 20.1505 12.7954 20.1505 12.3651H20.0505C20.0505 12.7378 19.7401 13.042 19.3544 13.042V13.142ZM18.5583 12.3651C18.5583 12.7954 18.9159 13.142 19.3544 13.142V13.042C18.9687 13.042 18.6583 12.7378 18.6583 12.3651H18.5583ZM18.5583 3.24143V12.3651H18.6583V3.24143H18.5583ZM17.1161 1.83746C17.9125 1.83746 18.5583 2.46859 18.5583 3.24143H18.6583C18.6583 2.41093 17.9652 1.73746 17.1161 1.73746V1.83746ZM3.98446 1.83746H17.1161V1.73746H3.98446V1.83746ZM2.54223 3.24143C2.54223 2.46859 3.18807 1.83746 3.98446 1.83746V1.73746C3.13531 1.73746 2.44223 2.41093 2.44223 3.24143H2.54223ZM2.54223 16.0363V3.24143H2.44223V16.0363H2.54223ZM3.98446 17.4403C3.18807 17.4403 2.54223 16.8092 2.54223 16.0363H2.44223C2.44223 16.8668 3.13531 17.5403 3.98446 17.5403V17.4403ZM17.1161 17.4403H3.98446V17.5403H17.1161V17.4403ZM18.5583 16.0363C18.5583 16.8092 17.9125 17.4403 17.1161 17.4403V17.5403C17.9652 17.5403 18.6583 16.8668 18.6583 16.0363H18.5583ZM19.3544 15.2593C18.9159 15.2593 18.5583 15.606 18.5583 16.0363H18.6583C18.6583 15.6636 18.9687 15.3593 19.3544 15.3593V15.2593ZM8.05 4.71798C8.05 3.8825 7.35465 3.20658 6.50071 3.20658V3.30658C7.30185 3.30658 7.95 3.94013 7.95 4.71798H8.05ZM6.50071 6.22965C7.35466 6.22965 8.05 5.55372 8.05 4.71798H7.95C7.95 5.49611 7.30185 6.12965 6.50071 6.12965V6.22965ZM4.95 4.71798C4.95 5.55371 5.64362 6.22965 6.50071 6.22965V6.12965C5.69645 6.12965 5.05 5.49611 5.05 4.71798H4.95ZM6.50071 3.20658C5.64363 3.20658 4.95 3.88251 4.95 4.71798H5.05C5.05 3.94012 5.69644 3.30658 6.50071 3.30658V3.20658ZM7.14286 14.8989H5.85714V14.9989H7.14286V14.8989ZM7.95 14.2591C7.95 14.6029 7.59937 14.8989 7.14286 14.8989V14.9989C7.63322 14.9989 8.05 14.6773 8.05 14.2591H7.95ZM7.95 7.84382V14.2591H8.05V7.84382H7.95ZM7.14286 7.20401C7.59937 7.20401 7.95 7.50002 7.95 7.84382H8.05C8.05 7.4256 7.63322 7.10401 7.14286 7.10401V7.20401ZM5.85714 7.20401H7.14286V7.10401H5.85714V7.20401ZM5.05 7.84382C5.05 7.50002 5.40063 7.20401 5.85714 7.20401V7.10401C5.36678 7.10401 4.95 7.4256 4.95 7.84382H5.05ZM5.05 14.2591V7.84382H4.95V14.2591H5.05ZM5.85714 14.8989C5.40063 14.8989 5.05 14.6029 5.05 14.2591H4.95C4.95 14.6773 5.36678 14.9989 5.85714 14.9989V14.8989ZM16.95 10.735V14.2711H17.05V10.735H16.95ZM13.9289 7.20401C15.2192 7.20401 15.9684 7.5817 16.3987 8.20199C16.8319 8.8267 16.95 9.70821 16.95 10.735H17.05C17.05 9.7058 16.9329 8.79679 16.4808 8.145C16.0257 7.4888 15.2393 7.10401 13.9289 7.10401V7.20401ZM11.5413 8.35623C11.8736 7.77377 12.6945 7.20401 13.9289 7.20401V7.10401C12.6639 7.10401 11.807 7.68865 11.4544 8.30667L11.5413 8.35623ZM11.4954 8.38145H11.4978V8.28145H11.4954V8.38145ZM11.4454 7.96739V8.33145H11.5454V7.96739H11.4454ZM10.7615 7.33957C11.1431 7.33957 11.4454 7.62429 11.4454 7.96739H11.5454C11.5454 7.56172 11.1907 7.23957 10.7615 7.23957V7.33957ZM9.73394 7.33957H10.7615V7.23957H9.73394V7.33957ZM9.05 7.96739C9.05 7.62429 9.35235 7.33957 9.73394 7.33957V7.23957C9.30476 7.23957 8.95 7.56172 8.95 7.96739H9.05ZM9.05 14.2711V7.96739H8.95V14.2711H9.05ZM9.73394 14.8989C9.35235 14.8989 9.05 14.6142 9.05 14.2711H8.95C8.95 14.6767 9.30476 14.9989 9.73394 14.9989V14.8989ZM10.7615 14.8989H9.73394V14.9989H10.7615V14.8989ZM11.4454 14.2711C11.4454 14.6142 11.1431 14.8989 10.7615 14.8989V14.9989C11.1907 14.9989 11.5454 14.6767 11.5454 14.2711H11.4454ZM11.4454 11.146V14.2711H11.5454V11.146H11.4454ZM13.1067 9.13521C12.4243 9.13521 12.0042 9.38266 11.7577 9.76502C11.514 10.1431 11.4454 10.6453 11.4454 11.146H11.5454C11.5454 10.6507 11.6141 10.1725 11.8418 9.8192C12.0668 9.47016 12.4522 9.23521 13.1067 9.23521V9.13521ZM14.5179 11.2093C14.5179 10.7684 14.5079 10.2516 14.3274 9.84502C14.2365 9.64023 14.1018 9.46171 13.9024 9.33481C13.7033 9.20801 13.4435 9.13521 13.1067 9.13521V9.23521C13.429 9.23521 13.6691 9.30476 13.8487 9.41917C14.0283 9.53348 14.1514 9.69501 14.236 9.88559C14.4065 10.2697 14.4179 10.765 14.4179 11.2093H14.5179ZM14.5179 14.2711V11.2093H14.4179V14.2711H14.5179ZM15.2018 14.8989C14.8202 14.8989 14.5179 14.6142 14.5179 14.2711H14.4179C14.4179 14.6767 14.7727 14.9989 15.2018 14.9989V14.8989ZM16.2661 14.8989H15.2018V14.9989H16.2661V14.8989ZM16.95 14.2711C16.95 14.6142 16.6477 14.8989 16.2661 14.8989V14.9989C16.6952 14.9989 17.05 14.6767 17.05 14.2711H16.95Z" fill="#F9F9F9"/>
</svg>
