<?xml version="1.0" encoding="utf-8"?>
<svg width="24px" height="25px" viewBox="0 0 24 25" version="1.1" xmlns:xlink="http://www.w3.org/1999/xlink" xmlns="http://www.w3.org/2000/svg">
  <defs>
    <path d="M0 0L23.0666 0L23.0666 11.447L0 11.447L0 0Z" id="path_1" />
    <path d="M0 0L20.2759 0L20.2759 14.0098L0 14.0098L0 0Z" id="path_2" />
    <clipPath id="mask_1">
      <use xlink:href="#path_1" />
    </clipPath>
    <clipPath id="mask_2">
      <use xlink:href="#path_2" />
    </clipPath>
  </defs>
  <g id="Group-9">
    <g id="Group-3">
      <path d="M0 0L23.0666 0L23.0666 11.447L0 11.447L0 0Z" id="Clip-2" fill="none" fill-rule="evenodd" stroke="none" />
      <g clip-path="url(#mask_1)">
        <path d="M14.0707 1.37365C15.098 1.37365 15.916 2.18553 15.916 3.20517C15.916 4.22482 15.098 5.0367 14.0707 5.0367L12.2253 5.0367L12.2253 3.20517C12.2253 2.18553 13.0434 1.37365 14.0707 1.37365M8.996 1.37365C10.0234 1.37365 10.8413 2.18553 10.8413 3.20517L10.8413 5.0367L8.996 5.0367C7.96867 5.0367 7.15067 4.22482 7.15067 3.20517C7.15067 2.18553 7.96867 1.37365 8.996 1.37365M14.14 6.41035L21.6827 6.41035L21.6827 10.0734L1.384 10.0734L1.384 6.41035M16.5958 5.0367C18.612 2.70826 16.5904 -0.000457882 14.0707 0C12.9253 0.000228941 12.126 0.484897 11.5333 1.23325C10.9407 0.484897 10.0232 0 8.996 0C7.22073 0 5.76667 1.44313 5.76667 3.20517C5.76667 3.88507 5.98447 4.51638 6.35239 5.0367L1.384 5.0367C0.629259 5.0367 0 5.66125 0 6.41035L0 10.0734C0 10.8226 0.629259 11.447 1.384 11.447L21.6827 11.447C22.4375 11.447 23.0667 10.8226 23.0667 10.0734L23.0667 6.41035C23.0667 5.66125 22.4375 5.0367 21.6827 5.0367" transform="translate(-2.8833334E-05 -5.723523E-06)" id="Fill-1" fill="#5C5C5C" fill-rule="evenodd" stroke="none" />
      </g>
    </g>
    <g id="Group-6" transform="translate(1.3953247 10.70459)">
      <path d="M0 0L20.2759 0L20.2759 14.0098L0 14.0098L0 0Z" id="Clip-5" fill="none" fill-rule="evenodd" stroke="none" />
      <g clip-path="url(#mask_2)">
        <path d="M2.06465 14.0098C0.926255 14.0098 7.06827e-05 13.0906 7.06827e-05 11.9607L7.06827e-05 0.685335C-0.00529232 0.313248 0.295209 0.00583799 0.670042 5.72352e-05L0.690456 0C1.06569 0.00538011 1.3666 0.312733 1.36123 0.685163L1.36123 11.9607C1.36123 12.3587 1.66364 12.6588 2.06465 12.6588L18.2113 12.6588C18.6123 12.6588 18.9147 12.3587 18.9147 11.9607C18.9147 11.8645 18.9146 0.679153 18.9147 0.666047C18.92 0.298825 19.2253 0.00011447 19.5951 0.00011447L19.6049 0.000171706C19.9802 0.00543735 20.2812 0.312733 20.2758 0.685163L20.2758 11.9607C20.2758 13.0906 19.3497 14.0098 18.2113 14.0098L2.06465 14.0098Z" id="Fill-4" fill="#5C5C5C" fill-rule="evenodd" stroke="none" />
      </g>
    </g>
  </g>
</svg>