<svg width="53" height="53" viewBox="0 0 53 53" fill="none" xmlns="http://www.w3.org/2000/svg">
<circle cx="26.5" cy="26.5" r="26.5" fill="#F4F4E9"/>
<path fill-rule="evenodd" clip-rule="evenodd" d="M15.7929 16.2615H38.6124C40.2318 16.2615 41.5568 17.5957 41.5568 19.2265V32.5692C41.5568 34.1999 40.2318 35.5342 38.6124 35.5342H15.7929C14.1735 35.5342 12.8485 34.1999 12.8485 32.5692V31.4573C12.8485 31.0496 13.1797 30.716 13.5846 30.716C13.9895 30.716 14.3207 31.0496 14.3207 31.4573V32.5692C14.3207 32.7174 14.3575 32.8657 14.3943 33.0139L22.6388 25.8978L14.3943 18.7818L14.3943 18.7818C14.3575 18.93 14.3207 19.0783 14.3207 19.2265V20.3384C14.3207 20.7461 13.9895 21.0797 13.5846 21.0797C13.1797 21.0797 12.8485 20.7461 12.8485 20.3384V19.2265C12.8485 17.5957 14.1735 16.2615 15.7929 16.2615ZM15.7929 17.744C15.6825 17.744 15.5721 17.744 15.4985 17.7811L26.7242 27.4545C27.0186 27.6769 27.3867 27.6769 27.6811 27.4545L38.9068 17.7811C38.8332 17.744 38.7228 17.744 38.6124 17.744H15.7929ZM38.6124 34.0517H15.7929C15.6825 34.0517 15.5721 34.0517 15.4985 34.0146L23.7797 26.8615L25.7672 28.6034C26.1721 28.9741 26.6874 29.1594 27.2027 29.1594C27.7179 29.1594 28.2332 28.9741 28.6381 28.6034L30.6256 26.8615L38.9068 34.0146C38.8332 34.0517 38.7228 34.0517 38.6124 34.0517ZM40.011 33.0139C40.0478 32.8657 40.0846 32.7174 40.0846 32.5692V19.2265C40.0846 19.0783 40.0478 18.93 40.011 18.7818L31.7665 25.8978L40.011 33.0139ZM10.6402 24.0447C10.6402 23.637 10.9714 23.3034 11.3763 23.3034H15.7929C16.1978 23.3034 16.529 23.637 16.529 24.0447C16.529 24.4524 16.1978 24.7859 15.7929 24.7859H11.3763C10.9714 24.7859 10.6402 24.4524 10.6402 24.0447ZM9.16793 28.4922H15.7929C16.1978 28.4922 16.529 28.1587 16.529 27.751C16.529 27.3433 16.1978 27.0097 15.7929 27.0097H9.16793C8.76307 27.0097 8.43182 27.3433 8.43182 27.751C8.43182 28.1587 8.76307 28.4922 9.16793 28.4922Z" fill="#82992F"/>
<path d="M14.3943 33.0139L14.1323 33.079L14.2381 33.5054L14.5707 33.2183L14.3943 33.0139ZM22.6388 25.8978L22.8152 26.1022L23.052 25.8978L22.8152 25.6934L22.6388 25.8978ZM14.3943 18.7818L14.5707 18.5774L14.2388 18.2908L14.1324 18.7163L14.3943 18.7818ZM14.3943 18.7818L14.1324 18.7163L14.1323 18.7167L14.3943 18.7818ZM15.4985 17.7811L15.3771 17.5399L15.016 17.7217L15.3222 17.9856L15.4985 17.7811ZM26.7242 27.4545L26.5479 27.659L26.5545 27.6647L26.5615 27.6699L26.7242 27.4545ZM27.6811 27.4545L27.8439 27.6699L27.8508 27.6647L27.8574 27.659L27.6811 27.4545ZM38.9068 17.7811L39.0831 17.9856L39.3893 17.7217L39.0282 17.5399L38.9068 17.7811ZM15.4985 34.0146L15.322 33.8103L15.0165 34.0742L15.3771 34.2558L15.4985 34.0146ZM23.7797 26.8615L23.9577 26.6584L23.781 26.5036L23.6032 26.6571L23.7797 26.8615ZM25.7672 28.6034L25.9496 28.4042L25.9452 28.4004L25.7672 28.6034ZM28.6381 28.6034L28.4601 28.4003L28.4558 28.4043L28.6381 28.6034ZM30.6256 26.8615L30.8021 26.6571L30.6243 26.5036L30.4476 26.6584L30.6256 26.8615ZM38.9068 34.0146L39.0282 34.2558L39.3889 34.0742L39.0833 33.8103L38.9068 34.0146ZM40.011 33.0139L39.8346 33.2183L40.1672 33.5054L40.273 33.079L40.011 33.0139ZM40.011 18.7818L40.273 18.7167L40.1672 18.2903L39.8346 18.5774L40.011 18.7818ZM31.7665 25.8978L31.5901 25.6934L31.3533 25.8978L31.5901 26.1022L31.7665 25.8978ZM38.6124 15.9915H15.7929V16.5315H38.6124V15.9915ZM41.8268 19.2265C41.8268 17.4484 40.3827 15.9915 38.6124 15.9915V16.5315C40.0809 16.5315 41.2868 17.7431 41.2868 19.2265H41.8268ZM41.8268 32.5692V19.2265H41.2868V32.5692H41.8268ZM38.6124 35.8042C40.3827 35.8042 41.8268 34.3473 41.8268 32.5692H41.2868C41.2868 34.0526 40.0809 35.2642 38.6124 35.2642V35.8042ZM15.7929 35.8042H38.6124V35.2642H15.7929V35.8042ZM12.5785 32.5692C12.5785 34.3473 14.0226 35.8042 15.7929 35.8042V35.2642C14.3244 35.2642 13.1185 34.0526 13.1185 32.5692H12.5785ZM12.5785 31.4573V32.5692H13.1185V31.4573H12.5785ZM13.5846 30.446C13.0289 30.446 12.5785 30.9022 12.5785 31.4573H13.1185C13.1185 31.1969 13.3306 30.986 13.5846 30.986V30.446ZM14.5907 31.4573C14.5907 30.9022 14.1404 30.446 13.5846 30.446V30.986C13.8386 30.986 14.0507 31.1969 14.0507 31.4573H14.5907ZM14.5907 32.5692V31.4573H14.0507V32.5692H14.5907ZM14.6564 32.9489C14.618 32.7943 14.5907 32.6786 14.5907 32.5692H14.0507C14.0507 32.7562 14.097 32.937 14.1323 33.079L14.6564 32.9489ZM22.4623 25.6934L14.2179 32.8095L14.5707 33.2183L22.8152 26.1022L22.4623 25.6934ZM14.2179 18.9861L22.4623 26.1022L22.8152 25.6934L14.5707 18.5774L14.2179 18.9861ZM14.6563 18.8472L14.6563 18.8472L14.1324 18.7163L14.1324 18.7163L14.6563 18.8472ZM14.5907 19.2265C14.5907 19.117 14.618 19.0013 14.6564 18.8468L14.1323 18.7167C14.097 18.8587 14.0507 19.0395 14.0507 19.2265H14.5907ZM14.5907 20.3384V19.2265H14.0507V20.3384H14.5907ZM13.5846 21.3497C14.1404 21.3497 14.5907 20.8934 14.5907 20.3384H14.0507C14.0507 20.5988 13.8386 20.8097 13.5846 20.8097V21.3497ZM12.5785 20.3384C12.5785 20.8934 13.0289 21.3497 13.5846 21.3497V20.8097C13.3306 20.8097 13.1185 20.5988 13.1185 20.3384H12.5785ZM12.5785 19.2265V20.3384H13.1185V19.2265H12.5785ZM15.7929 15.9915C14.0226 15.9915 12.5785 17.4484 12.5785 19.2265H13.1185C13.1185 17.7431 14.3244 16.5315 15.7929 16.5315V15.9915ZM15.6199 18.0222C15.6121 18.0261 15.6188 18.021 15.6565 18.0175C15.6926 18.0142 15.7349 18.014 15.7929 18.014V17.474C15.7406 17.474 15.6725 17.4738 15.6073 17.4797C15.5439 17.4856 15.4585 17.4989 15.3771 17.5399L15.6199 18.0222ZM26.9004 27.2499L15.6747 17.5765L15.3222 17.9856L26.5479 27.659L26.9004 27.2499ZM27.5184 27.239C27.3203 27.3887 27.0851 27.3887 26.8869 27.239L26.5615 27.6699C26.9522 27.965 27.4531 27.965 27.8439 27.6699L27.5184 27.239ZM38.7306 17.5765L27.5049 27.2499L27.8574 27.659L39.0831 17.9856L38.7306 17.5765ZM38.6124 18.014C38.6704 18.014 38.7128 18.0142 38.7488 18.0175C38.7866 18.021 38.7932 18.0261 38.7854 18.0222L39.0282 17.5399C38.9469 17.4989 38.8615 17.4856 38.798 17.4797C38.7328 17.4738 38.6648 17.474 38.6124 17.474V18.014ZM15.7929 18.014H38.6124V17.474H15.7929V18.014ZM15.7929 34.3217H38.6124V33.7817H15.7929V34.3217ZM15.3771 34.2558C15.4584 34.2968 15.5439 34.3101 15.6073 34.3159C15.6725 34.3219 15.7406 34.3217 15.7929 34.3217V33.7817C15.7349 33.7817 15.6926 33.7815 15.6565 33.7782C15.6188 33.7747 15.6121 33.7696 15.6199 33.7735L15.3771 34.2558ZM23.6032 26.6571L15.322 33.8103L15.675 34.219L23.9562 27.0658L23.6032 26.6571ZM25.9452 28.4004L23.9577 26.6584L23.6018 27.0645L25.5893 28.8065L25.9452 28.4004ZM27.2027 28.8894C26.7519 28.8894 26.3025 28.7274 25.9496 28.4043L25.5849 28.8026C26.0417 29.2207 26.6228 29.4294 27.2027 29.4294V28.8894ZM28.4558 28.4043C28.1028 28.7274 27.6534 28.8894 27.2027 28.8894V29.4294C27.7825 29.4294 28.3636 29.2207 28.8204 28.8026L28.4558 28.4043ZM30.4476 26.6584L28.4601 28.4004L28.816 28.8065L30.8035 27.0645L30.4476 26.6584ZM39.0833 33.8103L30.8021 26.6571L30.4491 27.0658L38.7303 34.219L39.0833 33.8103ZM38.6124 34.3217C38.6648 34.3217 38.7328 34.3219 38.798 34.3159C38.8615 34.3101 38.9469 34.2968 39.0282 34.2558L38.7854 33.7735C38.7932 33.7696 38.7866 33.7747 38.7488 33.7782C38.7128 33.7815 38.6704 33.7817 38.6124 33.7817V34.3217ZM39.8146 32.5692C39.8146 32.6786 39.7873 32.7943 39.7489 32.9489L40.273 33.079C40.3083 32.937 40.3546 32.7562 40.3546 32.5692H39.8146ZM39.8146 19.2265V32.5692H40.3546V19.2265H39.8146ZM39.7489 18.8468C39.7873 19.0013 39.8146 19.117 39.8146 19.2265H40.3546C40.3546 19.0395 40.3083 18.8587 40.273 18.7167L39.7489 18.8468ZM31.943 26.1022L40.1874 18.9861L39.8346 18.5774L31.5901 25.6934L31.943 26.1022ZM40.1874 32.8095L31.943 25.6934L31.5901 26.1022L39.8346 33.2183L40.1874 32.8095ZM11.3763 23.0334C10.8205 23.0334 10.3702 23.4897 10.3702 24.0447H10.9102C10.9102 23.7843 11.1223 23.5734 11.3763 23.5734V23.0334ZM15.7929 23.0334H11.3763V23.5734H15.7929V23.0334ZM16.799 24.0447C16.799 23.4897 16.3487 23.0334 15.7929 23.0334V23.5734C16.0469 23.5734 16.259 23.7843 16.259 24.0447H16.799ZM15.7929 25.056C16.3487 25.056 16.799 24.5997 16.799 24.0447H16.259C16.259 24.305 16.0469 24.5159 15.7929 24.5159V25.056ZM11.3763 25.056H15.7929V24.5159H11.3763V25.056ZM10.3702 24.0447C10.3702 24.5997 10.8205 25.056 11.3763 25.056V24.5159C11.1223 24.5159 10.9102 24.305 10.9102 24.0447H10.3702ZM15.7929 28.2222H9.16793V28.7622H15.7929V28.2222ZM16.259 27.751C16.259 28.0113 16.0469 28.2222 15.7929 28.2222V28.7622C16.3487 28.7622 16.799 28.306 16.799 27.751H16.259ZM15.7929 27.2797C16.0469 27.2797 16.259 27.4906 16.259 27.751H16.799C16.799 27.196 16.3487 26.7397 15.7929 26.7397V27.2797ZM9.16793 27.2797H15.7929V26.7397H9.16793V27.2797ZM8.70182 27.751C8.70182 27.4906 8.91396 27.2797 9.16793 27.2797V26.7397C8.61219 26.7397 8.16182 27.196 8.16182 27.751H8.70182ZM9.16793 28.2222C8.91396 28.2222 8.70182 28.0113 8.70182 27.751H8.16182C8.16182 28.306 8.61219 28.7622 9.16793 28.7622V28.2222Z" fill="#F7F7F7"/>
</svg>
