<svg width="24" height="24" viewBox="0 0 24 24" fill="none" xmlns="http://www.w3.org/2000/svg">
<path fill-rule="evenodd" clip-rule="evenodd" d="M23.7312 0.567186C23.4675 0.201421 23.0448 0 22.541 0C22.3045 0 22.0509 0.044578 21.7874 0.132468L1.37561 6.93599C0.670569 7.17097 0.184638 7.6512 0.042365 8.25364C-0.099908 8.85612 0.1199 9.50309 0.645443 10.0287C0.696821 10.0802 0.755886 10.1233 0.820484 10.1566L9.4141 14.5862L13.8441 23.1794C13.8773 23.2439 13.9205 23.303 13.9719 23.3543C14.3942 23.7767 14.8812 24 15.3805 24H15.3806C16.1367 24 16.7821 23.4727 17.0648 22.6243L23.8688 2.21367C24.0827 1.57176 24.0338 0.987045 23.7312 0.567186ZM1.41105 8.57684C1.43795 8.4628 1.5948 8.34528 1.82029 8.27009L21.194 1.81251L9.80201 13.2039L1.57315 8.96244C1.4492 8.81759 1.38793 8.67472 1.41105 8.57684ZM15.3806 22.5937C15.5369 22.5937 15.6638 22.3798 15.7306 22.1796L22.1888 2.80659L10.7964 14.1983L15.0383 22.4266C15.162 22.5324 15.2859 22.5937 15.3806 22.5937Z" fill="#82992F"/>
</svg>
