<svg width="19" height="19" viewBox="0 0 19 19" fill="none" xmlns="http://www.w3.org/2000/svg">
<path fill-rule="evenodd" clip-rule="evenodd" d="M5.00865 0.0515137H13.9895C16.7991 0.0515137 19 2.19601 19 4.93293V13.6829C19 16.4204 16.7991 18.5643 13.9895 18.5643H5.00865C2.20032 18.5643 0 16.4204 0 13.6835V4.93293C0 2.19601 2.20032 0.0515137 5.00865 0.0515137ZM13.9895 17.3694C16.1475 17.3694 17.7742 15.7844 17.7742 13.6829V4.93292C17.7742 2.83082 16.1475 1.24588 13.9895 1.24588H5.00866C2.85186 1.24588 1.22583 2.83082 1.22583 4.93292V13.6829C1.22583 15.785 2.85186 17.3694 5.00866 17.3694H13.9895Z" fill="#5C5C5C"/>
<path d="M9.77032 3.83569C6.61145 3.83569 5.01886 5.97707 5.01886 7.76235C5.01886 8.84379 5.45187 9.80514 6.37965 10.1642C6.4188 10.1792 6.45733 10.1869 6.49341 10.1869C6.59738 10.1869 6.68117 10.1248 6.71297 10.0065C6.74416 9.89656 6.81633 9.61873 6.84936 9.50162C6.89339 9.34389 6.87688 9.28952 6.75395 9.15209C6.48607 8.85335 6.31421 8.46678 6.31421 7.92008C6.31421 6.33078 7.57287 4.90937 9.58868 4.90937C11.3739 4.90937 12.3549 5.94062 12.3549 7.31782C12.3549 9.12999 11.5066 10.6601 10.2474 10.6601C9.55076 10.6601 9.03091 10.1158 9.19787 9.44904C9.39786 8.6526 9.78561 7.79342 9.78561 7.21924C9.78561 6.70421 9.49266 6.27581 8.88841 6.27581C8.17651 6.27581 7.60529 6.97069 7.60529 7.90276C7.60529 8.49546 7.81751 8.89757 7.81751 8.89757C7.81751 8.89757 7.09094 11.8121 6.96311 12.3229C6.70869 13.3393 6.92458 14.5856 6.94293 14.7111C6.94905 14.7559 6.98819 14.7804 7.02855 14.7804C7.05546 14.7804 7.08299 14.7696 7.10072 14.7469C7.16677 14.6669 8.01322 13.678 8.30128 12.6898C8.38384 12.4102 8.76915 10.9625 8.76915 10.9625C9.00033 11.3789 9.67553 11.7452 10.3941 11.7452C12.5311 11.7452 13.9811 9.90432 13.9811 7.43851C13.9805 5.57258 12.3103 3.83569 9.77032 3.83569Z" fill="#5C5C5C"/>
</svg>
