<svg width="118" height="91" viewBox="0 0 118 91" fill="none" xmlns="http://www.w3.org/2000/svg">
<path d="M44.3622 43.1252L31.7215 39.857C30.5649 39.558 29.2991 39.6519 28.2328 40.303L7.86576 51.4653C5.67239 52.6674 4.93025 55.3399 6.20687 57.4391L15.5079 72.7336C16.7845 74.8329 19.5935 75.5592 21.7869 74.3571L42.1539 63.1948C43.1984 62.6223 43.9779 61.7287 44.3053 60.5496L47.6449 48.5233C48.2171 46.1438 46.7581 43.7447 44.3622 43.1252Z" fill="#708915"/>
<path fill-rule="evenodd" clip-rule="evenodd" d="M31.0885 42.1366L43.7292 45.4048C44.8032 45.6825 45.4719 46.7821 45.1882 47.8039L41.8485 59.8302C41.6958 60.3804 41.4214 60.7307 40.8991 61.017L20.5321 72.1792C19.5921 72.6944 18.2702 72.3527 17.7231 71.453L8.40024 56.2371C7.85312 55.3374 8.20236 54.0797 9.14238 53.5645L29.5094 42.4022C30.0534 42.0374 30.5102 41.987 31.0885 42.1366Z" fill="#6F8814"/>
<path d="M22.7234 65.6036C22.5486 66.2331 22.8017 66.8046 23.314 66.937C23.8263 67.0695 24.3416 66.6967 24.5164 66.0672L29.826 46.9469C30.0008 46.3174 29.7477 45.746 29.2354 45.6135C28.7231 45.4811 28.2078 45.8538 28.033 46.4833L22.7234 65.6036Z" fill="black"/>
<path fill-rule="evenodd" clip-rule="evenodd" d="M16.9387 55.9921C15.8886 54.3357 16.5071 52.1476 18.3133 51.1297C20.0966 50.1928 22.3467 50.7643 23.3136 52.3996C24.3637 54.0561 23.7452 56.2442 21.939 57.262C20.2161 58.3011 17.966 57.7296 16.9387 55.9921ZM20.8521 55.4225C21.4896 55.0632 21.7187 54.2529 21.3561 53.6397C20.9102 53.0053 20.1602 52.8148 19.5228 53.174C18.8853 53.5333 18.6563 54.3437 19.0188 54.9569C19.3813 55.5701 20.2147 55.7817 20.8521 55.4225Z" fill="black"/>
<path fill-rule="evenodd" clip-rule="evenodd" d="M28.5934 59.0054C27.5432 57.3489 28.1618 55.1608 29.968 54.1429C31.7513 53.2061 34.0014 53.7775 34.9682 55.4128C36.0184 57.0693 35.3998 59.2574 33.5936 60.2753C31.8707 61.3143 29.6206 60.7429 28.5934 59.0054ZM32.4229 58.414C33.0603 58.0548 33.2894 57.2444 32.9269 56.6312C32.5643 56.018 31.731 55.8064 31.0935 56.1656C30.4561 56.5248 30.227 57.3352 30.5896 57.9484C30.9521 58.5616 31.7854 58.7733 32.4229 58.414Z" fill="black"/>
<path d="M57.6975 59.4612C57.6975 59.4612 55.6311 45.2227 45.6206 45.2227" stroke="#748E1A" stroke-width="1.89"/>
<path fill-rule="evenodd" clip-rule="evenodd" d="M79.2637 12.2051L79.5634 12.3338C80.1404 12.5813 80.71 12.8488 81.2397 13.101L81.3446 13.1509L81.4494 13.101C82.004 12.8368 82.572 12.5928 83.1214 12.3568L83.4208 12.2281L81.3316 10.058L79.2637 12.2051Z" fill="#6F8814"/>
<path fill-rule="evenodd" clip-rule="evenodd" d="M45.544 81.3644C47.764 81.03 49.787 79.9549 51.2608 78.321L51.4042 78.1619L48.8176 75.6814L48.6599 75.771C45.7466 77.4311 42.4239 78.3324 39.0365 78.3841V76.2866C41.785 76.2334 44.5035 75.5356 46.9129 74.2631L47.1346 74.1461L43.0361 68.0616L43.0184 68.0445C42.6398 67.6815 42.5917 67.1121 42.9037 66.6906C43.1058 66.4176 43.4563 66.2547 43.8411 66.2547H43.8611L53.2771 64.7123L48.6087 62.0242C46.7037 60.9274 45.7895 58.7281 46.3852 56.6756C46.98 54.6288 48.943 53.1993 51.1587 53.1993C53.3931 53.2052 55.353 54.6448 55.9377 56.7L56.782 59.6655L57.2436 59.6327L63.131 12.2107C63.1515 12.0604 63.208 11.9113 63.2948 11.782C63.3014 11.7732 63.3152 11.755 63.3274 11.7292C63.4099 11.6195 63.5168 11.5239 63.6378 11.4519C63.6419 11.4492 63.6458 11.4467 63.6494 11.4441C63.6617 11.4393 63.6739 11.4336 63.6859 11.4269C63.7015 11.4178 63.7137 11.4097 63.726 11.4014C63.8365 11.348 63.9643 11.3132 64.0985 11.3011H64.1584C64.1838 11.3003 64.1988 11.3 64.214 11.3C64.3481 11.3 64.4787 11.3239 64.6024 11.3713L64.6445 11.3876H64.6856C66.4901 12.1212 68.3681 12.973 70.5911 14.0661L70.9346 14.2351V13.7983C70.9346 12.7794 71.4482 11.8133 72.3087 11.2143C72.881 10.8153 73.5582 10.6045 74.2664 10.6045C74.6166 10.6045 74.9631 10.6571 75.2965 10.761C75.8287 10.9276 76.335 11.1056 76.9418 11.3212L77.0896 11.3739L80.5282 7.80612C80.7349 7.60502 81.0295 7.48676 81.3316 7.48676C81.6335 7.48676 81.9283 7.60502 82.1401 7.81139L85.5924 11.3978L85.7415 11.3436C85.8772 11.2941 86.0128 11.2438 86.148 11.1935C86.5467 11.0454 86.9588 10.8924 87.3672 10.7661C87.7009 10.6622 88.0471 10.6096 88.3971 10.6096C89.1044 10.6096 89.7806 10.8201 90.3527 11.2181C91.2123 11.816 91.7267 12.7806 91.7286 13.7986V18.0329L96.141 13.8032C96.8051 13.1661 97.6885 12.8151 98.6285 12.8151C98.7986 12.8151 98.9702 12.8271 99.1389 12.8507C100.233 13.0052 101.2 13.655 101.725 14.589L102.731 16.385H107.913C108.516 16.385 109.007 16.8553 109.007 17.4334V22.5329L109.166 22.3798L109.074 22.7322L110.311 23.3694C111.285 23.8726 111.962 24.7997 112.123 25.8491C112.284 26.8993 111.913 27.9739 111.13 28.7239L106.72 32.9544H110.375C111.437 32.9561 112.443 33.4493 113.066 34.2737C113.689 35.0985 113.865 36.1689 113.537 37.1371C113.417 37.4909 113.274 37.8477 113.136 38.1927C113.068 38.3614 113.001 38.5303 112.935 38.6999L112.88 38.8421L116.624 42.1542C116.848 42.3523 116.976 42.6329 116.976 42.9246C116.976 43.2167 116.848 43.4976 116.624 43.6955L112.878 47.0095L112.933 47.1516C113.002 47.3327 113.075 47.5132 113.148 47.6936C113.282 48.0273 113.421 48.3725 113.537 48.7138C113.855 49.6313 113.723 50.6218 113.175 51.4328C112.626 52.2428 111.737 52.7623 110.734 52.8582L110.397 52.8904L110.546 53.1825C111.85 55.7459 113.01 58.3344 113.992 60.8764L114.258 61.5625C114.375 61.8651 114.338 62.2092 114.16 62.4825C113.981 62.7567 113.674 62.9391 113.34 62.9705L66.8216 67.3189L66.7698 67.7585L67.8152 68.094C69.482 68.627 70.7565 69.9141 71.2249 71.5369C71.6935 73.1603 71.2915 74.8928 70.1491 76.1713C69.1476 77.2889 67.6917 77.9302 66.1549 77.9302C65.9665 77.9302 65.7811 77.9206 65.5973 77.9021C63.8769 77.7281 62.3549 76.7544 61.5263 75.2972L58.9441 70.7577L58.501 70.8661V80.8401C58.501 81.3578 58.1112 81.794 57.5742 81.8768C57.5217 81.885 57.4682 81.8891 57.4147 81.8891C57.1231 81.8891 56.8289 81.7673 56.6075 81.5551L56.5819 81.5302L52.9237 79.7083L52.8018 79.84C50.9865 81.7972 48.5133 83.0723 45.8155 83.4462L45.544 81.3644Z" fill="#6F8814"/>
<path fill-rule="evenodd" clip-rule="evenodd" d="M73.6208 8.23097C73.7389 8.08924 73.9192 8.00864 74.1063 8.01534C74.293 8.02157 74.4643 8.11398 74.5664 8.26336C75.8278 10.1261 76.8276 14.1336 77.5406 16.2554C75.0238 15.9802 71.5822 14.7642 68.4531 13.5976L73.6208 8.23097Z" fill="white"/>
<path fill-rule="evenodd" clip-rule="evenodd" d="M80.5706 9.1799C80.7914 9.04217 81.0612 9.00402 81.2967 9.07872C81.5321 9.15293 81.7051 9.33041 81.7617 9.55577C82.4528 12.3624 82.9089 18.4993 82.7721 21.4395C79.6952 20.1996 76.5419 17.9346 72.7471 15.2429C73.8058 14.4476 80.5706 9.1799 80.5706 9.1799Z" fill="white"/>
<path fill-rule="evenodd" clip-rule="evenodd" d="M80.5706 9.1799C80.7914 9.04217 81.0612 9.00402 81.2967 9.07872C81.5321 9.15293 81.7051 9.33041 81.7617 9.55577C82.4528 12.3624 82.9089 18.4993 82.7721 21.4395C79.6952 20.1996 76.5419 17.9346 72.7471 15.2429C73.8058 14.4476 80.5706 9.1799 80.5706 9.1799Z" fill="#A9D48B" stroke="#6F8814" stroke-width="1.88943"/>
<path fill-rule="evenodd" clip-rule="evenodd" d="M58.7169 61.9122L57.6975 66.8681L63.3748 66.2137L112.328 61.4249C108.923 51.1797 102.486 42.2238 96.0328 35.0916C88.1057 26.3302 77.975 19.2421 65.0616 13.4223L64.7658 13.289L58.7169 61.9122Z" fill="#F9F9F9"/>
<path d="M62.1773 66.8681C62.2744 66.5888 67.1436 63.4842 70.8714 59.3329C73.5354 56.3662 76.2711 52.4099 77.855 47.463C80.2867 39.8684 79.7149 33.6045 77.8553 28.6191C74.0727 18.478 64.7658 13.289 64.7658 13.289" stroke="#6F8814" stroke-width="1.848"/>
<path fill-rule="evenodd" clip-rule="evenodd" d="M88.3966 12.7017C88.2738 12.7017 88.1523 12.7205 88.0356 12.7578C86.7198 13.1786 85.4155 13.6679 84.1588 14.212L83.747 14.3903L84.135 14.6124C85.8805 15.6112 87.5708 16.7348 89.1589 17.9518L89.542 18.2453V13.8008C89.5428 13.4499 89.3654 13.1166 89.0673 12.9099C88.8711 12.7738 88.6391 12.7017 88.3966 12.7017Z" fill="#FFE5B6"/>
<path fill-rule="evenodd" clip-rule="evenodd" d="M104.719 19.9264C104.797 20.0643 104.863 20.2044 104.933 20.3527C104.974 20.4383 105.014 20.5238 105.057 20.6084L105.09 20.6746L106.82 21.5671V18.4817H103.909L104.719 19.9264Z" fill="#A5CF84"/>
<path fill-rule="evenodd" clip-rule="evenodd" d="M106.346 24.1407C106.528 24.8709 106.66 25.6208 106.739 26.3693C106.846 27.506 106.722 28.6374 106.368 29.7299L106.76 29.9567L109.585 27.242C109.88 26.9574 110.02 26.5511 109.959 26.1546C109.899 25.7572 109.643 25.4062 109.275 25.2158L106.223 23.6512L106.346 24.1407Z" fill="#A5CF84"/>
<path fill-rule="evenodd" clip-rule="evenodd" d="M98.6272 14.9127C98.2725 14.9127 97.9385 15.0447 97.6861 15.2844L92.982 19.7959C90.9076 21.7831 90.0023 24.6178 90.5607 27.3787L90.5755 27.4511L90.6321 27.5014C92.7914 29.4201 94.874 31.458 96.8214 33.5582L96.8816 33.623L96.9717 33.6326C97.2255 33.6597 97.4834 33.6733 97.7384 33.6733C99.4786 33.6733 101.144 33.0526 102.428 31.9254C103.991 30.5688 104.788 28.5576 104.559 26.5462C104.374 24.5669 103.779 22.6726 102.792 20.9205L99.7953 15.583C99.5974 15.2279 99.231 14.9819 98.8156 14.9254C98.7535 14.917 98.6899 14.9127 98.6272 14.9127Z" fill="#FFE5B6"/>
<path fill-rule="evenodd" clip-rule="evenodd" d="M81.9908 13.758L84.526 7.86031C84.6587 7.55531 84.9323 7.3274 85.2661 7.24472C85.6018 7.16125 85.958 7.2369 86.2263 7.44726L91.132 11.271C99.4764 19.3133 92.6862 27.8192 90.8288 28.3386C87.3976 25.0021 85.4893 23.9434 82.772 21.4395C81.1966 19.163 80.9031 16.2845 81.9908 13.758Z" fill="#FFE5B6"/>
<path fill-rule="evenodd" clip-rule="evenodd" d="M81.9908 13.758L84.526 7.86031C84.6587 7.55531 84.9323 7.3274 85.2661 7.24472C85.6018 7.16125 85.958 7.2369 86.2263 7.44726L91.132 11.271C99.4764 19.3133 92.6862 27.8192 90.8288 28.3386C87.3976 25.0021 85.4893 23.9434 82.772 21.4395C81.1966 19.163 80.9031 16.2845 81.9908 13.758Z" stroke="#6F8814" stroke-width="1.848"/>
<path fill-rule="evenodd" clip-rule="evenodd" d="M109.524 45.5966C109.046 46.3687 108.505 47.1723 107.869 48.0537L107.785 48.1708L107.858 48.2943C108.325 49.0796 108.773 49.892 109.205 50.6777L109.272 50.7982H110.375C110.745 50.7982 111.089 50.6287 111.301 50.3448C111.519 50.0602 111.579 49.6883 111.459 49.3519C111.023 48.0915 110.513 46.8349 109.942 45.6194L109.756 45.2228L109.524 45.5966Z" fill="#A5CF84"/>
<path fill-rule="evenodd" clip-rule="evenodd" d="M111.752 41.481C111.544 41.9291 111.33 42.3922 111.098 42.8382L111.046 42.9389L111.098 43.0396C111.386 43.5955 111.654 44.161 111.878 44.6409L112.012 44.928L114.275 42.9247L112.012 40.9208L111.752 41.481Z" fill="#A5CF84"/>
<path fill-rule="evenodd" clip-rule="evenodd" d="M103.849 35.0782C102.563 35.7433 101.172 36.1476 99.7149 36.2792L99.2766 36.319L99.5537 36.647C102.021 39.5666 104.309 42.668 106.357 45.8652L106.551 46.1695L106.755 45.8708C108.744 42.9547 110.327 39.7982 111.463 36.4886C111.576 36.1547 111.515 35.787 111.3 35.504C111.087 35.2212 110.741 35.0517 110.376 35.0511H103.901L103.849 35.0782Z" fill="#FFE5B6"/>
<path fill-rule="evenodd" clip-rule="evenodd" d="M51.1556 55.2966C49.9178 55.2966 48.8212 56.095 48.489 57.2382C48.1562 58.3842 48.6659 59.6128 49.7291 60.2261L55.6366 63.6259L53.8246 57.2511C53.4981 56.1037 52.4033 55.3 51.1621 55.2966H51.1556Z" fill="white"/>
<path fill-rule="evenodd" clip-rule="evenodd" d="M49.0705 73.0117L49.2658 72.8746C51.5033 71.3033 53.4703 69.4195 55.1125 67.2752L55.4244 66.868L44.8294 67.8402C44.8294 67.8402 45.5848 68.2001 45.5926 68.2038L49.0705 73.0117Z" fill="white"/>
<path fill-rule="evenodd" clip-rule="evenodd" d="M59.8496 67.9728L63.4479 74.2935C63.9871 75.2441 65.0233 75.8348 66.1524 75.8348C66.3834 75.8348 66.6152 75.8097 66.8414 75.7599C68.1817 75.4651 69.1636 74.3393 69.2295 73.0216C69.2948 71.7036 68.4283 70.493 67.1233 70.0779L60.3657 67.9194L59.8496 67.9728Z" fill="white"/>
<path fill-rule="evenodd" clip-rule="evenodd" d="M54.7447 71.0235C53.5778 72.2422 52.2862 73.3625 50.9053 74.3531L50.6874 74.5096L52.7282 76.4666L52.883 76.216C53.8488 74.6543 54.6095 72.9804 55.1446 71.2407L54.7447 71.0235Z" fill="white"/>
<path fill-rule="evenodd" clip-rule="evenodd" d="M55.8653 75.353C55.4482 76.2066 54.9617 77.041 54.4195 77.8336L54.3141 77.9874L56.3146 79.9052V75.4491L55.8653 75.353Z" fill="white"/>
<path fill-rule="evenodd" clip-rule="evenodd" d="M73.6208 8.23097C73.7389 8.08924 73.9192 8.00864 74.1063 8.01534C74.293 8.02157 74.4643 8.11398 74.5664 8.26336C75.8278 10.1261 76.8276 14.1336 77.5406 16.2554C75.0238 15.9802 71.5822 14.7642 68.4531 13.5976L73.6208 8.23097Z" fill="#FFE5B6" stroke="#6F8814" stroke-width="1.53199"/>
</svg>
