<svg xmlns="http://www.w3.org/2000/svg" width="20" height="15" viewBox="0 0 20 15"><g><g><path d="M18.744 7.473c-.003 0 .059.069 0 .144-1.002 1.29-4.597 5.497-8.744 5.497-4.147 0-7.742-4.207-8.744-5.497a.119.119 0 0 1 0-.144C2.258 6.183 5.853 1.976 10 1.976c4.147 0 7.742 4.208 8.744 5.497zm.95.98a1.496 1.496 0 0 0 0-1.815c0-.029-1.55-2.015-3.507-3.53-4.202-3.254-8.18-3.248-12.374 0C2.148 4.398.901 5.873.307 6.638a1.496 1.496 0 0 0 0 1.814c2.365 3.042 5.95 5.972 9.693 5.972 3.744 0 7.328-2.93 9.693-5.972z"/></g><g><path d="M13.08 7.54c0 1.804-1.382 3.271-3.08 3.271-1.697 0-3.078-1.467-3.078-3.27 0-1.804 1.38-3.271 3.079-3.271 1.697 0 3.079 1.467 3.079 3.27zm1.231.006c0-2.53-1.933-4.587-4.31-4.587S5.69 5.017 5.69 7.546c0 2.528 1.934 4.586 4.31 4.586 2.378 0 4.311-2.058 4.311-4.586z"/></g></g></svg>