<svg width="23" height="24" viewBox="0 0 23 24" fill="none" xmlns="http://www.w3.org/2000/svg">
<path fill-rule="evenodd" clip-rule="evenodd" d="M11.5 0C15.2042 0 18.2084 3.00417 18.2084 6.70833C18.2084 10.4125 15.2042 13.4167 11.5 13.4167C7.79585 13.4167 4.79169 10.4125 4.79169 6.70833C4.79169 3.00417 7.79585 0 11.5 0ZM11.5 1.75C8.75835 1.75 6.54169 3.96667 6.54169 6.70833C6.54169 9.45 8.75835 11.6667 11.5 11.6667C14.2417 11.6667 16.4584 9.45 16.4584 6.70833C16.4584 3.96667 14.2417 1.75 11.5 1.75Z" fill="#5C5C5C"/>
<path d="M0.452903 23.8473C0.596366 23.9306 0.739828 23.9584 0.883291 23.9584C1.17022 23.9584 1.48583 23.8195 1.6293 23.5417C3.63777 20.0973 7.42518 17.9584 11.4995 17.9584C15.5739 17.9584 19.3613 20.0973 21.3984 23.5417C21.628 23.9306 22.1731 24.0695 22.5748 23.8473C22.9765 23.6251 23.12 23.0973 22.8905 22.7084C20.5664 18.764 16.2051 16.2917 11.4995 16.2917C6.79395 16.2917 2.43269 18.764 0.108593 22.7084C-0.120947 23.0973 0.0225154 23.6251 0.452903 23.8473Z" fill="#5C5C5C"/>
</svg>
