<svg width="20" height="16" viewBox="0 0 20 16" fill="none" xmlns="http://www.w3.org/2000/svg">
<path fill-rule="evenodd" clip-rule="evenodd" d="M9.54449 15.1939H9.54959H9.55469C10.1321 15.1897 15.2374 15.1409 16.6645 14.7416L16.6686 14.7405C17.6786 14.4514 18.4748 13.6046 18.7469 12.5307C18.8542 12.107 18.6185 11.6713 18.2207 11.5571C17.8229 11.4428 17.4134 11.6936 17.3061 12.1171C17.1722 12.6458 16.7804 13.0627 16.2833 13.2059C15.226 13.5005 11.0701 13.5942 9.54944 13.6055C8.03273 13.5942 3.8829 13.4978 2.81779 13.1912C2.3197 13.0485 1.92697 12.631 1.79348 12.1041C1.51821 11.0037 1.48338 8.68026 1.49329 7.87798V7.85704L1.49328 7.85647C1.49272 7.80205 1.46316 4.92899 1.79334 3.59169C1.92726 3.06536 2.32888 2.63304 2.8175 2.48878C3.87794 2.19467 8.02981 2.10098 9.54959 2.08965C11.0698 2.10098 15.2265 2.19715 16.2811 2.50414C16.7793 2.64669 17.1721 3.06412 17.307 3.59665C17.5926 4.70592 17.6194 7.05646 17.6057 7.86836C17.6057 7.87116 17.6057 7.87395 17.6057 7.87675C17.6057 7.88231 17.6056 7.88786 17.6057 7.89333L17.6058 7.89569C17.606 7.92071 17.6083 8.14173 17.6049 8.47441C17.6005 8.91294 17.9309 9.27235 18.343 9.27701C18.3457 9.27716 18.3484 9.27716 18.3511 9.27716C18.7595 9.27716 19.0926 8.92721 19.0971 8.49148C19.1005 8.16247 19.0986 7.93956 19.098 7.88496C19.1018 7.63832 19.1383 4.70002 18.7469 3.18C18.475 2.10594 17.6786 1.25929 16.6716 0.971081C15.2413 0.554892 10.1326 0.505409 9.55483 0.501221H9.54449C8.96698 0.505409 3.86177 0.554272 2.43453 0.953552L2.42695 0.955724C1.43543 1.24518 0.621119 2.1182 0.352255 3.18L0.35109 3.18434C-0.0256114 4.70623 -0.0012752 7.63645 0.00120214 7.86743C-0.00142093 8.09949 -0.0254657 11.0057 0.352255 12.5151C0.62418 13.5892 1.42057 14.436 2.42943 14.7247C3.87299 15.1403 8.96814 15.1897 9.54449 15.1939ZM12.5161 8.4631L8.70495 10.805C8.59609 10.8718 8.47485 10.9053 8.35346 10.9053C8.23134 10.9053 8.10922 10.8713 7.99993 10.8036C7.78192 10.6684 7.64771 10.4193 7.64771 10.1497V5.46586C7.64771 5.19626 7.78192 4.94713 7.99993 4.81218C8.21779 4.67707 8.48651 4.6766 8.70495 4.81078L12.5161 7.15264C12.7353 7.28744 12.8705 7.53734 12.8705 7.80787C12.8705 8.0784 12.7353 8.3283 12.5161 8.4631Z" fill="#5C5C5C"/>
</svg>
