<?xml version="1.0" encoding="utf-8"?>
<svg width="85px" height="85px" viewBox="0 0 85 85" version="1.1" xmlns:xlink="http://www.w3.org/1999/xlink" xmlns="http://www.w3.org/2000/svg">
  <defs>
    <linearGradient gradientUnits="userSpaceOnUse" x1="16.496058" y1="85" x2="100.859924" y2="-63.61036" id="gradient_1">
      <stop offset="0%" stop-color="#EEF1DF" />
      <stop offset="100%" stop-color="#F3F8ED" />
    </linearGradient>
    <filter id="filter_1">
      <feColorMatrix in="SourceGraphic" type="matrix" values="0 0 0 0 0.50980395 0 0 0 0 0.6 0 0 0 0 0.18431373 0 0 0 1 0" color-interpolation-filters="sRGB" />
    </filter>
    <path d="M0 0L49 0L49 24L0 24L0 0Z" id="path_1" />
    <path d="M0 0L43 0L43 29L0 29L0 0Z" id="path_2" />
    <clipPath id="mask_1">
      <use xlink:href="#path_1" />
    </clipPath>
    <clipPath id="mask_2">
      <use xlink:href="#path_2" />
    </clipPath>
  </defs>
  <g id="Group-21">
    <g id="Group-7">
      <g id="Group-5">
        <path d="M42.5 85C65.9721 85 85 65.9721 85 42.5C85 19.0279 65.9721 0 42.5 0C19.0279 0 0 19.0279 0 42.5C0 65.9721 19.0279 85 42.5 85Z" id="Oval" fill="url(#gradient_1)" style="mix-blend-mode: multiply;" fill-rule="evenodd" stroke="none" />
      </g>
    </g>
    <g id="Group-10" transform="translate(17 16)" filter="url(#filter_1)">
      <g id="Group-9">
        <g id="Group-3">
          <path d="M0 0L49 0L49 24L0 24L0 0Z" id="Clip-2" fill="none" fill-rule="evenodd" stroke="none" />
          <g clip-path="url(#mask_1)">
            <path d="M29.89 2.87999C32.0723 2.87999 33.81 4.58219 33.81 6.71999C33.81 8.85779 32.0723 10.56 29.89 10.56L25.97 10.56L25.97 6.71999C25.97 4.58219 27.7078 2.87999 29.89 2.87999M19.11 2.87999C21.2924 2.87999 23.03 4.58219 23.03 6.71999L23.03 10.56L19.11 10.56C16.9276 10.56 15.19 8.85779 15.19 6.71999C15.19 4.58219 16.9276 2.87999 19.11 2.87999M30.0373 13.44L46.06 13.44L46.06 21.12L2.93994 21.12L2.93994 13.44M35.254 10.56C39.5371 5.67815 35.2425 -0.000972 29.89 -1.2e-05C27.457 0.000468 25.759 1.01663 24.5 2.58563C23.241 1.01663 21.2919 -1.2e-05 19.11 -1.2e-05C15.3388 -1.2e-05 12.25 3.02567 12.25 6.71999C12.25 8.14547 12.7126 9.46907 13.4942 10.56L2.93994 10.56C1.33666 10.56 -6.12501e-05 11.8694 -6.12501e-05 13.44L-6.12501e-05 21.12C-6.12501e-05 22.6907 1.33666 24 2.93994 24L46.06 24C47.6634 24 49 22.6907 49 21.12L49 13.44C49 11.8694 47.6634 10.56 46.06 10.56" id="Fill-1" fill="#5C5C5C" fill-rule="evenodd" stroke="none" />
          </g>
        </g>
        <g id="Group-6" transform="translate(3 22)">
          <path d="M0 0L43 0L43 29L0 29L0 0Z" id="Clip-5" fill="none" fill-rule="evenodd" stroke="none" />
          <g clip-path="url(#mask_2)">
            <path d="M4.3786 29C1.96435 29 0.0001499 27.0972 0.0001499 24.7583L0.0001499 1.41863C-0.0112236 0.648418 0.626062 0.0120845 1.42099 0.000118476L1.46428 0C2.26006 0.0111367 2.8982 0.647351 2.88683 1.41827L2.88683 24.7583C2.88683 25.5822 3.52815 26.2035 4.3786 26.2035L38.6215 26.2035C39.472 26.2035 40.1133 25.5822 40.1133 24.7583C40.1133 24.5593 40.113 1.40583 40.1133 1.3787C40.1245 0.618562 40.7719 0.000236951 41.5563 0.000236951L41.5771 0.000355427C42.3728 0.0112552 43.0112 0.647351 42.9999 1.41827L42.9999 24.7583C42.9999 27.0972 41.0358 29 38.6215 29L4.3786 29Z" id="Fill-4" fill="#5C5C5C" fill-rule="evenodd" stroke="none" />
          </g>
        </g>
      </g>
    </g>
    <g id="Group-4" transform="translate(42.916016 38.242188)">
      <g id="Group-2">
        <g id="check" />
        <path d="M19.8478 34.9655C29.3147 34.9655 36.9891 27.3389 36.9891 17.931C36.9891 8.52315 29.3147 0.896552 19.8478 0.896552C10.3809 0.896552 2.70652 8.52315 2.70652 17.931C2.70652 27.3389 10.3809 34.9655 19.8478 34.9655Z" id="Oval" fill="#FFFFFF" fill-rule="evenodd" stroke="none" />
        <path d="M18.4946 0C8.29662 0 0 8.24492 0 18.3793C0 28.5137 8.29662 36.7586 18.4946 36.7586C28.6925 36.7586 36.9891 28.5137 36.9891 18.3793C36.9891 8.24492 28.6925 0 18.4946 0ZM18.4946 34.4612C9.57137 34.4612 2.31182 27.2469 2.31182 18.3793C2.31182 9.51172 9.57137 2.29741 18.4946 2.29741C27.4178 2.29741 34.6773 9.51172 34.6773 18.3793C34.6773 27.2469 27.4178 34.4612 18.4946 34.4612ZM27.2341 12.4245C27.6856 12.8731 27.6856 13.6004 27.2341 14.049L16.8844 24.3342C16.6676 24.5497 16.3736 24.6707 16.0671 24.6707C15.7605 24.6707 15.4665 24.5497 15.2497 24.3342L9.75487 18.8735C9.30349 18.425 9.30349 17.6976 9.75487 17.2491C10.2063 16.8004 10.9381 16.8004 11.3895 17.2491L16.067 21.8974L25.5994 12.4245C26.0508 11.9759 26.7827 11.9759 27.2341 12.4245L27.2341 12.4245Z" id="Shape" fill="#82992F" stroke="none" />
      </g>
    </g>
  </g>
</svg>