<?xml version="1.0" encoding="utf-8"?>
<!-- Generator: Adobe Illustrator 25.2.3, SVG Export Plug-In . SVG Version: 6.00 Build 0)  -->
<svg version="1.1" id="Capa_1" xmlns="http://www.w3.org/2000/svg" xmlns:xlink="http://www.w3.org/1999/xlink" x="0px" y="0px"
	 viewBox="0 0 24 15" style="enable-background:new 0 0 24 15;" xml:space="preserve">
<style type="text/css">
	.st0{fill:#41479B;}
	.st1{fill:#FFE15A;}
</style>
<path class="st0" d="M22.4,0H1.6C0.7,0,0,0.8,0,1.7v11.6C0,14.2,0.7,15,1.6,15h20.8c0.9,0,1.6-0.8,1.6-1.7V1.7C24,0.8,23.3,0,22.4,0
	z"/>
<g>
	<path class="st1" d="M12.1,2.3l0.1,0.4l0.5,0c0.1,0,0.1,0.1,0,0.1l-0.4,0.3l0.1,0.4c0,0.1,0,0.1-0.1,0.1L12,3.3l-0.4,0.3
		c0,0-0.1,0-0.1-0.1l0.1-0.4l-0.4-0.3c0,0,0-0.1,0-0.1l0.5,0l0.1-0.4C12,2.2,12,2.2,12.1,2.3z"/>
	<path class="st1" d="M12.1,11.5l0.1,0.4l0.5,0c0.1,0,0.1,0.1,0,0.1l-0.4,0.3l0.1,0.4c0,0.1,0,0.1-0.1,0.1L12,12.5l-0.4,0.3
		c0,0-0.1,0-0.1-0.1l0.1-0.4L11.3,12c0,0,0-0.1,0-0.1l0.5,0l0.1-0.4C12,11.4,12,11.4,12.1,11.5z"/>
	<path class="st1" d="M16.7,6.9l0.1,0.4l0.5,0c0.1,0,0.1,0.1,0,0.1l-0.4,0.3l0.1,0.4c0,0.1,0,0.1-0.1,0.1l-0.4-0.3l-0.4,0.3
		c0,0-0.1,0-0.1-0.1l0.1-0.4l-0.4-0.3c0,0,0-0.1,0-0.1l0.5,0l0.1-0.4C16.6,6.8,16.6,6.8,16.7,6.9z"/>
	<path class="st1" d="M7.5,6.9l0.1,0.4l0.5,0c0.1,0,0.1,0.1,0,0.1L7.7,7.7l0.1,0.4c0,0.1,0,0.1-0.1,0.1L7.4,7.9L7,8.2
		c0,0-0.1,0-0.1-0.1l0.1-0.4L6.7,7.4c0,0,0-0.1,0-0.1l0.5,0l0.1-0.4C7.4,6.8,7.4,6.8,7.5,6.9z"/>
	<path class="st1" d="M8.1,4.5l0.1,0.4l0.5,0c0.1,0,0.1,0.1,0,0.1L8.4,5.3l0.1,0.4c0,0.1,0,0.1-0.1,0.1L8.1,5.5L7.7,5.8
		c0,0-0.1,0-0.1-0.1l0.1-0.4L7.4,5c0,0,0-0.1,0-0.1l0.5,0L8,4.5C8,4.4,8.1,4.4,8.1,4.5z"/>
	<path class="st1" d="M16.1,9.1l0.1,0.4l0.5,0c0.1,0,0.1,0.1,0,0.1l-0.4,0.3l0.1,0.4c0,0.1,0,0.1-0.1,0.1l-0.4-0.3l-0.4,0.3
		c0,0-0.1,0-0.1-0.1l0.1-0.4l-0.4-0.3c0,0,0-0.1,0-0.1l0.5,0L16,9.1C16,9,16.1,9,16.1,9.1z"/>
	<path class="st1" d="M14.4,2.8l0.1,0.4l0.5,0c0.1,0,0.1,0.1,0,0.1l-0.4,0.3L14.8,4c0,0.1,0,0.1-0.1,0.1l-0.4-0.3L14,4.1
		c0,0-0.1,0-0.1-0.1l0.1-0.4l-0.4-0.3c0,0,0-0.1,0-0.1l0.5,0l0.1-0.4C14.3,2.7,14.4,2.7,14.4,2.8z"/>
	<path class="st1" d="M9.8,10.7l0.1,0.4l0.5,0c0.1,0,0.1,0.1,0,0.1l-0.4,0.3l0.1,0.4c0,0.1,0,0.1-0.1,0.1l-0.4-0.3l-0.4,0.3
		c0,0-0.1,0-0.1-0.1l0.1-0.4l-0.4-0.3c0,0,0-0.1,0-0.1l0.5,0l0.1-0.4C9.7,10.7,9.8,10.7,9.8,10.7z"/>
	<path class="st1" d="M16,4.5l-0.1,0.4l-0.5,0c-0.1,0-0.1,0.1,0,0.1l0.4,0.3l-0.1,0.4c0,0.1,0,0.1,0.1,0.1l0.4-0.3l0.4,0.3
		c0,0,0.1,0,0.1-0.1l-0.1-0.4L16.8,5c0,0,0-0.1,0-0.1l-0.5,0l-0.1-0.4C16.1,4.4,16,4.4,16,4.5z"/>
	<path class="st1" d="M8,9.1L7.9,9.5l-0.5,0c-0.1,0-0.1,0.1,0,0.1l0.4,0.3l-0.1,0.4c0,0.1,0,0.1,0.1,0.1l0.4-0.3l0.4,0.3
		c0,0,0.1,0,0.1-0.1L8.4,9.9l0.4-0.3c0,0,0-0.1,0-0.1l-0.5,0L8.1,9.1C8.1,9,8,9,8,9.1z"/>
	<path class="st1" d="M9.7,2.8L9.6,3.2l-0.5,0c-0.1,0-0.1,0.1,0,0.1l0.4,0.3L9.3,4c0,0.1,0,0.1,0.1,0.1l0.4-0.3l0.4,0.3
		c0,0,0.1,0,0.1-0.1l-0.1-0.4l0.4-0.3c0,0,0-0.1,0-0.1l-0.5,0L9.8,2.8C9.8,2.7,9.7,2.7,9.7,2.8z"/>
	<path class="st1" d="M14.3,10.7l-0.1,0.4l-0.5,0c-0.1,0-0.1,0.1,0,0.1l0.4,0.3L13.9,12c0,0.1,0,0.1,0.1,0.1l0.4-0.3l0.4,0.3
		c0,0,0.1,0,0.1-0.1l-0.1-0.4l0.4-0.3c0,0,0-0.1,0-0.1l-0.5,0l-0.1-0.4C14.4,10.7,14.3,10.7,14.3,10.7z"/>
</g>
</svg>
