<?xml version="1.0" encoding="utf-8"?>
<!-- Generator: Adobe Illustrator 25.2.3, SVG Export Plug-In . SVG Version: 6.00 Build 0)  -->
<svg version="1.1" id="Capa_1" xmlns="http://www.w3.org/2000/svg" xmlns:xlink="http://www.w3.org/1999/xlink" x="0px" y="0px"
	 viewBox="0 0 24 15" style="enable-background:new 0 0 24 15;" xml:space="preserve">
<style type="text/css">
	.st0{fill:#FFE15A;}
	.st1{fill:#FF4B55;}
	.st2{fill:#41479B;}
	.st3{fill:#5A4646;}
	.st4{fill:#E6E1CD;}
	.st5{fill:#FFD0AF;}
	.st6{fill:#FFAF94;}
	.st7{fill:#8CB400;}
	.st8{fill:#69C3FF;}
	.st9{fill:#009B64;}
	.st10{fill:#F5F5F5;}
	.st11{fill:#5AA0E6;}
	.st12{fill:#FFC88C;}
	.st13{fill:#E1E1E1;}
	.st14{fill:#966446;}
	.st15{fill:#BE915A;}
	.st16{fill:#B9B9B9;}
</style>
<path id="Path" class="st0" d="M22.4,0H1.6C0.7,0,0,0.8,0,1.7v5.8h24V1.7C24,0.8,23.3,0,22.4,0z"/>
<path id="Path_1_" class="st1" d="M0,13.3C0,14.2,0.7,15,1.6,15h20.8c0.9,0,1.6-0.8,1.6-1.7v-2H0V13.3z"/>
<rect id="Rectangle" y="7.5" class="st2" width="24" height="3.8"/>
<g>
	<path class="st0" d="M11.5,7.8l3.4-2.9v4.2c0,0.7-0.6,1.3-1.3,1.3l0,0c-0.3,0-0.6-0.1-0.9-0.3l-1.2-1.1L11.5,7.8L11.5,7.8z"/>
	<path class="st1" d="M13.3,9.4l-1-0.9V7.1l1.8-1.5v1.1v2.4c0,0.3-0.2,0.5-0.5,0.5C13.5,9.5,13.4,9.5,13.3,9.4z"/>
	<path class="st2" d="M12.8,6.7v1.7L13.6,9V6.6V6l0.5-0.4v1.1v2.4c0,0.3-0.2,0.5-0.5,0.5c-0.1,0-0.2,0-0.3-0.1l-1-0.9V7.1L12.8,6.7z
		"/>
	<path class="st0" d="M12.5,7.8L9.1,4.9v4.2c0,0.7,0.6,1.3,1.3,1.3l0,0c0.3,0,0.6-0.1,0.9-0.3l1.2-1.1V7.8z"/>
	<path class="st1" d="M10.7,9.4l1-0.9V7.1L9.9,5.6v1.1v2.4c0,0.3,0.2,0.5,0.5,0.5C10.5,9.5,10.6,9.5,10.7,9.4z"/>
	<g>
		<path class="st2" d="M11.2,6.7v1.7L10.4,9V6.6V6L9.9,5.6v1.1v2.4c0,0.3,0.2,0.5,0.5,0.5c0.1,0,0.2,0,0.3-0.1l1-0.9V7.1L11.2,6.7z"
			/>
		<rect x="14.8" y="4.9" class="st2" width="0.2" height="1.4"/>
		<rect x="9" y="4.9" class="st2" width="0.2" height="1.4"/>
	</g>
	<g>
		<path class="st3" d="M11.5,4.2c0,0,0.3-1.5-0.8-1.3C9.6,3.1,9.6,3.4,8.3,4.1c0,0,1.4,0.3,2.1,0.2c0,0,0.5,0.6,1,0.8h0.5L11.5,4.2z
			"/>
		<path class="st3" d="M12.5,4.2c0,0-0.3-1.5,0.8-1.3c1.1,0.2,1.1,0.5,2.4,1.2c0,0-1.4,0.3-2.1,0.2c0,0-0.5,0.6-1,0.8h-0.5L12.5,4.2
			z"/>
		<path class="st3" d="M12.5,5h-1V4.2c0-0.3,0.2-0.5,0.5-0.5h0c0.3,0,0.5,0.2,0.5,0.5L12.5,5L12.5,5z"/>
	</g>
	<circle class="st4" cx="12" cy="4.2" r="0.3"/>
	<path class="st5" d="M11.3,4l0.6,0.3c0.1,0,0.1,0,0.2,0l0,0c0.1-0.1,0.1-0.1,0-0.2l-0.4-0.4h-0.1C11.4,3.7,11.3,3.9,11.3,4L11.3,4z
		"/>
	<path class="st6" d="M11.5,4.1H11l0.2-0.2c0,0,0.1-0.1,0.2-0.1h0.3v0.2C11.7,4,11.6,4.1,11.5,4.1z"/>
	<g>
		<path class="st7" d="M13.4,5c-0.1-0.1-0.1-0.3-0.1-0.4c0.2,0,0.3,0,0.4,0.2c0.1,0.1,0.1,0.2,0.1,0.4c0,0.1,0.1,0.1,0.1,0.2
			c0,0,0,0,0,0c0-0.1,0.1-0.2,0.3-0.3c0.1,0.1,0.1,0.2,0.1,0.4c0,0.1-0.1,0.2-0.2,0.2c0,0.1,0.1,0.2,0.1,0.3c0,0,0,0,0,0
			c0.1-0.1,0.2-0.2,0.3-0.2c0.1,0.1,0.1,0.2,0.1,0.4c0,0.1-0.1,0.2-0.2,0.2c0.1,0.2,0.1,0.5,0.1,0.7h-0.2c0-0.2,0-0.4-0.1-0.6
			c-0.1,0-0.2,0-0.3,0c-0.1-0.1-0.2-0.2-0.2-0.3c0.1-0.1,0.3-0.1,0.4,0c0,0,0,0,0,0c0-0.1-0.1-0.2-0.1-0.3c-0.1,0-0.2,0.1-0.3,0
			c-0.1-0.1-0.2-0.2-0.2-0.3c0.1-0.1,0.2-0.1,0.4,0c0-0.1-0.1-0.2-0.1-0.2C13.6,5.2,13.4,5.1,13.4,5z"/>
		<path class="st7" d="M10.6,5c0.1-0.1,0.1-0.3,0.1-0.4c-0.2,0-0.3,0-0.4,0.2c-0.1,0.1-0.1,0.2-0.1,0.4c0,0.1-0.1,0.1-0.1,0.2
			c0,0,0,0,0,0C10,5.2,9.9,5.1,9.8,5C9.7,5.1,9.7,5.3,9.7,5.4c0,0.1,0.1,0.2,0.2,0.2c0,0.1-0.1,0.2-0.1,0.3c0,0,0,0,0,0
			C9.8,5.8,9.6,5.7,9.5,5.7C9.4,5.8,9.4,5.9,9.5,6.1c0,0.1,0.1,0.2,0.2,0.2C9.7,6.5,9.6,6.7,9.6,7h0.2c0-0.2,0-0.4,0.1-0.6
			c0.1,0,0.2,0,0.3,0c0.1-0.1,0.2-0.2,0.2-0.3c-0.1-0.1-0.3-0.1-0.4,0c0,0,0,0,0,0c0-0.1,0.1-0.2,0.1-0.3c0.1,0,0.2,0.1,0.3,0
			c0.1-0.1,0.2-0.2,0.2-0.3c-0.1-0.1-0.2-0.1-0.4,0c0-0.1,0.1-0.2,0.1-0.2C10.4,5.2,10.6,5.1,10.6,5z"/>
	</g>
	<path class="st0" d="M12,8.6L8.6,5.7v4.2c0,0.7,0.6,1.3,1.3,1.3l0,0c0.3,0,0.6-0.1,0.9-0.3L12,9.7V8.6z"/>
	<path class="st1" d="M10.2,10.2l1-0.9V7.9L9.4,6.4v1.1v2.4c0,0.3,0.2,0.5,0.5,0.5C10,10.3,10.1,10.3,10.2,10.2z"/>
	<path class="st2" d="M10.7,7.5v1.7L9.9,9.8V7.4V6.8L9.4,6.4v1.1v2.4c0,0.3,0.2,0.5,0.5,0.5c0.1,0,0.2,0,0.3-0.1l1-0.9V7.9L10.7,7.5
		z"/>
	<path class="st0" d="M12,8.6l3.4-2.9v4.2c0,0.7-0.6,1.3-1.3,1.3l0,0c-0.3,0-0.6-0.1-0.9-0.3L12,9.7V8.6z"/>
	<path class="st1" d="M13.8,10.2l-1-0.9V7.9l1.8-1.5v1.1v2.4c0,0.3-0.2,0.5-0.5,0.5C14,10.3,13.9,10.3,13.8,10.2z"/>
	<path class="st2" d="M13.3,7.5v1.7l0.8,0.7V7.4V6.8l0.5-0.4v1.1v2.4c0,0.3-0.2,0.5-0.5,0.5c-0.1,0-0.2,0-0.3-0.1l-1-0.9V7.9
		L13.3,7.5z"/>
	<ellipse class="st8" cx="12" cy="7.4" rx="1.6" ry="2.4"/>
	<path class="st9" d="M10.6,8.1h2.9l0.2-0.6l-0.7,0.1c-0.1,0-0.3,0-0.4-0.1l-0.8-0.7c-0.1-0.1-0.2-0.1-0.3-0.1l0,0
		c-0.1,0-0.2,0-0.3,0.1l-0.5,0.5L10.6,8.1L10.6,8.1z"/>
	<path class="st10" d="M11.8,7.3l0.3-0.2l-0.5-0.4c-0.1-0.1-0.2-0.1-0.3-0.1l0,0c-0.1,0-0.2,0-0.3,0.1l-0.5,0.5v0.2l0.8-0.2l0.1,0.1
		C11.6,7.4,11.7,7.4,11.8,7.3z"/>
	<polygon class="st11" points="10.6,8.1 10.7,9 11.5,9.8 12,9.8 12.6,9.7 13.3,9 13.4,8.1 	"/>
	<path class="st12" d="M12,10c-1,0-1.8-1.2-1.8-2.6S11,4.9,12,4.9s1.8,1.2,1.8,2.6S13,10,12,10z M12,5.2c-0.8,0-1.4,1-1.4,2.2
		s0.6,2.2,1.4,2.2s1.4-1,1.4-2.2S12.8,5.2,12,5.2z"/>
	<g>
		<path class="st13" d="M10.9,9.8c-0.1-0.2-0.3-0.3-0.6-0.3S9.9,9.6,9.7,9.8c0.2,0.1,0.4,0.2,0.5,0.5c0,0.1,0.1,0.2,0.1,0.3
			C10.3,10.3,10.5,9.9,10.9,9.8z"/>
		<path class="st13" d="M10.4,10.3c0,0,0,0.2-0.1,0.3l0,0c-0.1-0.1-0.1-0.3-0.1-0.3L10.4,10.3z"/>
	</g>
	<path class="st14" d="M14,10.4h-4c0,0-0.1,0-0.1-0.1v0c0,0,0-0.1,0.1-0.1h4C14.1,10.2,14.1,10.3,14,10.4L14,10.4
		C14.1,10.4,14.1,10.4,14,10.4z"/>
	<path class="st15" d="M12.8,10.6h-1.6c-0.2,0-0.3-0.1-0.3-0.3v0c0-0.2,0.1-0.3,0.3-0.3h1.6c0.2,0,0.3,0.1,0.3,0.3v0
		C13.1,10.5,13,10.6,12.8,10.6z"/>
	<path class="st16" d="M10.6,10.2H10c0,0-0.1,0-0.1,0.1s0,0.1,0.1,0.1h0.6V10.2z"/>
	<polygon class="st1" points="12,10.6 12,12.1 11.4,11.9 11.7,10.6 	"/>
	<polygon class="st2" points="11.8,10.6 11.5,11.8 10.9,11.6 11.4,10.6 	"/>
	<polygon class="st0" points="11.2,10.6 10.7,11.3 11.2,11.5 11.5,10.6 	"/>
	<polygon class="st1" points="12,10.6 12,12.1 12.6,11.9 12.3,10.6 	"/>
	<polygon class="st2" points="12.2,10.6 12.5,11.8 13.1,11.6 12.6,10.6 	"/>
	<polygon class="st0" points="12.8,10.6 13.3,11.3 12.8,11.5 12.5,10.6 	"/>
	<g>
		<polygon class="st2" points="8.7,7.1 8.5,6.8 8.5,5.7 8.7,5.7 		"/>
		<polygon class="st2" points="15.5,6.8 15.3,7.1 15.3,5.7 15.5,5.7 		"/>
	</g>
</g>
</svg>
