<svg width="18" height="18" viewBox="0 0 18 18" fill="none" xmlns="http://www.w3.org/2000/svg">
<path d="M16.5859 8.23593H9.41406V1.06406C9.41406 0.697295 9.11676 0.399994 8.75 0.399994C8.38324 0.399994 8.08594 0.697295 8.08594 1.06406V8.23593H0.914062C0.547301 8.23593 0.25 8.53323 0.25 8.89999C0.25 9.26676 0.547301 9.56406 0.914062 9.56406H8.08594V16.7359C8.08594 17.1027 8.38324 17.4 8.75 17.4C9.11676 17.4 9.41406 17.1027 9.41406 16.7359V9.56406H16.5859C16.9527 9.56406 17.25 9.26676 17.25 8.89999C17.25 8.53323 16.9527 8.23593 16.5859 8.23593Z" fill="#82992F"/>
</svg>
